<?xml version="1.0" encoding="utf-8"?>
<!-- Generator: Adobe Illustrator 18.1.1, SVG Export Plug-In . SVG Version: 6.00 Build 0)  -->
<svg version="1.1" id="Layer_1" xmlns="http://www.w3.org/2000/svg" xmlns:xlink="http://www.w3.org/1999/xlink" x="0px" y="0px"
	 viewBox="0 0 960 560" enable-background="new 0 0 960 560" xml:space="preserve">
<g>
	<path fill="#FFFFFF" d="M97.6,363H65v12.9c4,1.8,12.9,7.5,15.7,15l18,0c14.1,0,22.3,5.8,22.3,19.1v0.3c0,13.3-7.5,19.1-21.6,19.1
		l-34.4,0V457h31.6c37.2,0,56.4-20.2,56.4-47.5v-0.3C153,382.1,134.2,363,97.6,363z"/>
	<path fill="#FFFFFF" d="M158.8,410.3v-0.3c0-25.6,21.1-46,48.3-46s48.1,20.2,48.1,45.8v0.3c0,25.6-21.1,46-48.3,46
		S158.8,435.9,158.8,410.3z M225.4,410.3v-0.3c0-10.5-7.2-19.9-18.5-19.9c-11.2,0-18.3,9.3-18.3,19.7v0.3c0,10.5,7.2,19.9,18.5,19.9
		C218.3,430,225.4,420.7,225.4,410.3z"/>
	<path fill="#FFFFFF" d="M261.4,410.3v-0.3c0-26.4,20.6-46,46.9-46c19.4,0,32.5,9.5,40,23L324,401.2c-3.3-6.3-7.9-10.7-16-10.7
		c-10,0-16.5,8.7-16.5,19.3v0.3c0,11.5,6.8,19.6,16.5,19.6c8.3,0,13-4.5,16.6-11.1l24.3,13.7c-7.4,13.1-19.8,23.8-41.8,23.8
		C282.7,456.1,261.4,437.7,261.4,410.3z"/>
	<path fill="#FFFFFF" d="M355.2,365.9h29.5V429h41.5v25.2h-71V365.9z"/>
	<path fill="#FFFFFF" d="M432.5,365.9h75.9v24.2h-46.9v9h43.1v21.3h-43.1v9.6h46.9v24.2h-75.9V365.9z"/>
	<path fill="#FFFFFF" d="M514.8,365.9h43.1c15.6,0,25.6,3.9,31.8,10.1c5.3,5.3,8.1,11.9,8.1,20.9v0.3c0,12.9-6.7,21.8-17.4,27
		l20.6,30h-33.7L550.6,429h-6.3v25.2h-29.5V365.9z M557,407.9c7.1,0,11.4-3.2,11.4-8.6v-0.3c0-5.7-4.4-8.5-11.2-8.5h-12.9v17.3H557z
		"/>
	<path fill="#FFFFFF" d="M56.8,416.2c-9.3,0-16.8-7.5-16.8-16.8s7.5-16.8,16.8-16.8s16.8,7.5,16.8,16.8S66.1,416.2,56.8,416.2z
		 M56.8,392.2c-3.9,0-7.1,3.2-7.1,7.1s3.2,7.1,7.1,7.1s7.1-3.2,7.1-7.1S60.7,392.2,56.8,392.2z"/>
	<path fill="#FFFFFF" d="M40,444.5c-5.8,0-10.5-4.7-10.5-10.5s4.7-10.5,10.5-10.5s10.5,4.7,10.5,10.5S45.8,444.5,40,444.5z
		 M40,429.6c-2.5,0-4.5,2-4.5,4.5s2,4.5,4.5,4.5c2.5,0,4.5-2,4.5-4.5S42.5,429.6,40,429.6z"/>
	<path fill="#FFFFFF" d="M19.4,412c-3.5,0-6.3-2.8-6.3-6.3c0-3.5,2.8-6.3,6.3-6.3s6.3,2.8,6.3,6.3C25.7,409.1,22.9,412,19.4,412z
		 M19.4,403c-1.5,0-2.7,1.2-2.7,2.7c0,1.5,1.2,2.7,2.7,2.7c1.5,0,2.7-1.2,2.7-2.7C22.1,404.2,20.9,403,19.4,403z"/>
	<path fill="#FFFFFF" d="M615.6,365.9h6.8v82.3h54v6.1h-60.8V365.9z"/>
	<path fill="#FFFFFF" d="M732.3,365.3h6.6l42.8,88.9h-7.5l-11.7-24.7h-54.3l-11.7,24.7h-7.1L732.3,365.3z M759.7,423.6l-24.2-51.1
		l-24.3,51.1H759.7z"/>
	<path fill="#FFFFFF" d="M794.8,365.9h38c10.4,0,18.8,2.9,23.9,7.8c3.8,3.7,5.9,8.3,5.9,13.9v0.3c0,12-8.1,18-15.6,20.9
		c11,2.8,20.8,8.8,20.8,21.1v0.3c0,14.8-13.1,24.1-33,24.1h-39.9V365.9z M855.7,388.3c0-9.7-8.3-16.3-23-16.3h-31v34.7H832
		c13.8,0,23.6-6.4,23.6-18.2V388.3z M832.8,412.7h-31.1v35.4H835c15.8,0,25.7-6.9,25.7-18v-0.3C860.8,419,850.9,412.7,832.8,412.7z"
		/>
	<path fill="#FFFFFF" d="M880.9,441.4l4.5-4.9c10.1,9,19.4,13.1,33,13.1c13.8,0,23.3-7.4,23.3-17.5v-0.3c0-9.3-5.1-14.8-26-18.8
		c-22.1-4.3-31-11.5-31-24.9v-0.3c0-13.1,12.5-23.2,29.6-23.2c13.4,0,22.2,3.5,31.5,10.7l-4.3,5.2c-8.7-7.2-17.3-10-27.5-10
		c-13.5,0-22.5,7.4-22.5,16.7v0.3c0,9.3,5,15,26.8,19.3c21.3,4.2,30.2,11.5,30.2,24.3v0.3c0,14.3-12.7,24.1-30.5,24.1
		C903.2,455.5,891.9,450.8,880.9,441.4z"/>
</g>
<g>
	<path fill="#FFFFFF" d="M318.2,174.5l-77-77l-15.6,15.6l28.9,28.9l-62.3,62.3l77,77l15.6-15.6l-28.9-28.9L318.2,174.5z M226.7,207
		l46.3-46.4l9.5,9.5l-46.4,46.4L226.7,207z"/>
	<g>
		<path fill="#FFFFFF" d="M371.3,119.9v23.6h25.6v13.6h-25.6v53.1c0,12.2,3.5,19.1,13.4,19.1c4.9,0,7.7-0.4,10.4-1.2l0.8,13.6
			c-3.5,1.2-8.9,2.4-15.9,2.4c-8.3,0-15.1-2.9-19.3-7.5c-4.9-5.5-6.9-14.2-6.9-25.8v-53.7h-15.3v-13.6h15.3v-18.3L371.3,119.9z"/>
		<path fill="#FFFFFF" d="M493.2,191.9c0,36.4-25.4,52.3-49,52.3c-26.4,0-47.2-19.5-47.2-50.6c0-32.7,21.8-52.1,48.8-52.1
			C474.1,141.4,493.2,162,493.2,191.9z M415.3,192.9c0,21.6,12.2,37.8,29.7,37.8c17.1,0,29.9-16.1,29.9-38.2
			c0-16.7-8.3-37.6-29.5-37.6C424.4,154.9,415.3,174.4,415.3,192.9z"/>
		<path fill="#FFFFFF" d="M502.1,175.6c0-12.6-0.4-22.8-0.8-32.1h15.9l1,16.9h0.4c7.1-12,18.9-18.9,35-18.9
			c24,0,41.9,20.1,41.9,49.8c0,35.4-21.8,52.9-44.9,52.9c-13,0-24.4-5.7-30.3-15.5h-0.4v53.5h-17.7V175.6z M519.8,201.8
			c0,2.6,0.2,5.1,0.8,7.3c3.3,12.4,14,20.9,26.9,20.9c18.9,0,29.9-15.5,29.9-38c0-19.5-10.4-36.4-29.3-36.4
			c-12.2,0-23.8,8.5-27.1,22c-0.6,2.2-1.2,4.9-1.2,7.1V201.8z"/>
		<path fill="#FFFFFF" d="M629.6,119.9v23.6h25.6v13.6h-25.6v53.1c0,12.2,3.5,19.1,13.4,19.1c4.9,0,7.7-0.4,10.4-1.2l0.8,13.6
			c-3.5,1.2-9,2.4-15.9,2.4c-8.3,0-15-2.9-19.3-7.5c-4.9-5.5-6.9-14.2-6.9-25.8v-53.7h-15.3v-13.6h15.3v-18.3L629.6,119.9z"/>
		<path fill="#FFFFFF" d="M736.7,218.3c0,8.5,0.4,16.9,1.4,23.6h-16.1l-1.4-12.4h-0.6c-5.5,7.7-16.1,14.6-30.1,14.6
			c-19.9,0-30.1-14-30.1-28.3c0-23.8,21.2-36.8,59.2-36.6v-2c0-7.9-2.2-22.8-22.4-22.6c-9.4,0-18.9,2.6-25.8,7.3l-4.1-12
			c8.1-5.1,20.1-8.5,32.5-8.5c30.1,0,37.4,20.5,37.4,40.1V218.3z M719.5,191.7c-19.5-0.4-41.7,3.1-41.7,22.2
			c0,11.8,7.7,17.1,16.7,17.1c13,0,21.4-8.1,24.2-16.5c0.6-2,0.8-4.1,0.8-5.7V191.7z"/>
		<path fill="#FFFFFF" d="M750,97.5h17.9v144.4H750V97.5z"/>
	</g>
</g>
</svg>
