<?xml version="1.0" encoding="utf-8"?>
<!-- Generator: Adobe Illustrator 18.1.1, SVG Export Plug-In . SVG Version: 6.00 Build 0)  -->
<svg version="1.0" id="Layer_1" xmlns="http://www.w3.org/2000/svg" xmlns:xlink="http://www.w3.org/1999/xlink" x="0px" y="0px"
	 viewBox="0 0 960 322" enable-background="new 0 0 960 322" xml:space="preserve">
<g>
	<path fill="#FFFFFF" d="M491.1,261h-86v-86h86V261z M476.3,189.8h-56.4v56.4h56.4V189.8z"/>
	<g>
		<g>
			<path fill="#FFFFFF" d="M505.9,215.1v-37c0-0.5,0.2-0.9,0.7-1.2c0.5-0.3,1-0.4,1.6-0.4c0.6,0,1.2,0.1,1.6,0.4
				c0.5,0.3,0.7,0.7,0.7,1.2v18.2l14.8-19.2c0.3-0.4,0.8-0.7,1.4-0.7c0.6,0,1.2,0.3,1.8,0.8c0.6,0.5,0.9,1,0.9,1.6
				c0,0.4-0.1,0.7-0.4,1l-11.2,14l13.1,19.8c0.2,0.3,0.3,0.6,0.3,0.8c0,0.6-0.3,1.1-0.9,1.6s-1.2,0.7-1.8,0.7
				c-0.7,0-1.3-0.3-1.7-0.9l-12.1-18.1l-4.1,5.1v12.2c0,0.5-0.2,0.9-0.7,1.2c-0.5,0.3-1,0.4-1.6,0.4c-0.6,0-1.2-0.1-1.6-0.4
				C506.1,216,505.9,215.6,505.9,215.1z"/>
			<path fill="#FFFFFF" d="M533.2,182.7c-0.6-0.5-0.9-1.1-0.9-1.8c0-0.7,0.3-1.3,0.8-1.8c0.6-0.5,1.2-0.8,2-0.8c0.8,0,1.4,0.3,2,0.8
				c0.6,0.5,0.8,1.1,0.8,1.8c0,0.7-0.3,1.3-0.8,1.8c-0.6,0.5-1.2,0.8-2,0.8C534.5,183.5,533.8,183.2,533.2,182.7z M533,215.1v-22.9
				c0-0.5,0.2-0.9,0.7-1.2c0.4-0.3,1-0.4,1.6-0.4c0.7,0,1.2,0.1,1.7,0.4c0.4,0.3,0.7,0.7,0.7,1.2v22.8c0,0.4-0.2,0.8-0.7,1.1
				c-0.5,0.3-1,0.5-1.6,0.5s-1.2-0.2-1.6-0.5C533.2,215.9,533,215.5,533,215.1z"/>
			<path fill="#FFFFFF" d="M542.6,208.4v-28.4c0-0.4,0.2-0.8,0.7-1.1c0.5-0.3,1-0.5,1.5-0.5c0.6,0,1.1,0.2,1.6,0.5
				c0.5,0.3,0.7,0.7,0.7,1.1v10.6h6.9c0.4,0,0.7,0.2,1,0.6c0.3,0.4,0.4,0.8,0.4,1.3s-0.1,0.9-0.4,1.2c-0.3,0.3-0.6,0.5-1,0.5h-6.9
				v14.1c0,1.6,0.3,2.7,1,3.3c0.7,0.6,1.9,1,3.6,1h1.7c0.6,0,1.1,0.2,1.5,0.6c0.4,0.4,0.5,0.9,0.5,1.5c0,0.6-0.2,1.1-0.6,1.5
				c-0.4,0.4-0.8,0.6-1.4,0.6h-1.7C545.6,216.8,542.6,214,542.6,208.4z"/>
			<path fill="#FFFFFF" d="M557,206.5V201c0-3.2,0.9-5.7,2.8-7.7c1.9-2,4.6-3,8.2-3c2.3,0,4.2,0.4,5.8,1.2c1.6,0.8,2.3,1.7,2.3,2.6
				c0,0.5-0.2,1-0.6,1.5c-0.4,0.5-0.8,0.7-1.3,0.7c-0.1,0-0.8-0.3-1.9-0.9c-1.1-0.6-2.4-0.9-3.9-0.9c-2.2,0-3.9,0.6-5,1.7
				c-1.1,1.1-1.7,2.7-1.7,4.8v5.5c0,4.3,2.3,6.5,6.8,6.5c1.5,0,2.9-0.3,4-1c1.1-0.6,1.8-1,2-1c0.6,0,1.1,0.2,1.5,0.7
				c0.4,0.5,0.6,1,0.6,1.5c0,0.9-0.8,1.8-2.4,2.6c-1.6,0.8-3.6,1.3-5.9,1.3c-3.6,0-6.4-1-8.2-2.9C557.9,212.3,557,209.7,557,206.5z"
				/>
			<path fill="#FFFFFF" d="M579.6,215.1v-38.5c0-0.5,0.2-0.9,0.6-1.2s1-0.4,1.6-0.4c0.7,0,1.2,0.1,1.7,0.4c0.4,0.3,0.7,0.7,0.7,1.2
				v18c0.6-1.2,1.5-2.2,2.8-3c1.2-0.8,2.7-1.2,4.4-1.2c2.6,0,4.9,1,6.8,3.1c1.9,2.1,2.9,4.6,2.9,7.5v14.2c0,0.5-0.2,0.9-0.7,1.2
				c-0.5,0.3-1,0.4-1.6,0.4c-0.6,0-1.1-0.1-1.6-0.4c-0.5-0.3-0.7-0.7-0.7-1.2v-14.2c0-1.6-0.6-3.1-1.9-4.4c-1.2-1.3-2.7-2-4.4-2
				c-1.6,0-3,0.6-4.2,1.8s-1.8,2.7-1.8,4.6v14.2c0,0.4-0.2,0.8-0.7,1.1c-0.5,0.3-1,0.5-1.6,0.5c-0.6,0-1.2-0.2-1.6-0.5
				C579.8,215.9,579.6,215.6,579.6,215.1z"/>
			<path fill="#FFFFFF" d="M604.9,206.5v-5.8c0-2.8,1.1-5.3,3.2-7.3c2.1-2.1,4.7-3.1,7.7-3.1c2.9,0,5.3,1,7.4,2.9
				c2.1,1.9,3.1,4.3,3.1,7.2c0,1.1-0.1,1.9-0.4,2.6c-0.3,0.7-0.7,1.1-1.2,1.4c-0.5,0.3-1,0.5-1.5,0.5c-0.5,0.1-1.1,0.1-1.8,0.1
				h-12.1v1.7c0,2,0.7,3.6,2.2,4.8c1.5,1.2,3.3,1.8,5.6,1.8c1.2,0,2.3-0.2,3.2-0.6c0.9-0.4,1.6-0.7,2.2-1.1c0.6-0.3,1-0.5,1.3-0.5
				c0.5,0,1,0.2,1.3,0.7c0.4,0.5,0.6,0.9,0.6,1.4c0,0.8-0.8,1.7-2.5,2.6c-1.7,0.9-3.7,1.3-6.2,1.3c-3.6,0-6.5-1-8.8-2.9
				C606,212.3,604.9,209.7,604.9,206.5z M609.4,201.9h10.2c1,0,1.6-0.1,1.9-0.4c0.3-0.2,0.5-0.7,0.5-1.4c0-1.7-0.6-3.1-1.8-4.4
				c-1.2-1.2-2.7-1.9-4.5-1.9c-1.7,0-3.2,0.6-4.5,1.7c-1.2,1.2-1.9,2.6-1.9,4.3L609.4,201.9L609.4,201.9z"/>
			<path fill="#FFFFFF" d="M630.1,215.1v-22.9c0-0.5,0.2-0.9,0.6-1.2c0.4-0.3,1-0.4,1.6-0.4c0.6,0,1,0.2,1.5,0.5
				c0.4,0.3,0.6,0.7,0.6,1.1v2.3c0.6-1.2,1.5-2.2,2.8-3c1.3-0.8,2.8-1.2,4.5-1.2c2.6,0,4.9,1,6.8,3.1c1.9,2.1,2.9,4.6,2.9,7.5v14.2
				c0,0.5-0.2,0.9-0.7,1.2c-0.5,0.3-1,0.4-1.6,0.4c-0.6,0-1.1-0.1-1.6-0.4c-0.5-0.3-0.7-0.7-0.7-1.2v-14.2c0-1.6-0.6-3.1-1.9-4.4
				c-1.2-1.3-2.7-2-4.4-2c-1.6,0-3,0.6-4.2,1.8c-1.2,1.2-1.8,2.7-1.8,4.6v14.2c0,0.4-0.2,0.8-0.7,1.1c-0.5,0.3-1,0.5-1.6,0.5
				c-0.6,0-1.2-0.2-1.6-0.5C630.3,215.9,630.1,215.5,630.1,215.1z"/>
		</g>
		<g>
			<g>
				<path fill="#FFFFFF" d="M666.5,215.2v-37c0-0.5,0.2-0.9,0.6-1.2c0.4-0.3,0.9-0.4,1.5-0.4h9.5c3.5,0,6.2,0.7,8.2,2
					c2,1.4,3,3.8,3,7.4c0,2.3-0.4,4.2-1.2,5.8c-0.8,1.6-2,2.7-3.4,3.3c1.9,0.7,3.3,1.8,4.2,3.2c1,1.4,1.4,3.5,1.4,6.1v1
					c0,4-1,6.9-3,8.7c-2,1.8-4.6,2.8-7.9,2.8h-10.7c-0.6,0-1.1-0.2-1.5-0.5C666.7,216,666.5,215.6,666.5,215.2z M671.1,193h6.9
					c2.3,0,3.9-0.5,5-1.5c1.1-1,1.6-2.7,1.6-4.9c0-3.9-2.3-5.9-6.8-5.9h-6.7V193z M671.1,212.6h7.4c4.7,0,7-2.5,7-7.5v-0.9
					c0-2.5-0.6-4.4-1.8-5.5c-1.2-1.1-2.9-1.7-5.3-1.7h-7.4V212.6z"/>
				<path fill="#FFFFFF" d="M694.2,206.6v-14.3c0-0.4,0.2-0.8,0.7-1.2c0.5-0.3,1-0.5,1.6-0.5c0.6,0,1.1,0.2,1.6,0.5
					c0.5,0.3,0.7,0.7,0.7,1.1v14.3c0,1.6,0.6,3.1,1.9,4.4c1.2,1.3,2.7,2,4.5,2c1.7,0,3.2-0.7,4.4-2c1.2-1.3,1.9-2.8,1.9-4.5v-14.3
					c0-0.4,0.2-0.8,0.7-1.1c0.5-0.3,1-0.5,1.6-0.5c0.7,0,1.2,0.2,1.6,0.5c0.4,0.3,0.6,0.7,0.6,1.1v14.4c0,2.8-1.1,5.3-3.2,7.4
					c-2.1,2.1-4.7,3.2-7.6,3.2c-3,0-5.5-1.1-7.7-3.2C695.3,211.9,694.2,209.5,694.2,206.6z"/>
				<path fill="#FFFFFF" d="M719.9,206.5v-5.6c0-2.9,1-5.4,2.9-7.5c1.9-2.1,4.3-3.1,6.9-3.1c1.7,0,3.1,0.4,4.3,1.2
					c1.2,0.8,2.2,1.8,2.9,3v-18c0-0.5,0.2-0.9,0.7-1.2c0.4-0.3,1-0.4,1.7-0.4c0.7,0,1.2,0.2,1.6,0.4c0.4,0.3,0.6,0.7,0.6,1.2v38.5
					c0,0.4-0.2,0.8-0.7,1.2c-0.4,0.3-1,0.5-1.6,0.5c-0.6,0-1-0.2-1.5-0.5c-0.4-0.3-0.6-0.7-0.6-1.2v-2.2c-0.6,1.2-1.6,2.2-3,3.1
					c-1.4,0.9-2.9,1.3-4.6,1.3c-2.6,0-4.8-1.1-6.8-3.3C720.8,211.8,719.9,209.3,719.9,206.5z M724.4,206.5c0,1.7,0.6,3.2,1.9,4.5
					c1.2,1.3,2.7,2,4.3,2c1.6,0,3.1-0.6,4.3-1.8c1.3-1.2,1.9-2.3,1.9-3.2v-7.1c0-1.9-0.6-3.4-1.9-4.6c-1.2-1.2-2.7-1.8-4.3-1.8
					c-1.7,0-3.2,0.7-4.4,2c-1.2,1.3-1.9,2.8-1.9,4.4V206.5L724.4,206.5z"/>
				<path fill="#FFFFFF" d="M745,209.9c0-2.9,1.1-4.9,3.3-6c2.2-1.1,5.4-1.7,9.6-1.7h2.6v-1.2c0-1.8-0.5-3.4-1.5-4.8
					s-2.5-2.1-4.5-2.1c-1.5,0-2.9,0.3-4.1,0.8c-1.2,0.5-1.8,0.8-1.9,0.8c-0.5,0-0.9-0.2-1.2-0.7c-0.3-0.5-0.5-1-0.5-1.6
					c0-0.8,0.8-1.6,2.5-2.2c1.7-0.6,3.4-1,5.3-1c3.6,0,6.2,1,8,3.1c1.7,2,2.6,4.6,2.6,7.6v14.1c0,0.5-0.2,0.9-0.6,1.2
					c-0.4,0.3-1,0.5-1.6,0.5c-0.6,0-1.1-0.2-1.5-0.5c-0.4-0.3-0.6-0.7-0.6-1.2V213c-2.5,2.8-5.3,4.2-8.3,4.2c-2.2,0-4-0.6-5.4-1.9
					C745.7,214.1,745,212.3,745,209.9z M749.6,209.4c0,1.4,0.4,2.4,1.2,3.1c0.8,0.7,1.8,1.1,3.1,1.1c1.5,0,3-0.6,4.5-1.9
					c1.5-1.2,2.2-2.5,2.2-3.8V205h-1.9c-1.1,0-2,0-2.8,0.1c-0.8,0.1-1.6,0.2-2.4,0.3c-0.8,0.2-1.5,0.4-2,0.7c-0.5,0.3-1,0.7-1.3,1.3
					C749.8,208,749.6,208.7,749.6,209.4z"/>
				<path fill="#FFFFFF" d="M770,227.7v-35.5c0-0.5,0.2-0.9,0.6-1.2c0.4-0.3,0.9-0.4,1.6-0.4c0.6,0,1.1,0.1,1.5,0.4
					c0.4,0.3,0.6,0.7,0.6,1.2v2.3c0.7-1.2,1.6-2.2,2.9-3c1.3-0.8,2.8-1.2,4.5-1.2c2.8,0,5.1,1,7,3.1c1.9,2.1,2.9,4.6,2.9,7.5v5.6
					c0,2.8-1,5.3-2.9,7.4c-1.9,2.2-4.2,3.3-6.8,3.3c-1.6,0-3.1-0.4-4.4-1.3c-1.3-0.8-2.3-1.9-3-3.1v14.9c0,0.4-0.2,0.8-0.7,1.1
					c-0.5,0.4-1,0.5-1.6,0.5c-0.6,0-1.2-0.2-1.6-0.5C770.2,228.5,770,228.2,770,227.7z M774.6,208c0,0.9,0.6,2,1.9,3.2
					c1.3,1.2,2.7,1.8,4.3,1.8c1.6,0,3.1-0.7,4.4-2c1.3-1.3,1.9-2.8,1.9-4.5v-5.6c0-1.6-0.6-3.1-1.9-4.4c-1.3-1.3-2.8-2-4.5-2
					c-1.6,0-3,0.6-4.3,1.8c-1.2,1.2-1.8,2.7-1.8,4.6V208L774.6,208z"/>
				<path fill="#FFFFFF" d="M794.8,206.5v-5.8c0-2.8,1.1-5.3,3.2-7.3c2.1-2.1,4.7-3.1,7.7-3.1c2.9,0,5.3,1,7.4,2.9
					c2.1,1.9,3.1,4.3,3.1,7.2c0,1.1-0.1,1.9-0.4,2.6c-0.3,0.7-0.7,1.1-1.2,1.4c-0.5,0.3-1,0.5-1.5,0.5c-0.5,0.1-1.1,0.1-1.8,0.1
					h-12.1v1.7c0,2,0.7,3.6,2.2,4.8c1.5,1.2,3.3,1.8,5.6,1.8c1.2,0,2.3-0.2,3.2-0.5c0.9-0.4,1.6-0.7,2.2-1.1c0.6-0.3,1-0.5,1.3-0.5
					c0.5,0,1,0.2,1.3,0.7c0.4,0.5,0.6,0.9,0.6,1.4c0,0.9-0.8,1.7-2.5,2.6c-1.7,0.9-3.7,1.3-6.2,1.3c-3.6,0-6.5-1-8.8-3
					C795.9,212.3,794.8,209.7,794.8,206.5z M799.4,201.9h10.2c1,0,1.6-0.1,1.9-0.4c0.3-0.2,0.5-0.7,0.5-1.4c0-1.7-0.6-3.1-1.8-4.4
					c-1.2-1.2-2.7-1.9-4.5-1.9c-1.7,0-3.2,0.6-4.5,1.7c-1.2,1.2-1.9,2.6-1.9,4.3L799.4,201.9L799.4,201.9z"/>
				<path fill="#FFFFFF" d="M818.4,213c0-0.5,0.2-0.9,0.5-1.4c0.3-0.5,0.7-0.7,1.1-0.7c0.3,0,0.7,0.2,1.3,0.7
					c0.6,0.5,1.3,0.9,2.4,1.4c1,0.4,2.2,0.7,3.6,0.7c1.8,0,3.2-0.3,4-1c0.8-0.7,1.2-1.5,1.2-2.5c0-1.2-0.5-2.2-1.4-2.9
					c-0.9-0.7-2-1.3-3.4-1.6c-1.3-0.4-2.6-0.8-4-1.2c-1.3-0.4-2.4-1.2-3.4-2.2c-0.9-1-1.4-2.4-1.4-4.1c0-2.1,0.7-3.9,2.2-5.4
					c1.5-1.5,3.8-2.3,6.8-2.3c1.9,0,3.7,0.3,5.3,0.9c1.6,0.6,2.4,1.3,2.4,2c0,0.4-0.2,0.9-0.5,1.5c-0.4,0.6-0.8,0.8-1.3,0.8
					c-0.1,0-0.9-0.3-2.1-0.8c-1.3-0.5-2.5-0.8-3.8-0.8c-1.7,0-2.9,0.4-3.8,1.2c-0.8,0.8-1.2,1.7-1.2,2.7c0,1,0.5,1.9,1.4,2.5
					c0.9,0.6,2.1,1.1,3.4,1.4c1.3,0.3,2.7,0.7,4,1.2c1.3,0.5,2.4,1.3,3.4,2.5c0.9,1.2,1.4,2.7,1.4,4.5c0,2.3-0.8,4-2.4,5.4
					c-1.6,1.3-3.9,2-6.8,2c-2.5,0-4.6-0.5-6.4-1.4C819.3,215,818.4,214,818.4,213z"/>
				<path fill="#FFFFFF" d="M840.1,208.4v-28.3c0-0.4,0.2-0.8,0.7-1.1c0.5-0.3,1-0.5,1.5-0.5c0.6,0,1.1,0.2,1.6,0.5
					c0.5,0.3,0.7,0.7,0.7,1.1v10.6h6.9c0.4,0,0.7,0.2,1,0.5c0.3,0.4,0.4,0.8,0.4,1.3s-0.1,0.9-0.4,1.2c-0.3,0.3-0.6,0.5-1,0.5h-6.9
					v14.1c0,1.6,0.3,2.7,1,3.3c0.7,0.6,1.9,1,3.5,1h1.7c0.6,0,1.1,0.2,1.5,0.6c0.3,0.4,0.5,0.9,0.5,1.5c0,0.6-0.2,1.1-0.6,1.5
					c-0.4,0.4-0.8,0.6-1.4,0.6h-1.7C843.1,216.8,840.1,214,840.1,208.4z"/>
			</g>
		</g>
		<g>
			<g>
				<path fill="#FFFFFF" d="M505.9,252.7v-12.6c0-0.1,0.1-0.3,0.2-0.4c0.1-0.1,0.3-0.2,0.5-0.2h3.5c1.2,0,2.2,0.3,2.9,1
					c0.7,0.6,1.1,1.7,1.1,3.1v0.2c0,1.4-0.4,2.4-1.1,3.1c-0.7,0.7-1.7,1-2.9,1h-2.5v4.9c0,0.2-0.1,0.3-0.2,0.4
					c-0.2,0.1-0.3,0.2-0.6,0.2c-0.2,0-0.4-0.1-0.6-0.2C506,253,505.9,252.9,505.9,252.7z M507.5,246.5h2.5c0.8,0,1.4-0.2,1.8-0.7
					c0.4-0.4,0.6-1.1,0.6-2v-0.2c0-0.9-0.2-1.6-0.6-2c-0.4-0.4-1-0.7-1.8-0.7h-2.5V246.5z"/>
				<path fill="#FFFFFF" d="M514.9,249.8v-1.9c0-1,0.4-1.8,1.1-2.5c0.7-0.7,1.6-1.1,2.6-1.1c1,0,1.9,0.4,2.6,1.1
					c0.7,0.7,1.1,1.6,1.1,2.5v1.9c0,0.9-0.4,1.8-1.1,2.5c-0.7,0.7-1.6,1.1-2.6,1.1c-1,0-1.8-0.4-2.6-1.1
					C515.3,251.6,514.9,250.7,514.9,249.8z M516.5,249.7c0,0.6,0.2,1.1,0.6,1.5c0.4,0.4,0.9,0.7,1.5,0.7c0.6,0,1.1-0.2,1.5-0.7
					c0.4-0.5,0.6-1,0.6-1.5v-1.9c0-0.6-0.2-1.1-0.6-1.5c-0.4-0.4-0.9-0.7-1.5-0.7c-0.6,0-1.1,0.2-1.5,0.7c-0.4,0.4-0.6,0.9-0.6,1.5
					L516.5,249.7L516.5,249.7z"/>
				<path fill="#FFFFFF" d="M523.4,245c0-0.2,0.1-0.3,0.3-0.5c0.2-0.1,0.4-0.2,0.6-0.2c0.3,0,0.4,0.1,0.5,0.3l2.3,6.3l1.8-5.7
					c0.1-0.2,0.3-0.4,0.6-0.4c0.3,0,0.5,0.1,0.6,0.4l1.7,5.7l2.3-6.4c0.1-0.2,0.2-0.3,0.5-0.3c0.2,0,0.4,0.1,0.7,0.2
					c0.2,0.1,0.3,0.3,0.3,0.5c0,0.1,0,0.2-0.1,0.3l-2.9,7.8c-0.1,0.2-0.3,0.3-0.6,0.3c-0.3,0-0.6-0.1-0.6-0.3l-1.8-5.5l-1.8,5.5
					c-0.1,0.3-0.3,0.4-0.6,0.4c-0.3,0-0.5-0.1-0.6-0.4l-2.9-7.7C523.4,245.1,523.4,245,523.4,245z"/>
				<path fill="#FFFFFF" d="M536.5,249.8v-2c0-1,0.4-1.8,1.1-2.5c0.7-0.7,1.6-1.1,2.6-1.1c1,0,1.8,0.3,2.5,1
					c0.7,0.7,1.1,1.5,1.1,2.5c0,0.4,0,0.7-0.1,0.9c-0.1,0.2-0.2,0.4-0.4,0.5c-0.2,0.1-0.4,0.2-0.5,0.2s-0.4,0-0.6,0h-4.1v0.6
					c0,0.7,0.2,1.2,0.7,1.6c0.5,0.4,1.1,0.6,1.9,0.6c0.4,0,0.8-0.1,1.1-0.2c0.3-0.1,0.6-0.2,0.7-0.4c0.2-0.1,0.3-0.2,0.5-0.2
					c0.2,0,0.3,0.1,0.5,0.2c0.1,0.2,0.2,0.3,0.2,0.5c0,0.3-0.3,0.6-0.9,0.9c-0.6,0.3-1.3,0.5-2.1,0.5c-1.2,0-2.2-0.3-3-1
					C536.9,251.7,536.5,250.8,536.5,249.8z M538.1,248.2h3.5c0.3,0,0.5,0,0.7-0.1c0.1-0.1,0.2-0.2,0.2-0.5c0-0.6-0.2-1.1-0.6-1.5
					c-0.4-0.4-0.9-0.6-1.5-0.6c-0.6,0-1.1,0.2-1.5,0.6c-0.4,0.4-0.6,0.9-0.6,1.5V248.2z"/>
				<path fill="#FFFFFF" d="M545.6,252.7v-7.8c0-0.2,0.1-0.3,0.2-0.4c0.1-0.1,0.3-0.2,0.6-0.2c0.2,0,0.4,0.1,0.5,0.2
					c0.1,0.1,0.2,0.2,0.2,0.4v0.9c0.2-0.4,0.6-0.8,1-1.1c0.4-0.3,0.9-0.5,1.5-0.5h0.6c0.2,0,0.3,0.1,0.4,0.2
					c0.1,0.1,0.2,0.3,0.2,0.5c0,0.2-0.1,0.4-0.2,0.5c-0.1,0.1-0.3,0.2-0.4,0.2h-0.6c-0.6,0-1.2,0.3-1.7,0.8c-0.5,0.5-0.7,1.2-0.7,2
					v4.3c0,0.1-0.1,0.3-0.2,0.4c-0.2,0.1-0.3,0.2-0.6,0.2c-0.2,0-0.4-0.1-0.5-0.2C545.6,253,545.6,252.8,545.6,252.7z"/>
				<path fill="#FFFFFF" d="M551.4,249.8v-2c0-1,0.4-1.8,1.1-2.5c0.7-0.7,1.6-1.1,2.6-1.1c1,0,1.8,0.3,2.5,1
					c0.7,0.7,1.1,1.5,1.1,2.5c0,0.4,0,0.7-0.1,0.9c-0.1,0.2-0.2,0.4-0.4,0.5c-0.2,0.1-0.4,0.2-0.5,0.2c-0.2,0-0.4,0-0.6,0h-4.1v0.6
					c0,0.7,0.2,1.2,0.7,1.6c0.5,0.4,1.1,0.6,1.9,0.6c0.4,0,0.8-0.1,1.1-0.2c0.3-0.1,0.6-0.2,0.7-0.4c0.2-0.1,0.3-0.2,0.5-0.2
					c0.2,0,0.3,0.1,0.4,0.2c0.1,0.2,0.2,0.3,0.2,0.5c0,0.3-0.3,0.6-0.9,0.9c-0.6,0.3-1.3,0.5-2.1,0.5c-1.2,0-2.2-0.3-3-1
					C551.8,251.7,551.4,250.8,551.4,249.8z M552.9,248.2h3.5c0.3,0,0.5,0,0.7-0.1c0.1-0.1,0.2-0.2,0.2-0.5c0-0.6-0.2-1.1-0.6-1.5
					c-0.4-0.4-0.9-0.6-1.5-0.6c-0.6,0-1.1,0.2-1.5,0.6c-0.4,0.4-0.6,0.9-0.6,1.5L552.9,248.2L552.9,248.2z"/>
				<path fill="#FFFFFF" d="M560.1,249.8v-1.9c0-1,0.3-1.8,1-2.5c0.7-0.7,1.4-1.1,2.4-1.1c0.6,0,1.1,0.1,1.5,0.4
					c0.4,0.3,0.8,0.6,1,1v-6.1c0-0.2,0.1-0.3,0.2-0.4c0.2-0.1,0.3-0.2,0.6-0.2c0.2,0,0.4,0.1,0.6,0.2c0.1,0.1,0.2,0.2,0.2,0.4v13.1
					c0,0.1-0.1,0.3-0.2,0.4c-0.2,0.1-0.3,0.2-0.5,0.2c-0.2,0-0.4-0.1-0.5-0.2c-0.1-0.1-0.2-0.2-0.2-0.4v-0.8c-0.2,0.4-0.6,0.8-1,1
					c-0.5,0.3-1,0.4-1.6,0.4c-0.9,0-1.6-0.4-2.3-1.1C560.4,251.5,560.1,250.7,560.1,249.8z M561.7,249.7c0,0.6,0.2,1.1,0.6,1.5
					c0.4,0.5,0.9,0.7,1.5,0.7c0.6,0,1-0.2,1.5-0.6c0.4-0.4,0.7-0.8,0.7-1.1v-2.4c0-0.6-0.2-1.2-0.6-1.6c-0.4-0.4-0.9-0.6-1.5-0.6
					c-0.6,0-1.1,0.2-1.5,0.7c-0.4,0.4-0.6,0.9-0.6,1.5L561.7,249.7L561.7,249.7z"/>
				<path fill="#FFFFFF" d="M573.5,252.7v-13.1c0-0.2,0.1-0.3,0.2-0.4c0.1-0.1,0.3-0.2,0.6-0.2c0.2,0,0.4,0.1,0.6,0.2
					c0.1,0.1,0.2,0.2,0.2,0.4v6.1c0.2-0.4,0.5-0.7,1-1c0.4-0.3,0.9-0.4,1.5-0.4c0.9,0,1.7,0.4,2.4,1.1c0.7,0.7,1,1.6,1,2.5v1.9
					c0,0.9-0.3,1.8-1,2.5c-0.7,0.7-1.4,1.1-2.3,1.1c-0.6,0-1.1-0.1-1.6-0.4c-0.5-0.3-0.8-0.6-1-1v0.8c0,0.2-0.1,0.3-0.2,0.4
					c-0.1,0.1-0.3,0.2-0.5,0.2c-0.2,0-0.4-0.1-0.5-0.2C573.5,253,573.5,252.8,573.5,252.7z M575,250.3c0,0.3,0.2,0.7,0.7,1.1
					c0.4,0.4,0.9,0.6,1.5,0.6c0.6,0,1.1-0.2,1.5-0.7c0.4-0.5,0.6-1,0.6-1.5v-1.9c0-0.6-0.2-1.1-0.6-1.5c-0.4-0.4-0.9-0.7-1.5-0.7
					c-0.6,0-1.1,0.2-1.5,0.6c-0.4,0.4-0.6,0.9-0.6,1.6L575,250.3L575,250.3z"/>
				<path fill="#FFFFFF" d="M581.7,245c0-0.2,0.1-0.4,0.3-0.5c0.2-0.2,0.4-0.2,0.7-0.2c0.3,0,0.4,0.1,0.5,0.3l2.5,6.5l2.2-6.5
					c0.1-0.2,0.2-0.3,0.5-0.3c0.2,0,0.4,0.1,0.7,0.2c0.2,0.1,0.3,0.3,0.3,0.5c0,0.1,0,0.1-0.1,0.2l-2.8,7.6l-0.4,0.9
					c-0.1,0.2-0.2,0.5-0.4,0.9c-0.2,0.4-0.3,0.7-0.5,0.9c-0.1,0.2-0.3,0.4-0.5,0.7c-0.2,0.3-0.4,0.5-0.7,0.7
					c-0.2,0.1-0.5,0.3-0.8,0.4c-0.3,0.1-0.6,0.2-0.9,0.2c-0.5,0-0.7-0.2-0.7-0.7c0-0.5,0.2-0.7,0.5-0.7c0.6,0,1.1-0.3,1.6-0.9
					c0.5-0.6,0.9-1.4,1.1-2.4l-3.1-7.6C581.8,245.1,581.7,245.1,581.7,245z"/>
			</g>
			<g>
				<rect x="601.3" y="246.7" fill="#FFFFFF" width="5.5" height="5.4"/>
				<g>
					<path fill="#FFFFFF" d="M614.4,255.3c0,1.7,0.3,2.8,0.8,3.3c0.4,0.4,1.2,0.7,2.2,0.8c0.3,0,0.8,0,1.6,0v1.5h-13.3v-1.5
						c1.1,0,1.9,0,2.4-0.2c1-0.2,1.7-0.8,1.9-1.8c0.1-0.5,0.2-1.3,0.2-2.3v-19.6c-2.2,0.1-4,0.8-5.3,2.2c-1.2,1.3-1.9,3.4-2.2,6.1
						l-1.4-0.2l0.3-9.4h21.6l0.3,9.4l-1.4,0.2c-0.3-2.8-1-4.8-2.2-6.1c-1.3-1.4-3-2.1-5.3-2.2L614.4,255.3L614.4,255.3z"/>
				</g>
				<rect x="617.9" y="246.7" fill="#FFFFFF" width="5.5" height="5.4"/>
				<rect x="634.4" y="246.7" fill="#FFFFFF" width="5.5" height="5.4"/>
				<rect x="650.9" y="246.7" fill="#FFFFFF" width="5.5" height="5.4"/>
			</g>
		</g>
	</g>
</g>
<g id="layer1" transform="translate(-109.57142,-485.2193)" >
	<path id="path4951" fill="#CA3836" d="M276.9,760.1v-14.5h-72l0-86.6h259l0,86.6H334.4v14.5H276.9z"/>
	<path id="path4949" fill="#FFFFFF" d="M320.4,745.7v-14.6h28.5v-57.5h-57.4v72H320.4z"/>
	<path id="path4947" fill="#CA3836" d="M320.4,688.1h14v28.5h-14V688.1z"/>
	<path id="path4945" fill="#FFFFFF" d="M247.9,731.1v-43h14.5v43h14.5v-57.5h-57.4v57.5H247.9z"/>
	<path id="path2998" fill="#FFFFFF" d="M392,731.1v-43h14.5v43H421v-43h14.5v43H450v-57.5h-86.5v57.5H392z"/>
</g>
<g>
	<polygon fill="#FFFFFF" points="417,72.1 404.3,72.1 404.3,65.5 437.4,65.5 437.4,72.1 424.8,72.1 424.8,109.5 417,109.5 	"/>
	<path fill="#FFFFFF" d="M436.7,76.5h6.4l0.5,5.9h0.3c2.4-4.3,5.9-6.7,9.4-6.7c1.7,0,2.8,0.2,3.8,0.7l-1.3,6.7
		c-1.1-0.3-2-0.5-3.4-0.5c-2.6,0-5.8,1.8-7.8,6.8v20.1h-7.7L436.7,76.5L436.7,76.5L436.7,76.5z"/>
	<path fill="#FFFFFF" d="M471,104.3c2.7,0,4.8-1.3,7.2-3.6v-7.4c-9,1.1-11.9,3.5-11.9,6.8C466.3,103,468.2,104.3,471,104.3
		L471,104.3z M478.2,88.4c-0.1-3.5-1.5-6.5-6-6.5c-3.3,0-6.4,1.5-9.3,3.2l-2.8-5.2c3.6-2.3,8.3-4.3,13.5-4.3
		c8.3,0,12.3,5.1,12.3,14.3v19.6h-6.3l-0.6-3.6h-0.2c-3,2.5-6.3,4.4-10.2,4.4c-5.8,0-9.8-3.9-9.8-9.7
		C458.8,93.6,464.7,89.8,478.2,88.4L478.2,88.4z"/>
	<path fill="#FFFFFF" d="M488.2,76.5h7.9l5.3,17.2c0.9,3.2,1.9,6.6,2.8,10h0.3c0.9-3.4,1.9-6.7,2.8-10l5.3-17.2h7.5l-11.5,33h-9
		L488.2,76.5L488.2,76.5z"/>
	<path fill="#FFFFFF" d="M523.7,76.5h7.7v33h-7.7V76.5L523.7,76.5z M522.8,66.3c0-2.6,2-4.4,4.8-4.4c2.8,0,4.8,1.8,4.8,4.4
		s-2,4.4-4.8,4.4C524.8,70.7,522.8,68.8,522.8,66.3L522.8,66.3z"/>
	<path fill="#FFFFFF" d="M539.5,100.8c3,2.3,5.8,3.7,9.2,3.7c3.6,0,5.2-1.7,5.2-4c0-2.8-3.6-4-7.1-5.3c-4.4-1.6-9.3-4.1-9.3-9.6
		c0-5.8,4.6-9.9,12.1-9.9c4.6,0,8.3,1.9,11,4l-3.6,4.7c-2.3-1.7-4.6-2.8-7.3-2.8c-3.3,0-4.9,1.5-4.9,3.6c0,2.6,3.3,3.6,6.9,4.9
		c4.5,1.7,9.5,3.8,9.5,10c0,5.7-4.5,10.2-12.9,10.2c-4.5,0-9.3-2-12.5-4.6L539.5,100.8L539.5,100.8z"/>
	<path fill="#FFFFFF" d="M599.2,64.7c5.4,0,9.8,2.6,12.5,5.6l-4.3,4.8c-2.3-2.2-4.8-3.6-8.1-3.6c-7.2,0-12.4,6.1-12.4,16
		c0,10,4.8,16.1,12.1,16.1c3.9,0,6.8-1.6,9.3-4.4l4.3,4.8c-3.6,4.1-8.1,6.4-13.7,6.4c-11.2,0-20-8.1-20-22.7
		C578.9,73.2,587.9,64.7,599.2,64.7L599.2,64.7z"/>
	<polygon fill="#FFFFFF" points="617.4,65.5 625.2,65.5 625.2,109.5 617.4,109.5 	"/>
	<path fill="#E5C9A9" d="M345.8,126.5c-0.6,0.1-1.2,0.2-1.8,0.2c-0.4,0-0.8,0.1-1.1,0.1h-0.1c0.5-1,0.8-1.8,1.1-2.4
		C344.3,124.9,345,125.7,345.8,126.5L345.8,126.5z"/>
	<path fill="#B19F8A" d="M345.1,81c-0.9,0.8-1.9,1.4-2.9,2.1l-3.4,2c-2.1,0.3-4,0.8-4.1,0.8s-0.1,0-0.2,0.1
		c-0.2,0.1-0.3,0.3-0.3,0.4l-3.4,11.3l-18.4,4.1l-5.8-4.1L304.9,84c3.3-0.6,7.7-1.3,13-1.9c-0.6,0.7-1.1,1.4-1.6,2.1l-3.1,4.5
		l4.6-3.1c0.1,0,3-2,7.8-4.3c4.8-0.4,10-0.6,15.6-0.6C342.4,81,343.7,81,345.1,81L345.1,81z M316.4,96.4c1.3-0.7,2.8-0.6,5.1-0.6
		c0.2,0,0.5,0,0.8,0c0.2,0,0.5,0,0.7,0c2.4,0,4.4,0.2,4.3-3.5c0-3.7-1.7-6.8-4.1-6.7c-2.4,0-4.7,3.1-4.5,6.8c0,1,0.2,1.7,0.4,2.2
		C317,95,316.4,96.3,316.4,96.4L316.4,96.4z"/>
	<path fill="#B19F8A" d="M376.9,84.1l-1.7,11.6l-5.8,4.1L351,97.7l-3.4-11.3c-0.1-0.3-0.3-0.4-0.5-0.5c-0.1,0-2.4-0.7-4.8-0.9h0.4
		c0.4,0,6.7-0.8,14.3-3.4C365.4,82.2,372.3,83.3,376.9,84.1L376.9,84.1z M365.2,94.9c0-0.1-0.5-1.6-2.7-1.3c0.3-0.6,0.4-1.3,0.3-2.3
		c-0.3-3.7-2.5-6.7-4.8-6.6c-2.4,0.1-3.9,3.2-3.8,6.9c0.1,3.7,2.1,3.7,4.5,3.6C361.8,95.1,363.6,94.1,365.2,94.9L365.2,94.9z"/>
	<path fill="#FFFFFF" d="M358.9,88.2c0,0.7-0.5,1.2-1.2,1.2s-1.2-0.5-1.2-1.2s0.5-1.2,1.2-1.2C358.4,86.9,358.9,87.5,358.9,88.2
		L358.9,88.2z"/>
	<path fill="#FFFFFF" d="M324.8,89c0,0.7-0.5,1.2-1.2,1.2s-1.2-0.5-1.3-1.2c0-0.7,0.5-1.2,1.2-1.2S324.8,88.4,324.8,89L324.8,89z"/>
	<path fill="#E5C9A9" d="M385,89.2c-0.3-0.2-1.2-0.8-2.2-1.3l-1.5,10.8c0,0.2-0.1,0.4-0.3,0.5l-2.2,1.5c-0.1,0.3-0.1,0.5-0.1,0.7
		c2.2,0.5,4.3-1,5.4-2.2c0.5-2.1,1-4.7,1.2-6.5C385.5,90.1,385.3,89.5,385,89.2L385,89.2z"/>
	<path fill="#E5C9A9" d="M350.9,130.2c-1.4-0.5-2.7-1.3-3.9-2.5c-0.1-0.1-0.2-0.2-0.3-0.3c-0.9,0.2-1.8,0.3-2.7,0.4
		c-0.4,0-0.8,0.1-1.2,0.1h-0.6H342c-1.4,2-3.7,3.1-5.5,3.7C342,132.6,347.9,131.2,350.9,130.2L350.9,130.2z"/>
	<path fill="#E5C9A9" d="M303.9,103.8c0-0.2-0.1-0.3-0.1-0.5l-2.9-2c-0.2-0.1-0.3-0.3-0.3-0.5l-1.4-11.3c-1,0.6-2.2,1.2-2.5,1.5
		c-0.3,0.2-0.5,0.8-0.2,3.5c0.2,2,0.9,5.1,1.7,7.5l0,0C299.5,103,301.7,104.2,303.9,103.8L303.9,103.8z"/>
	<path fill="#FFFFFF" d="M311.3,108.3c-0.1,0-0.1,0-0.2,0l0,0C311.2,108.3,311.2,108.3,311.3,108.3L311.3,108.3z"/>
	<path fill="#FFFFFF" d="M306.1,105c0,0.1,0,0.1,0.1,0.2C306.1,105.1,306.1,105,306.1,105L306.1,105L306.1,105z"/>
	<path fill="#E5C9A9" d="M346.7,103.3c-0.3,0-0.6-0.2-0.6-0.5l-3.5-11.6c-0.6-0.1-1.1-0.1-1.6-0.1c-0.4,0-1,0-1.6,0.1l-3.4,11.3
		c-0.1,0.3-0.3,0.5-0.6,0.5l-1.6,0.4c-0.1,0.6-0.6,1.4-2.1,1.9c-2.5,0.7-18,5.4-19.8,5.1c-1-0.1-3-1.2-4.5-2.1
		c-0.6-1.4-0.9-2.3-1-2.5l0,0l0,0c0.2,0.6,2.2,6.4,6.4,12.2c4.4-1.3,8.2-2.5,9.5-2.9c2.5-3.8,6-7.6,8.5-7.8c0.4,0,0.9,0,1.3,0
		c1.2,0,2.4,0.1,3.5,0.2c-0.9-0.8-1.1-1.8-1.3-2.3c0,0,3.2,2.5,7.3,2c4.1-0.5,6.6-2.9,6.6-2.9l0.1-0.7L346.7,103.3L346.7,103.3z"/>
	<polygon fill="#FFFFFF" points="309.8,107.6 310.7,108.2 309.8,107.6 307.2,105.7 307.2,105.7 	"/>
	<path fill="#E5C9A9" d="M350,104.8c-0.8-0.2-1.4-0.6-1.7-0.9v0.4c0,0,0,1.7-1.8,3c3.4-1,4.8-1.4,5.8-1.4c1.1,0,1.6,0.4,2.1,0.8
		c0.1,0.1,0.2,0.1,0.3,0.2c2.6,2.1,5.8,4.6,6.7,5.3c1.1,0.1,4.5,0.5,6.6,0.7c1.2,0.1,2.4,0.2,3.4,0.2c0.4,0,0.7,0,1,0
		c1.1-2.2,2.2-4.6,3.1-7.2c-1.3,0.9-4.2,2.8-5.5,3.1C368.2,109.4,352.5,105.4,350,104.8L350,104.8z"/>
	<path fill="#FFFFFF" d="M375.5,105.9c0.1-0.3,0.2-0.6,0.3-0.9C375.7,105.3,375.6,105.6,375.5,105.9L375.5,105.9z"/>
	<path fill="#FFFFFF" d="M371,106h-0.1H371L371,106z"/>
	<path fill="#E2DB9B" d="M389.6,64c0-0.4-0.1-0.7-0.1-1.1c0-0.3-0.1-0.5-0.1-0.8c-1-0.8-2.1-1.6-3.3-2.3c-1.3-0.7-2.6-1.4-4-2
		s-2.7-1.2-4.1-1.8c-0.7-0.3-1.4-0.6-2.1-0.8c-0.7-0.3-1.4-0.5-2.1-0.8c1.5,0.2,3,0.6,4.4,1c1,0.2,1.9,0.5,2.9,0.8
		c-6.7-17.6-22.8-29-40.3-29s-33.6,11.4-40.3,29c0.9-0.3,1.9-0.6,2.8-0.8c1.5-0.4,3-0.7,4.4-1c-0.7,0.3-1.4,0.5-2.1,0.8
		s-1.4,0.5-2.1,0.8c-1.4,0.6-2.8,1.1-4.1,1.8c-1.4,0.6-2.7,1.3-4,2c-1.2,0.7-2.3,1.4-3.3,2.3c0,0.3-0.1,0.5-0.1,0.8
		c0,0.4-0.1,0.7-0.1,1.1c-0.1,0.7-0.1,1.5-0.1,2.3c0,1.5,0.1,3,0.3,4.5c0.2,1.5,0.5,3,0.9,4.4c0.2,0.7,0.4,1.4,0.7,2.1
		c0.1,0.3,0.3,0.7,0.4,1c0.1,0.2,0.1,0.3,0.2,0.5l0.1,0.2c0.1,0.1,0.2,0.1,0.3,0.2l0.7,0.3c0.4,0.2,0.9,0.4,1.3,0.6c0,0,0,0,0.1-0.1
		l-1.2-4.7c0.3-0.1,2.6-0.7,6.7-1.5c-0.3-0.1-0.7-0.1-1-0.2c-0.9-0.2-1.8-0.5-2.7-0.9c-0.4-0.2-0.9-0.4-1.3-0.6s-0.8-0.5-1.1-0.9
		c4.5,1.5,13.7,0.8,21.8,0c7.5-0.8,15-1.3,22.5-1.3s15,0.5,22.5,1.3c8.2,0.8,17.4,1.5,21.8,0c-0.3,0.4-0.7,0.6-1.1,0.9
		c-0.4,0.2-0.8,0.4-1.3,0.6c-0.9,0.4-1.8,0.6-2.7,0.9c-0.1,0-0.3,0.1-0.4,0.1c4.4,0.8,7,1.5,7.3,1.6l-1.2,4.5
		c0.2-0.1,0.5-0.2,0.7-0.3l0.7-0.3c0.1-0.1,0.2-0.1,0.3-0.2l0.1-0.2c0.1-0.2,0.2-0.3,0.2-0.5c0.2-0.3,0.3-0.7,0.4-1
		c0.3-0.7,0.5-1.4,0.7-2.1c0.4-1.4,0.7-2.9,0.9-4.4c0.2-1.5,0.3-3,0.3-4.5C389.7,65.5,389.7,64.8,389.6,64L389.6,64z"/>
	<path fill="#DDC68A" d="M359.2,55.3c0.1,2,0,5.7-0.9,9.1c0,0.1,0,0.3,0,0.4c-1.2-0.1-2.4-0.2-3.6-0.3c1.3-2.8,1.6-5.8,1.7-6.8
		C357.4,56.9,358.4,56,359.2,55.3L359.2,55.3z"/>
	<path fill="#DDC68A" d="M325.1,57.6c0.1,1.1,0.4,4,1.7,6.8c-1.2,0.1-2.4,0.2-3.6,0.3c0-0.1,0-0.3,0-0.4c-0.9-3.4-1-7-0.9-9.1
		C323,56,324,56.9,325.1,57.6L325.1,57.6z"/>
	<path fill="#DDC68A" d="M379.1,69.8C379.1,69.9,379.1,69.9,379.1,69.8L379.1,69.8L379.1,69.8z"/>
	<path fill="#DDC68A" d="M373.8,67.6L373.8,67.6c0.1,0.1,0.2,0.2,0.4,0.2c1.1,0.4,2.2,0.7,3.3,1.2c-1.8-1.1-2.9-4.4-3.5-7
		C374.1,65.3,373.8,67.4,373.8,67.6L373.8,67.6z"/>
	<path fill="#DDC68A" d="M378.9,69.8c0.1,0,0.2,0.1,0.2,0.1C379.1,69.8,379,69.8,378.9,69.8L378.9,69.8z"/>
	<path fill="#DDC68A" d="M378.5,69.6c0.2,0.1,0.3,0.2,0.4,0.2C378.8,69.7,378.7,69.6,378.5,69.6L378.5,69.6z"/>
	<path fill="#DDC68A" d="M378.5,69.6C378.5,69.6,378.5,69.5,378.5,69.6L378.5,69.6C378.5,69.5,378.5,69.6,378.5,69.6L378.5,69.6z"/>
	<path fill="#DDC68A" d="M320.8,54.7l-11.4,3.2c-0.7,4.4-0.5,7.8-0.4,9h0.1c0,0,0.4-4.8,1.1-6.7c0.4-0.9,2.8-1.6,4.6-2
		c1.8-0.4,4.7-1.3,5.3,1.3c0.3,1.6,0.8,2.9,1.3,3.9C320.7,59.8,320.7,56.4,320.8,54.7L320.8,54.7z"/>
	<path fill="#DDC68A" d="M360.6,54.7c0.1,1.8,0.1,5.4-0.7,9c0.5-1,1.1-2.5,1.5-4.3c0.6-2.6,3.5-1.7,5.3-1.3s4.2,1,4.6,2
		c0.6,1.6,1,5.3,1.1,6.4c0.1-1.4,0.2-4.6-0.4-8.6L360.6,54.7L360.6,54.7z"/>
	<path fill="#DDC68A" d="M325,55.7c0.4,0.3,0.8,0.6,1.2,0.9c0.2,0.1,0.3,0.4,0.3,0.6c0,0,0.1,3.8,1.7,7c0,0,0,0.1,0.1,0.1
		c4.1-0.3,8.2-0.4,12.4-0.4c4.1,0,8.3,0.1,12.4,0.4c0-0.1,0-0.1,0.1-0.2c1.7-3.2,1.7-6.9,1.7-7c0-0.2,0.1-0.5,0.3-0.6
		c0.4-0.3,0.8-0.6,1.2-0.9l0.1-0.1c0.9-8.4-0.7-16.1-1.7-19.9c-0.1,2.6-0.7,25-6.2,25c-5.9,0-7.1,0-7.1,0h-1.2c0,0-1.2,0-7.1,0
		s-6.4-25.2-6.4-25.2l-0.3,0.9C325.5,40.3,324.1,47.7,325,55.7L325,55.7z"/>
	<path fill="#DDC68A" d="M358.6,49.5l-0.1-0.3c0,0.2,0,0.3,0,0.5L358.6,49.5L358.6,49.5z"/>
	<path fill="#DDC68A" d="M302.3,69.8C302.3,69.9,302.3,69.9,302.3,69.8L302.3,69.8L302.3,69.8z"/>
	<path fill="#DDC68A" d="M302.9,69.6C302.9,69.5,303,69.5,302.9,69.6L302.9,69.6C303,69.5,302.9,69.5,302.9,69.6L302.9,69.6z"/>
	<path fill="#DDC68A" d="M302.9,69.6c-0.2,0.1-0.3,0.1-0.4,0.2C302.6,69.7,302.7,69.6,302.9,69.6L302.9,69.6z"/>
	<path fill="#DDC68A" d="M302.5,69.8c-0.1,0-0.2,0.1-0.2,0.1C302.3,69.8,302.4,69.8,302.5,69.8L302.5,69.8z"/>
	<path fill="#DDC68A" d="M307.7,67.6L307.7,67.6c0-0.2-0.3-2.3-0.2-5.6c-0.6,2.5-1.7,5.8-3.5,7c1.1-0.5,2.2-0.9,3.3-1.2
		C307.4,67.7,307.5,67.7,307.7,67.6L307.7,67.6z"/>
	<path fill="#A89480" d="M378.6,101.5c-0.1,0.5-0.2,0.9-0.3,1.5c1.3,0.3,3.3,0.5,4.3,0.3c0.4-0.5,1-2.1,1.5-4
		C382.9,100.4,380.8,102,378.6,101.5L378.6,101.5z"/>
	<path fill="#A89480" d="M333.3,132.4c3,0.8,6.1,1.2,9.1,1s7-0.9,11.2-2.6c-0.9-0.1-1.9-0.3-2.7-0.6c-3.1,0.9-9,2.3-14.3,1.4
		c-1.4,0.5-2.5,0.6-2.6,0.6C333.8,132.3,333.6,132.3,333.3,132.4L333.3,132.4z"/>
	<path fill="#A89480" d="M304.1,104.5c-0.1-0.2-0.1-0.5-0.2-0.7c-2.2,0.4-4.3-0.8-5.8-1.9c0.5,1.5,0.9,2.7,1.3,3
		C300.5,105.2,302.9,104.8,304.1,104.5L304.1,104.5z"/>
	<path fill="#A89480" d="M307.3,108.2c1.5,0.9,3.4,2,4.5,2.1c1.8,0.3,17.3-4.4,19.8-5.1c1.5-0.5,2-1.3,2.1-1.9l-22.4,5
		c-0.1,0-0.1,0-0.2,0l0,0l0,0c-0.2,0-0.3,0-0.4-0.1l-0.9-0.6l-2.6-1.8l0,0l0,0l-1.1-0.7c0,0.1,0,0.1,0.1,0.2
		c0.1,0.2,0.1,0.4,0.2,0.5l0,0C306.4,105.9,306.7,106.8,307.3,108.2L307.3,108.2z"/>
	<path fill="#A89480" d="M376.2,103.9c0.1-0.5,0.3-1.1,0.4-1.6l-0.8,0.5l-2.1,1.5l-2.3,1.6c-0.1,0.1-0.3,0.1-0.4,0.1h-0.1l-22.6-2.6
		v0.4c0.3,0.4,0.9,0.7,1.7,0.9c2.5,0.6,18.2,4.6,20,4.3c1.4-0.3,4.2-2.2,5.5-3.1v-0.1c0.1-0.3,0.2-0.6,0.3-0.9
		C375.9,104.6,376,104.3,376.2,103.9L376.2,103.9z"/>
	<path fill="#767172" d="M352.2,73.5c-0.2,0.2-0.4,0.5-0.6,0.7c-1.1,1.4-2.6,3.1-4.3,4.8c-2.1-0.1-4.2-0.1-6.3-0.1
		c-3.6,0-7,0.1-10.3,0.3c4.6-1.9,10.1-3.8,16.1-4.9C348.6,73.9,350.4,73.6,352.2,73.5L352.2,73.5z"/>
	<path fill="#767172" d="M325.3,75.5c-1.6,1.2-3.5,2.6-5.3,4.4c-4.6,0.5-8.6,1-12,1.6C313.1,79.2,318.9,77,325.3,75.5L325.3,75.5z"
		/>
	<path fill="#767172" d="M381.6,85.1l-1.9,13.1l-9,6.3l-23.4-2.7l-3.5-11.6c-0.1-0.3-0.3-0.5-0.6-0.5c-0.9-0.1-1.6-0.2-2.3-0.2
		c-0.6,0-1.4,0.1-2.3,0.2c-0.3,0-0.5,0.3-0.6,0.5l-3.4,11.3l-23.3,5.2l-9.2-6.5l-1.9-14.7c0.4-0.2,0.8-0.4,1.2-0.7
		c0.6-0.1,1.2-0.3,1.9-0.4l1.7,13.9c0,0.2,0.1,0.4,0.3,0.5l6.4,4.5c0.1,0.1,0.3,0.1,0.4,0.1s0.1,0,0.2,0l19.2-4.3
		c0.1,0,0.1,0,0.2-0.1c0.2-0.1,0.3-0.3,0.4-0.5l3.5-11.4c0.9-0.2,3.3-0.8,5.4-0.8s4.5,0.6,5.4,0.8l3.5,11.4c0.1,0.3,0.3,0.5,0.6,0.5
		l19.2,2.2c0.2,0,0.4,0,0.5-0.1l6.4-4.4c0.2-0.1,0.3-0.3,0.3-0.5l1.7-11.9C379.7,84.6,380.8,84.9,381.6,85.1L381.6,85.1z"/>
	<path fill="#767172" d="M384,76.8l-1.7,6.3c-3.4-0.7-10.8-2.2-20.9-3.2c3.3-1.4,6.7-3.2,9.7-5.4C377.2,75.4,381.6,76.3,384,76.8
		L384,76.8z"/>
	<path fill="#767172" d="M298,76.8l0.5,1.7c1.3-1,2.5-1.9,3.5-2.5C300.3,76.3,299,76.6,298,76.8L298,76.8z"/>
	<path fill="#A41E29" d="M368.2,73.7L368.2,73.7c-1.1-0.1-2.2-0.2-3.3-0.2C366,73.5,367.1,73.6,368.2,73.7L368.2,73.7L368.2,73.7z"
		/>
	<path fill="#A41E29" d="M360.1,78.3c2.5-1.1,5.1-2.5,7.5-4.2C365.2,75.8,362.7,77.2,360.1,78.3L360.1,78.3z"/>
	<path fill="#A41E29" d="M362.8,73.3c-2.5-0.1-5.1-0.3-7.6-0.4c-0.1,0.2-0.4,0.6-0.9,1.2c-1.4,1.8-4,5.2-7.4,8
		c2.6-0.8,12.8-4.2,18-8.8C364.1,73.4,363.5,73.4,362.8,73.3L362.8,73.3z"/>
	<path fill="#A41E29" d="M334,75.6c-0.2,0.1-0.4,0.1-0.5,0.2C333.7,75.8,333.8,75.7,334,75.6L334,75.6z"/>
	<path fill="#A41E29" d="M335.2,75.2c-0.2,0.1-0.4,0.1-0.6,0.2C334.8,75.4,335,75.3,335.2,75.2L335.2,75.2z"/>
	<path fill="#A41E29" d="M332.9,76.1c-0.2,0.1-0.3,0.1-0.5,0.2C332.6,76.2,332.7,76.1,332.9,76.1L332.9,76.1z"/>
	<path fill="#A41E29" d="M331.8,76.5c-0.1,0-0.3,0.1-0.4,0.2C331.5,76.6,331.7,76.5,331.8,76.5L331.8,76.5z"/>
	<path fill="#A41E29" d="M336.4,74.8c-0.2,0.1-0.5,0.2-0.7,0.2C335.9,75,336.2,74.9,336.4,74.8L336.4,74.8z"/>
	<path fill="#A41E29" d="M340.7,73.5c-0.9,0.2-1.8,0.5-2.6,0.8C338.9,74,339.8,73.8,340.7,73.5L340.7,73.5z"/>
	<path fill="#A41E29" d="M338,74.3c-0.4,0.1-0.8,0.2-1.2,0.4C337.2,74.6,337.6,74.4,338,74.3L338,74.3z"/>
	<path fill="#A41E29" d="M329.7,77.3L329.7,77.3L329.7,77.3L329.7,77.3z"/>
	<path fill="#A41E29" d="M330.7,76.9c-0.1,0-0.2,0.1-0.3,0.1C330.6,77,330.7,76.9,330.7,76.9L330.7,76.9z"/>
	<path fill="#A41E29" d="M344.3,72.7L344.3,72.7c-1.3,0-2.6,0-3.8,0l0,0c-1.9,0-3.8,0-5.6,0.1l-3.5,1.6c0,0,0,0-0.1,0
		c-0.5,0.3-5.1,2.6-9.4,6.7c0.4-0.2,0.8-0.4,1.2-0.6c2.3-1.6,8.6-5.3,18.4-7.8C342.4,72.6,343.3,72.6,344.3,72.7L344.3,72.7z"/>
	<path fill="#A41E29" d="M322.9,73.1c-1.6,0.1-3.2,0.2-4.8,0.2c-1.9,0.1-3.7,0.2-5.6,0.4c-0.9,0.1-1.9,0.2-2.8,0.2
		c-0.3,0-0.5,0.1-0.8,0.1c-2.4,1.4-11.7,7.3-18.1,14.9c0.1-0.1,0.2-0.3,0.3-0.4C303,78.5,315.9,74.5,322.9,73.1L322.9,73.1z"/>
	<path fill="#A41E29" d="M319.9,74.8c-12.8,3.8-23.1,10-29.1,14.2C296.8,84.8,307.2,78.6,319.9,74.8L319.9,74.8z"/>
	<path fill="#A41E29" d="M321.2,74.4c2.1-0.6,4.3-1.1,6.6-1.5l0,0C325.5,73.3,323.3,73.8,321.2,74.4L321.2,74.4z"/>
	<polygon fill="#A41E29" points="375.3,116.8 375.3,116.8 375.3,116.8 	"/>
	<path fill="#A41E29" d="M378.1,113.7c0.1,0,0.1-0.1,0.2-0.1C378.2,113.6,378.1,113.6,378.1,113.7L378.1,113.7z"/>
	<path fill="#A41E29" d="M378.5,113.5c0,0,0.1,0,0.1-0.1C378.6,113.4,378.6,113.4,378.5,113.5L378.5,113.5z"/>
	<path fill="#A41E29" d="M377.3,114c0.1,0,0.2-0.1,0.3-0.1C377.5,114,377.4,114,377.3,114L377.3,114z"/>
	<path fill="#A41E29" d="M377,114.2c0.1,0,0.2-0.1,0.3-0.1C377.1,114.1,377.1,114.2,377,114.2L377,114.2z"/>
	<path fill="#A41E29" d="M343.5,120.3L343.5,120.3c0.1,0.1,0.1,0.1,0.2,0.2C343.6,120.4,343.5,120.3,343.5,120.3L343.5,120.3z"/>
	<path fill="#A41E29" d="M377.7,113.9c0.1,0,0.2-0.1,0.2-0.1C377.8,113.8,377.8,113.8,377.7,113.9L377.7,113.9z"/>
	<path fill="#A41E29" d="M376.3,114.5L376.3,114.5C376.4,114.5,376.4,114.5,376.3,114.5C376.4,114.5,376.4,114.5,376.3,114.5
		L376.3,114.5z"/>
	<path fill="#A41E29" d="M376.4,114.5c0.1,0,0.1-0.1,0.2-0.1C376.5,114.4,376.5,114.5,376.4,114.5L376.4,114.5z"/>
	<path fill="#A41E29" d="M376.6,114.4c0.1-0.1,0.2-0.1,0.3-0.2C376.8,114.3,376.7,114.3,376.6,114.4L376.6,114.4z"/>
	<path fill="#A41E29" d="M376.3,114.5c-0.1,0-0.1,0.1-0.2,0.1c-1.2,0.6-2.7,0.9-4.7,0.9c-1.2,0-2.4-0.1-3.7-0.2
		c-2.6-0.2-7-0.8-7-0.8h-0.3l-0.3-0.2c0,0-3.9-3.1-7-5.5c-0.1-0.1-0.2-0.2-0.3-0.3c-0.3-0.3-0.3-0.3-0.5-0.3c-1,0-3.9,0.9-10.2,2.9
		l-0.4,0.1l-0.4-0.1c0,0-4.2-1.6-9.2-1.6c-0.4,0-0.8,0-1.2,0c-0.5,0-3.3,1.4-6.9,7l-0.2,0.4l-0.4,0.1c-0.1,0-6.2,2-12.8,3.9
		l-0.4,0.1l-0.4-0.2c0,0-2.6-1.2-5-2.3c0.2,0.1,0.4,0.2,0.5,0.2c2.4,2.1,7,6.1,7.5,6.6c0.1,0.1,0.2,0.2,0.3,0.3
		c-0.1-0.1-0.2-0.3-0.3-0.4l0,0l0,0l0,0c1.1,1,2.2,1.9,3.5,2.5c0.6,0.3,1.3,0.5,2,0.7c0.3,0.1,0.7,0.1,1,0.1c0.4,0,0.7,0,1.1,0
		c1.4-0.1,2.9-0.2,4.3-0.3s2.9-0.3,4.3-0.5s2.9-0.3,4.3-0.6c0.7-0.1,1.4-0.2,2.1-0.4c0.3-0.1,0.7-0.2,1-0.3c0.2-0.1,0.5-0.4,0.8-0.6
		c0.5-0.5,1.1-1,1.6-1.5s1-1,1.5-1.6c0.8-0.9,1.6-1.8,2.4-2.7c0.1-0.1,0.2-0.2,0.3-0.4l0,0l0,0c0.2,0.1,0.3,0.2,0.5,0.4
		c1,0.7,2,1.5,3,2.2c1.3,0.9,2.6,1.8,3.9,2.5c0.3,0.2,0.7,0.4,1,0.5h0.1h0.1c0.1,0,0.2,0,0.2,0c0.2,0,0.4,0,0.5,0
		c0.7-0.1,1.5-0.2,2.3-0.3c1.5-0.2,3-0.5,4.6-0.8c1.5-0.3,3-0.6,4.5-0.9s3-0.7,4.5-1.1c0.7-0.2,1.5-0.4,2.2-0.7
		c0.7-0.3,1.3-0.7,1.9-1.2c1.2-1,2.2-2.2,3-3.6l0,0C375.8,115.9,376.1,115.1,376.3,114.5L376.3,114.5z"/>
	<polygon fill="#A41E29" points="348,43.1 350.7,43.1 350.7,37.7 347.8,37.7 342.5,37.7 331.2,37.7 331.2,43.1 333.8,43.1 
		333.8,40.4 339.4,40.4 339.4,57.1 337.1,57.1 337.1,60.3 344.8,60.3 344.8,57.1 342.5,57.1 342.5,40.4 348,40.4 	"/>
	<path fill="#87172C" d="M360.1,78.3c-5.1,2.3-10.1,3.5-13.4,4.1C350,81.8,355,80.6,360.1,78.3L360.1,78.3z"/>
	<path fill="#87172C" d="M346.9,82.2c-0.1,0-0.1,0.1-0.1,0.1C346.8,82.3,346.8,82.3,346.9,82.2L346.9,82.2L346.9,82.2z"/>
	<path fill="#87172C" d="M364.8,73.5L364.8,73.5C364.9,73.5,364.9,73.5,364.8,73.5C364.9,73.5,364.9,73.5,364.8,73.5L364.8,73.5z"/>
	<path fill="#87172C" d="M368.2,73.7c-0.2,0.1-0.4,0.3-0.6,0.4C367.9,74,368,73.8,368.2,73.7L368.2,73.7z"/>
	<path fill="#87172C" d="M368.2,73.7L368.2,73.7c-1.1-0.1-2.2-0.2-3.3-0.2c0,0,0,0-0.1,0c-5.2,4.5-15.4,8-18,8.8
		c-0.1,0-0.1,0.1-0.1,0.1c3.3-0.6,8.3-1.8,13.4-4.1c2.5-1.1,5.1-2.5,7.5-4.2C367.9,74,368,73.8,368.2,73.7L368.2,73.7z"/>
	<path fill="#87172C" d="M323,80.4c1.9-1,4.1-2,6.6-3.1C327.2,78.4,324.9,79.5,323,80.4L323,80.4L323,80.4z"/>
	<path fill="#87172C" d="M335.7,75.1c-0.2,0.1-0.3,0.1-0.5,0.2C335.4,75.2,335.5,75.1,335.7,75.1L335.7,75.1z"/>
	<path fill="#87172C" d="M344.3,72.7c-1.2,0.3-2.4,0.6-3.6,0.9C341.8,73.2,343,72.9,344.3,72.7L344.3,72.7L344.3,72.7z"/>
	<path fill="#87172C" d="M336.8,74.7c-0.1,0-0.3,0.1-0.4,0.1C336.6,74.8,336.7,74.7,336.8,74.7L336.8,74.7z"/>
	<path fill="#87172C" d="M333.5,75.8c-0.2,0.1-0.4,0.1-0.6,0.2C333.1,76,333.3,75.9,333.5,75.8L333.5,75.8z"/>
	<path fill="#87172C" d="M332.4,76.2c-0.2,0.1-0.4,0.2-0.6,0.2C332,76.4,332.2,76.3,332.4,76.2L332.4,76.2z"/>
	<path fill="#87172C" d="M331.4,76.6c-0.2,0.1-0.5,0.2-0.7,0.3C331,76.8,331.2,76.7,331.4,76.6L331.4,76.6z"/>
	<path fill="#87172C" d="M330.5,77c-0.3,0.1-0.5,0.2-0.8,0.3C330,77.2,330.2,77.1,330.5,77L330.5,77z"/>
	<path fill="#87172C" d="M334.6,75.5c-0.2,0.1-0.4,0.1-0.5,0.2C334.2,75.6,334.4,75.5,334.6,75.5L334.6,75.5z"/>
	<path fill="#87172C" d="M341.4,72.6c-9.7,2.5-16,6.2-18.4,7.8c1.9-1,4.1-2,6.6-3.1l0,0c0.3-0.1,0.5-0.2,0.8-0.3
		c0.1,0,0.2-0.1,0.3-0.1c0.2-0.1,0.5-0.2,0.7-0.3c0.1,0,0.3-0.1,0.4-0.2c0.2-0.1,0.4-0.2,0.6-0.2c0.2-0.1,0.3-0.1,0.5-0.2
		s0.4-0.1,0.6-0.2s0.4-0.1,0.5-0.2c0.2-0.1,0.4-0.1,0.5-0.2c0.2-0.1,0.4-0.1,0.6-0.2s0.3-0.1,0.5-0.2s0.5-0.2,0.7-0.2
		c0.1,0,0.3-0.1,0.4-0.1c0.4-0.1,0.8-0.3,1.2-0.4c0.9-0.3,1.7-0.5,2.6-0.8c1.2-0.3,2.4-0.6,3.6-0.9
		C343.3,72.6,342.4,72.6,341.4,72.6L341.4,72.6z"/>
	<path fill="#87172C" d="M327.7,72.9c-1.6,0.1-3.2,0.1-4.8,0.2l0,0C324.5,73,326.1,72.9,327.7,72.9L327.7,72.9L327.7,72.9z"/>
	<path fill="#87172C" d="M322.9,73.1c-7,1.4-19.9,5.4-31.7,15.4c-0.1,0.1-0.2,0.3-0.3,0.4c6-4.2,16.3-10.4,29.1-14.2
		c0.4-0.1,0.8-0.2,1.2-0.4c2.1-0.6,4.3-1.1,6.5-1.5C326.1,72.9,324.5,73,322.9,73.1L322.9,73.1z"/>
	<path fill="#87172C" d="M376.9,114.2L376.9,114.2L376.9,114.2L376.9,114.2z"/>
	<path fill="#87172C" d="M378.5,114.1c0.1-0.2,0.2-0.4,0.3-0.6l0,0C378.8,113.7,378.7,113.9,378.5,114.1L378.5,114.1z"/>
	<path fill="#87172C" d="M377.2,114.1C377.3,114.1,377.3,114.1,377.2,114.1C377.3,114.1,377.3,114.1,377.2,114.1L377.2,114.1z"/>
	<polygon fill="#87172C" points="343.5,120.3 344.4,121.3 343.5,120.3 	"/>
	<path fill="#87172C" d="M378.5,114.1c-0.7,1.2-1.4,2.7-2.1,4C377.2,116.8,377.9,115.4,378.5,114.1L378.5,114.1z"/>
	<path fill="#87172C" d="M368.3,125.4c-0.4,0.1-0.7,0.2-1.1,0.3C367.5,125.5,367.9,125.4,368.3,125.4L368.3,125.4z"/>
	<path fill="#87172C" d="M368.3,125.4c2.2-0.5,5.2-1.2,6.8-4.4C373.4,124.2,370.4,124.8,368.3,125.4L368.3,125.4z"/>
	<polygon fill="#87172C" points="375.3,116.8 375.3,116.8 375.3,116.8 	"/>
	<path fill="#87172C" d="M376.5,118.1c-0.5,1-1,2-1.4,2.8C375.5,120.1,376,119.1,376.5,118.1L376.5,118.1z"/>
	<path fill="#87172C" d="M378.3,113.6c0.1,0,0.2-0.1,0.2-0.1C378.4,113.5,378.4,113.5,378.3,113.6L378.3,113.6z"/>
	<path fill="#87172C" d="M344.4,121.4c0.4,0.5,2.2,2.5,4.3,4.6c1.6,1.6,3.5,2.4,5.7,2.4c-2.2,0-4.1-0.8-5.7-2.4
		C346.6,124,344.9,121.9,344.4,121.4L344.4,121.4z"/>
	<path fill="#87172C" d="M377.6,113.9h0.1C377.6,113.9,377.6,113.9,377.6,113.9L377.6,113.9z"/>
	<path fill="#87172C" d="M378.6,113.4c0.1-0.1,0.2-0.1,0.4-0.2C378.9,113.3,378.8,113.4,378.6,113.4L378.6,113.4z"/>
	<path fill="#87172C" d="M377.9,113.7c0.1,0,0.1-0.1,0.2-0.1C378,113.7,378,113.7,377.9,113.7L377.9,113.7z"/>
	<path fill="#87172C" d="M356.8,128.2c0.7-0.2,1.5-0.4,2.4-0.6c2.5-0.6,5.2-1.2,7-1.7c-1.8,0.5-4.5,1.1-7,1.7
		C358.4,127.8,357.6,128,356.8,128.2L356.8,128.2z"/>
	<path fill="#87172C" d="M378.6,113.4c0,0-0.1,0-0.1,0.1c-0.1,0-0.2,0.1-0.2,0.1c-0.1,0-0.1,0.1-0.2,0.1s-0.1,0.1-0.2,0.1
		s-0.2,0.1-0.2,0.1h-0.1c-0.1,0-0.2,0.1-0.3,0.1c0,0,0,0-0.1,0s-0.2,0.1-0.3,0.1l0,0c-0.2,0.1-0.4,0.2-0.6,0.3
		c-0.2,0.6-0.5,1.4-1,2.3l0,0l0,0l0,0c-0.8,1.3-1.8,2.6-3,3.6c-0.6,0.5-1.2,0.9-1.9,1.2c-0.7,0.3-1.4,0.5-2.2,0.7
		c-1.5,0.4-3,0.7-4.5,1.1c-1.5,0.3-3,0.6-4.5,0.9s-3,0.6-4.6,0.8c-0.8,0.1-1.5,0.2-2.3,0.3c-0.2,0-0.4,0-0.5,0s-0.2,0-0.2,0h-0.1
		h-0.1c-0.3-0.1-0.7-0.3-1-0.5c-1.3-0.7-2.6-1.6-3.9-2.5c-1-0.7-2-1.5-3-2.2l-0.1,0.1l0,0c0.1,0.1,0.1,0.1,0.2,0.2l0,0l-0.1-0.1
		l0.8,1c0,0,0,0,0.1,0.1c0.4,0.5,2.2,2.5,4.3,4.6c1.6,1.6,3.5,2.4,5.7,2.4c0.8,0,1.5-0.1,2.3-0.3c0.7-0.2,1.5-0.4,2.4-0.6
		c2.5-0.6,5.2-1.2,7-1.7c0.1,0,0.2-0.1,0.3-0.1c0.3-0.1,0.5-0.1,0.7-0.2c0.3-0.1,0.7-0.2,1.1-0.3c2.2-0.5,5.2-1.2,6.8-4.4
		c0.4-0.9,0.9-1.8,1.4-2.8c0.7-1.4,1.4-2.8,2.1-4c0.1-0.2,0.2-0.4,0.3-0.6l0,0c0.1-0.1,0.1-0.2,0.2-0.3
		C378.9,113.3,378.8,113.4,378.6,113.4L378.6,113.4z"/>
	<path fill="#87172C" d="M304.7,118.6c0.4,0.6,0.9,1.3,1.4,2C305.6,119.9,305.1,119.2,304.7,118.6L304.7,118.6L304.7,118.6z"/>
	<polygon fill="#87172C" points="342.9,120.3 342.9,120.3 342.9,120.3 	"/>
	<polygon fill="#87172C" points="342.9,120.3 342.9,120.3 342.3,121.7 	"/>
	<path fill="#87172C" d="M308.2,123.6c-0.7-1-1.5-2-2.2-3C306.7,121.6,307.5,122.6,308.2,123.6L308.2,123.6z"/>
	<path fill="#87172C" d="M321.4,131.4c0.8,0,1.6,0,2.5-0.1C323,131.3,322.2,131.4,321.4,131.4L321.4,131.4L321.4,131.4z"/>
	<path fill="#87172C" d="M309.2,124.9c-0.3-0.4-0.6-0.8-1-1.3C308.5,124.1,308.9,124.5,309.2,124.9c2.6,3.4,5.9,6.5,12.2,6.5l0,0
		C315.1,131.4,311.8,128.3,309.2,124.9L309.2,124.9z"/>
	<path fill="#87172C" d="M337.4,128.8c1.3-0.6,2.5-1.5,3.1-2.9c1.5-3.4,1.8-4.2,1.8-4.2s-0.3,0.8-1.8,4.2
		C339.9,127.3,338.6,128.2,337.4,128.8L337.4,128.8z"/>
	<path fill="#87172C" d="M333.5,130c0.1,0,0.2,0,0.2,0s1.9-0.2,3.7-1.1c-1.8,0.9-3.7,1.1-3.7,1.1C333.6,129.9,333.5,129.9,333.5,130
		L333.5,130z"/>
	<path fill="#87172C" d="M325,131.1c5.5-0.6,7-0.9,7.8-1c0.2,0,0.4-0.1,0.6-0.1c-0.2,0-0.4,0.1-0.6,0.1
		C332,130.2,330.5,130.5,325,131.1L325,131.1z"/>
	<polygon fill="#87172C" points="312.7,125.3 312.7,125.3 312.7,125.3 	"/>
	<path fill="#87172C" d="M342.9,120.3l-0.1-0.1c-0.8,0.9-1.5,1.9-2.4,2.7c-0.5,0.5-1,1.1-1.5,1.6s-1,1-1.6,1.5
		c-0.3,0.2-0.6,0.5-0.8,0.6c-0.3,0.1-0.6,0.2-1,0.3c-0.7,0.2-1.4,0.3-2.1,0.4c-1.4,0.2-2.9,0.4-4.3,0.6c-1.4,0.2-2.9,0.3-4.3,0.5
		c-1.4,0.1-2.9,0.3-4.3,0.3c-0.4,0-0.7,0-1.1,0s-0.7,0-1-0.1c-0.7-0.1-1.4-0.3-2-0.7c-1.3-0.6-2.5-1.5-3.5-2.5l0,0
		c0.1,0.2,0.3,0.3,0.5,0.5l-0.1-0.1c-0.1-0.1-0.2-0.2-0.3-0.3c-0.5-0.6-5.1-4.5-7.5-6.6c-0.2-0.1-0.4-0.2-0.5-0.2
		c0.4,0.6,0.9,1.3,1.4,2c0.7,1,1.4,2.1,2.2,3c0.3,0.4,0.7,0.9,1,1.3c2.6,3.4,5.9,6.5,12.2,6.5c0.8,0,1.6,0,2.5-0.1
		c0.2,0,0.4,0,0.6-0.1c0.2,0,0.4,0,0.5-0.1c5.5-0.6,7-0.9,7.8-1c0.2,0,0.4-0.1,0.6-0.1c0.1,0,0.2,0,0.2,0s1.9-0.2,3.7-1.1
		c1.3-0.6,2.5-1.5,3.1-2.9c1.5-3.4,1.8-4.2,1.8-4.2L342.9,120.3L342.9,120.3L342.9,120.3z"/>
	<path fill="#090B0C" d="M344.4,121.4c0.4,0.5,2.2,2.5,4.3,4.6c1.6,1.6,3.5,2.4,5.7,2.4c-2.2,0-4.1-0.8-5.7-2.4
		C346.6,124,344.9,121.9,344.4,121.4L344.4,121.4z"/>
	<path fill="#090B0C" d="M308.2,123.6c-0.7-1-1.5-2-2.2-3C306.7,121.6,307.5,122.6,308.2,123.6L308.2,123.6z"/>
	<path fill="#090B0C" d="M337.4,128.8c1.3-0.6,2.5-1.5,3.1-2.9c1.5-3.4,1.8-4.2,1.8-4.2s-0.3,0.8-1.8,4.2
		C339.9,127.3,338.6,128.2,337.4,128.8L337.4,128.8z"/>
	<polygon fill="#090B0C" points="343.5,120.3 344.4,121.3 343.5,120.3 	"/>
	<path fill="#090B0C" d="M321.4,131.4c0.8,0,1.6,0,2.5-0.1C323,131.3,322.2,131.4,321.4,131.4L321.4,131.4L321.4,131.4z"/>
	<path fill="#090B0C" d="M356.8,128.2c0.7-0.2,1.5-0.4,2.4-0.6c2.6-0.6,5.5-1.3,7.3-1.8c-1.8,0.5-4.7,1.2-7.3,1.8
		C358.4,127.8,357.6,128,356.8,128.2L356.8,128.2z"/>
	<path fill="#090B0C" d="M324.5,131.2c5.9-0.7,7.5-1,8.4-1.1c0.2,0,0.4-0.1,0.6-0.1c-0.2,0-0.4,0.1-0.6,0.1
		C332,130.2,330.4,130.5,324.5,131.2L324.5,131.2z"/>
	<path fill="#090B0C" d="M378.5,114.1c-0.7,1.2-1.4,2.7-2.1,4C377.2,116.8,377.9,115.4,378.5,114.1L378.5,114.1z"/>
	<polygon fill="#090B0C" points="342.9,120.3 342.9,120.3 342.9,120.3 	"/>
	<path fill="#090B0C" d="M357.7,89.4c0.7,0,1.2-0.6,1.2-1.2c0-0.7-0.6-1.2-1.2-1.2c-0.7,0-1.2,0.6-1.2,1.2
		C356.5,88.9,357.1,89.4,357.7,89.4L357.7,89.4z M365.2,94.9c-1.6-0.8-3.4,0.2-6.6,0.3c-2.4,0.1-4.4,0.1-4.5-3.6s1.4-6.8,3.8-6.9
		s4.6,2.9,4.8,6.6c0.1,1,0,1.8-0.3,2.3C364.7,93.3,365.2,94.8,365.2,94.9L365.2,94.9z"/>
	<path fill="#090B0C" d="M323.6,90.3c0.7,0,1.2-0.6,1.2-1.2c0-0.7-0.6-1.2-1.2-1.2c-0.7,0-1.2,0.6-1.2,1.2
		C322.4,89.8,323,90.3,323.6,90.3L323.6,90.3z M327.3,92.3c0,3.7-1.9,3.5-4.3,3.5c-0.2,0-0.5,0-0.7,0c-0.3,0-0.5,0-0.8,0
		c-2.3,0-3.8-0.1-5.1,0.6c0-0.1,0.6-1.4,2.7-1.9c-0.2-0.5-0.4-1.2-0.4-2.2c-0.1-3.7,2.2-6.8,4.5-6.8
		C325.6,85.5,327.3,88.5,327.3,92.3L327.3,92.3z"/>
	<path fill="#090B0C" d="M377.7,69.2c0.1,0,0.2,0.1,0.5,0.2c0.1,0.1,0.2,0.1,0.3,0.1c-0.4-0.2-0.7-0.4-1.1-0.5
		C377.5,69.1,377.6,69.1,377.7,69.2L377.7,69.2L377.7,69.2z"/>
	<path fill="#090B0C" d="M303.7,69.2L303.7,69.2c0.1-0.1,0.2-0.1,0.3-0.2c-0.4,0.2-0.7,0.3-1,0.5c0.1,0,0.2-0.1,0.2-0.1
		C303.5,69.3,303.6,69.2,303.7,69.2L303.7,69.2z"/>
	<path fill="#090B0C" d="M372.4,66.5c0,0.3,0,0.6-0.1,0.7c-0.9-0.3-1.9-0.5-2.8-0.7c-3.1-0.7-6.3-1.2-9.5-1.6c-0.1,0-0.2,0-0.3,0
		c0,0,0-0.1,0.1-0.1c0.1-0.3,0.2-0.7,0.3-1c0.8-3.6,0.8-7.3,0.7-9l11.4,3.2C372.6,62,372.5,65.1,372.4,66.5L372.4,66.5z M358.2,64.4
		c0,0.1,0,0.3,0,0.4c-1.2-0.1-2.4-0.2-3.6-0.3c1.3-2.8,1.6-5.8,1.7-6.8c1-0.7,2-1.6,2.8-2.3C359.2,57.3,359.2,61,358.2,64.4
		L358.2,64.4z M323.2,64.8c0-0.1,0-0.3,0-0.4c-0.9-3.4-1-7-0.9-9.1c0.8,0.7,1.8,1.6,2.8,2.3c0.1,1.1,0.4,4,1.7,6.8
		C325.6,64.5,324.4,64.6,323.2,64.8L323.2,64.8z M321.5,65c-1.6,0.2-3.2,0.4-4.8,0.7c-1.6,0.3-3.2,0.6-4.7,0.9
		c-1,0.2-1.9,0.5-2.8,0.7c0-0.1,0-0.2,0-0.3c-0.1-1.2-0.3-4.6,0.4-9l11.4-3.2c-0.1,1.7-0.1,5.1,0.6,8.6c0.1,0.5,0.2,1,0.4,1.5
		c0,0,0,0.1,0.1,0.1C321.7,64.9,321.6,64.9,321.5,65L321.5,65z M378.5,69.5c-0.1,0-0.2-0.1-0.3-0.1c-0.1-0.1-0.3-0.1-0.5-0.2l0,0
		c-0.1,0-0.2-0.1-0.3-0.2c-1.1-0.5-2.2-0.9-3.3-1.2c-0.1,0-0.3-0.1-0.4-0.1v-0.1c0-0.1,0.3-2.2,0.1-5.5c-0.1-1.4-0.2-3-0.5-4.8
		c0-0.3-0.3-0.5-0.5-0.6l-1.6-0.5c-0.3-12.5-5.5-18.4-5.7-18.6c4.6,7.4,4.6,16.2,4.5,18.3L360,53l0,0h-0.1l0,0c-0.1,0-0.1,0-0.2,0
		l0,0h-0.1l0,0c0,0-0.1,0-0.1,0.1l0,0l0,0l0,0c0,0-0.3,0.3-0.7,0.7c0-0.9,0-2.4-0.1-4.1c0-0.2,0-0.3,0-0.5c-0.3-4.4-1.4-10.6-4.5-16
		c0,0.1,0.3,1,0.7,2.5c1,3.8,2.6,11.5,1.7,19.9v0.1l0,0c-0.4,0.3-0.8,0.6-1.2,0.9c-0.2,0.1-0.3,0.4-0.3,0.6c0,0-0.1,3.8-1.7,7
		c0,0.1,0,0.1-0.1,0.2c-4.1-0.3-8.2-0.4-12.4-0.4c-4.1,0-8.3,0.1-12.4,0.4c0,0,0-0.1-0.1-0.1c-1.7-3.2-1.7-6.9-1.7-7
		c0-0.2-0.1-0.5-0.3-0.6c-0.4-0.3-0.8-0.6-1.2-0.9c-0.8-8,0.5-15.4,1.5-19.4c0.5-1.9,0.9-3.1,0.9-3.2c-4.5,7.9-4.7,17.4-4.6,20.7
		c-0.4-0.4-0.7-0.7-0.7-0.7l0,0l0,0l0,0c0,0-0.1,0-0.1-0.1l0,0h-0.1l0,0c-0.1,0-0.1,0-0.2,0l0,0h-0.1l0,0L311.7,56
		c-0.1-2.1-0.1-10.9,4.5-18.3c-0.2,0.2-5.3,6.1-5.7,18.6l-1.6,0.5c-0.3,0.1-0.5,0.3-0.5,0.6c-0.3,1.8-0.4,3.4-0.5,4.8
		c-0.2,3.3,0.1,5.4,0.1,5.5v0.1c-0.1,0-0.3,0.1-0.4,0.1c-1.1,0.4-2.2,0.7-3.3,1.2c-0.1,0.1-0.2,0.1-0.3,0.2l0,0
		c-0.2,0.1-0.3,0.2-0.5,0.2c-0.1,0-0.2,0.1-0.2,0.1c-0.1,0-0.1,0.1-0.2,0.1c0.7-0.3,1.5-0.5,2.3-0.7s1.6-0.4,2.3-0.5
		c1.6-0.3,3.1-0.5,4.7-0.7s3.2-0.4,4.7-0.5c1.6-0.1,3.2-0.3,4.8-0.4c6.3-0.4,12.7-0.5,19.1-0.5s12.7,0.1,19.1,0.5
		c1.6,0.1,3.2,0.2,4.8,0.4c1.6,0.1,3.2,0.3,4.7,0.5c1.6,0.2,3.2,0.4,4.7,0.7c0.8,0.1,1.6,0.3,2.3,0.5c0.8,0.2,1.5,0.4,2.3,0.7
		C378.6,69.6,378.5,69.6,378.5,69.5L378.5,69.5z"/>
	<path fill="#090B0C" d="M303,69.5L303,69.5c0.1,0,0.2-0.1,0.2-0.1C303.1,69.4,303,69.5,303,69.5L303,69.5z"/>
	<path fill="#090B0C" d="M303.7,69.2L303.7,69.2L303.7,69.2L303.7,69.2z"/>
	<path fill="#090B0C" d="M303.7,69.2c-0.1,0-0.2,0.1-0.5,0.2C303.4,69.3,303.5,69.3,303.7,69.2L303.7,69.2z"/>
	<path fill="#090B0C" d="M378.5,69.5L378.5,69.5c-0.1,0-0.2-0.1-0.3-0.1C378.3,69.4,378.4,69.5,378.5,69.5L378.5,69.5z"/>
	<path fill="#090B0C" d="M378.2,69.4c-0.2-0.1-0.4-0.2-0.5-0.2C377.9,69.3,378.1,69.3,378.2,69.4L378.2,69.4z"/>
	<path fill="#090B0C" d="M377.7,69.2L377.7,69.2L377.7,69.2L377.7,69.2z"/>
	<path fill="#090B0C" d="M342.5,40.4v16.8h2.3v3.1h-7.7v-3.1h2.3V40.4h-5.5v2.8h-2.7v-5.4h11.3h5.3h2.9v5.4H348v-2.8H342.5
		L342.5,40.4z M352.7,45.1v-9.4h-23.5v9.4h6.7v-2.8h1.5V55h-2.3v7.1h11.7V55h-2.3V42.4h1.5v2.8h6.7V45.1z"/>
	<polygon fill="#090B0C" points="343.5,120.3 343.5,120.3 343.5,120.3 	"/>
	<path fill="#090B0C" d="M343,119.9c0,0,0.2,0.1,0.5,0.4l-0.1-0.1l0.1-0.1c-0.2-0.1-0.3-0.3-0.5-0.4l0,0l0,0
		c-0.1,0.1-0.2,0.2-0.3,0.4l0.1,0.1C342.9,120,343,119.9,343,119.9L343,119.9z"/>
	<g>
		<g>
			<defs>
				<rect id="SVGID_5_" x="281" y="25.2" width="344.1" height="110"/>
			</defs>
			<clipPath id="SVGID_1_">
				<use xlink:href="#SVGID_5_"  overflow="visible"/>
			</clipPath>
			<polygon clip-path="url(#SVGID_1_)" fill="#090B0C" points="343.5,120.3 343.5,120.3 343.6,120.2 343.5,120.3 			"/>
		</g>
		<g>
			<defs>
				<rect id="SVGID_7_" x="281" y="25.2" width="344.1" height="110"/>
			</defs>
			<clipPath id="SVGID_2_">
				<use xlink:href="#SVGID_7_"  overflow="visible"/>
			</clipPath>
			<path clip-path="url(#SVGID_2_)" fill="#090B0C" d="M389.4,70.8c-0.2,1.5-0.5,3-0.9,4.4c-0.2,0.7-0.4,1.4-0.7,2.1
				c-0.1,0.3-0.3,0.7-0.4,1c-0.1,0.2-0.2,0.3-0.2,0.5l-0.1,0.2c-0.1,0.1-0.2,0.1-0.3,0.2l-0.7,0.3c-0.2,0.1-0.5,0.2-0.7,0.3l1.2-4.5
				c-0.3-0.1-2.9-0.7-7.3-1.6c0.1,0,0.3-0.1,0.4-0.1c0.9-0.2,1.8-0.5,2.7-0.9c0.4-0.2,0.9-0.4,1.3-0.6s0.8-0.5,1.1-0.9
				c-4.5,1.5-13.7,0.8-21.8,0c-7.5-0.8-15-1.3-22.5-1.3s-15,0.5-22.5,1.3c-8.2,0.8-17.4,1.5-21.8,0c0.3,0.4,0.7,0.6,1.1,0.9
				c0.4,0.2,0.8,0.4,1.3,0.6c0.9,0.4,1.8,0.6,2.7,0.9c0.3,0.1,0.7,0.1,1,0.2c-4.1,0.8-6.4,1.4-6.7,1.5l1.2,4.7c0,0,0,0-0.1,0.1
				c-0.4-0.2-0.9-0.4-1.3-0.6l-0.7-0.3c-0.1,0-0.2-0.1-0.3-0.2l-0.1-0.2c-0.1-0.2-0.2-0.3-0.2-0.5c-0.1-0.3-0.3-0.7-0.4-1
				c-0.3-0.7-0.5-1.4-0.7-2.1c-0.4-1.4-0.7-2.9-0.9-4.4c-0.2-1.5-0.3-3-0.3-4.5c0-0.8,0-1.5,0.1-2.3c0-0.4,0.1-0.7,0.1-1.1
				c0-0.3,0.1-0.5,0.1-0.8c1-0.8,2.1-1.6,3.3-2.3c1.3-0.7,2.6-1.4,4-2s2.7-1.2,4.1-1.8c0.7-0.3,1.4-0.6,2.1-0.8
				c0.7-0.3,1.4-0.5,2.1-0.8c-1.5,0.2-3,0.6-4.4,1c-1,0.2-1.9,0.5-2.8,0.8c6.7-17.6,22.8-29,40.3-29s33.6,11.4,40.3,29
				c-0.9-0.3-1.9-0.6-2.9-0.8c-1.5-0.4-2.9-0.7-4.4-1c0.7,0.3,1.4,0.5,2.1,0.8s1.4,0.5,2.1,0.8c1.4,0.6,2.8,1.1,4.1,1.8
				c1.4,0.6,2.7,1.3,4,2c1.2,0.7,2.3,1.4,3.3,2.3c0,0.3,0.1,0.5,0.1,0.8c0,0.4,0.1,0.7,0.1,1.1c0.1,0.7,0.1,1.5,0.1,2.3
				C389.7,67.8,389.6,69.3,389.4,70.8L389.4,70.8z M382.4,83.1c-3.4-0.7-10.8-2.2-20.9-3.2c3.3-1.4,6.7-3.2,9.7-5.4
				c6,0.8,10.4,1.8,12.8,2.3L382.4,83.1L382.4,83.1z M385,89.2c0.3,0.2,0.5,0.8,0.3,3.6c-0.3,3.4-1.7,9.5-2.6,10.4
				c-1,0.2-3.1,0-4.3-0.3c0.2-0.9,0.3-1.3,0.5-2.2l2.2-1.5c0.2-0.1,0.3-0.3,0.3-0.5l1.5-10.8C383.7,88.4,384.7,89,385,89.2L385,89.2
				z M370.8,104.5l-23.4-2.7l-3.5-11.6c-0.1-0.3-0.3-0.5-0.6-0.5c-0.9-0.1-1.6-0.2-2.3-0.2c-0.6,0-1.4,0.1-2.3,0.2
				c-0.3,0-0.5,0.3-0.6,0.5l-3.4,11.3l-23.3,5.2l-9.2-6.5l-2-14.7c0.4-0.2,0.8-0.4,1.2-0.7c0.6-0.1,1.2-0.3,1.9-0.4l1.7,13.9
				c0,0.2,0.1,0.4,0.3,0.5l6.4,4.5c0.1,0.1,0.3,0.1,0.4,0.1s0.1,0,0.2,0l19.2-4.3c0.1,0,0.1,0,0.2-0.1c0.2-0.1,0.3-0.3,0.4-0.5
				l3.5-11.4c0.9-0.2,3.3-0.8,5.4-0.8s4.5,0.6,5.4,0.8l3.5,11.4c0.1,0.3,0.3,0.5,0.6,0.5l19.2,2.2c0.2,0,0.4,0,0.5-0.1l6.4-4.4
				c0.2-0.1,0.3-0.3,0.3-0.5l1.7-11.9c1.3,0.2,2.3,0.5,3.2,0.6L379.9,98L370.8,104.5L370.8,104.5z M376.2,103.9
				c-0.2,0.7-0.4,1.4-0.7,2c-0.9,2.6-2,5-3.1,7.2c-0.3,0-0.6,0-1,0c-1.1,0-2.2-0.1-3.4-0.2c-2.1-0.2-5.5-0.6-6.6-0.7
				c-0.9-0.7-4.1-3.3-6.7-5.3c-0.1-0.1-0.2-0.2-0.3-0.2c-0.5-0.4-1-0.8-2.1-0.8c-1,0-2.4,0.4-5.8,1.4c1.8-1.3,1.8-3.1,1.8-3.1
				s-2.5,2.4-6.6,2.9s-7.3-2-7.3-2c0.1,0.4,0.3,1.4,1.3,2.3c-1.1-0.1-2.3-0.2-3.5-0.2c-0.4,0-0.9,0-1.3,0c-2.5,0.1-6.1,3.9-8.5,7.8
				c-1.2,0.4-5,1.6-9.5,2.9c-2.6-3.6-4.4-7.3-5.4-9.6c-0.6-1.4-0.9-2.3-1-2.5l0,0c-0.1-0.2-0.2-0.5-0.2-0.7l1.1,0.7l0,0l2.6,1.8
				l0.9,0.6c0.1,0.1,0.3,0.1,0.4,0.1s0.1,0,0.2,0l22.4-5l1.6-0.4c0.3-0.1,0.5-0.3,0.6-0.5l3.4-11.3c0.6-0.1,1.1-0.1,1.6-0.1
				c0.4,0,1,0,1.6,0.1l3.5,11.6c0.1,0.3,0.3,0.5,0.6,0.5l1.3,0.1h0.3l22.6,2.6c0.2,0,0.4,0,0.5-0.1l2.3-1.6l2.1-1.5l0.8-0.5
				C376.4,102.8,376.3,103.4,376.2,103.9L376.2,103.9z M376.1,114.6c0.1,0,0.1-0.1,0.2-0.1c0.7-0.4,1.7-0.9,2.7-1.3
				c-0.1,0.1-0.1,0.2-0.2,0.3c-0.1,0.2-0.2,0.4-0.3,0.6c-0.7,1.2-1.4,2.7-2.1,4c-0.5,1-1,2-1.4,2.8c-1.6,3.2-4.6,3.9-6.8,4.4
				c-0.4,0.1-0.7,0.2-1.1,0.3c-0.2,0.1-0.4,0.1-0.7,0.2c-1.8,0.5-4.7,1.2-7.3,1.8c-0.8,0.2-1.6,0.4-2.4,0.6
				c-0.8,0.2-1.6,0.3-2.3,0.3c-2.2,0-4.1-0.8-5.7-2.4c-2.1-2.1-3.9-4.1-4.3-4.6c-0.1-0.1-0.1-0.1-0.1-0.1l-0.8-1
				c-0.3-0.2-0.5-0.4-0.5-0.4s-0.1,0.1-0.2,0.3l-0.1-0.1l0.1,0.1l0,0l0,0l0,0l-0.5,1.4c0,0-0.3,0.8-1.8,4.2
				c-0.6,1.3-1.8,2.3-3.1,2.9c-1.8,0.9-3.7,1.1-3.7,1.1c-0.1,0-0.2,0-0.2,0c-0.2,0-0.4,0.1-0.6,0.1c-0.9,0.1-2.4,0.4-8.4,1.1
				c-0.2,0-0.4,0-0.6,0.1c-0.9,0.1-1.7,0.1-2.5,0.1l0,0l0,0c-6.3,0-9.6-3.1-12.2-6.5c-0.3-0.4-0.6-0.8-1-1.3c-0.7-1-1.5-2-2.2-3
				c-0.5-0.7-1-1.4-1.4-2l0,0c0.2,0.1,0.4,0.2,0.5,0.2c2.3,1,4.5,2.1,4.5,2.1l0.4,0.2l0.4-0.1c6.5-1.9,12.7-3.9,12.8-3.9l0.4-0.1
				l0.2-0.4c3.6-5.7,6.4-7,6.9-7c0.4,0,0.8,0,1.2,0c5,0,9.1,1.5,9.2,1.6l0.4,0.1l0.4-0.1c6.3-2,9.2-2.9,10.2-2.9
				c0.2,0,0.2,0,0.5,0.3c0.1,0.1,0.2,0.2,0.3,0.3c3.1,2.4,6.9,5.5,7,5.5l0.3,0.2h0.3c0,0,4.4,0.5,7,0.8c1.3,0.1,2.5,0.2,3.7,0.2
				C373.4,115.6,374.9,115.3,376.1,114.6L376.1,114.6z M342.5,133.4c-3,0.2-6.1-0.2-9.1-1c0.3,0,0.4-0.1,0.7-0.1
				c0.2,0,5.7-0.7,8.1-4.4h0.2h0.6c0.4,0,0.8,0,1.2-0.1c0.9-0.1,1.8-0.2,2.7-0.4c0.1,0.1,0.2,0.2,0.3,0.3c1.8,1.8,4.1,2.9,6.6,3
				C349.5,132.5,345.5,133.2,342.5,133.4L342.5,133.4z M345.8,126.5c-0.6,0.1-1.2,0.2-1.8,0.2c-0.4,0-0.8,0.1-1.1,0.1h-0.1
				c0.5-1,0.8-1.8,1.1-2.4C344.3,124.9,345,125.7,345.8,126.5L345.8,126.5z M299.4,105c-0.4-0.4-0.8-1.5-1.3-3l0,0
				c-0.7-2.3-1.4-5.5-1.7-7.5c-0.3-2.7-0.1-3.3,0.2-3.5c0.3-0.3,1.5-0.9,2.5-1.5l1.4,11.3c0,0.2,0.1,0.4,0.3,0.5l2.9,2
				c0,0.2,0.1,0.3,0.1,0.5c0.1,0.2,0.1,0.5,0.2,0.7C302.9,104.8,300.5,105.2,299.4,105L299.4,105z M338,74.3c-6,1.8-11.2,4.2-15,6.1
				c-0.4,0.2-0.8,0.4-1.2,0.6c4.3-4.1,8.9-6.4,9.4-6.7l0,0l3.5-1.6c1.9,0,3.8-0.1,5.6-0.1l0,0c0.3,0,0.7,0,1,0c1,0,1.9,0,2.9,0
				C342.1,73.1,340,73.7,338,74.3L338,74.3z M351.7,74.2c-1.1,1.4-2.6,3.1-4.3,4.8c-2.1-0.1-4.2-0.1-6.3-0.1c-3.6,0-7,0.1-10.3,0.3
				c4.6-1.9,10.1-3.8,16.1-4.9c1.7-0.3,3.5-0.6,5.4-0.8C352.1,73.7,351.9,73.9,351.7,74.2L351.7,74.2z M346.7,82.4l0.1-0.1
				c3.4-2.9,6.1-6.2,7.4-8c0.4-0.6,0.7-1,0.9-1.2c2.5,0.1,5.1,0.2,7.6,0.4c0.7,0,1.4,0.1,2.1,0.1c1.1,0.1,2.3,0.2,3.4,0.2l0,0
				c-0.2,0.1-0.4,0.3-0.6,0.4C360.3,79.3,351.7,81.5,346.7,82.4L346.7,82.4z M342.8,85c0.4,0,6.7-0.8,14.3-3.4
				c8.4,0.6,15.2,1.7,19.9,2.5l-1.7,11.6l-5.8,4.1l-18.4-2.1l-3.4-11.3c-0.1-0.3-0.3-0.4-0.5-0.5c-0.1,0-2.4-0.7-4.8-0.9L342.8,85
				L342.8,85z M308,81.5c5.1-2.3,10.9-4.5,17.3-6c-1.6,1.2-3.5,2.6-5.3,4.4C315.4,80.4,311.3,81,308,81.5L308,81.5z M317.8,82.3
				c-0.6,0.7-1.1,1.4-1.6,2.1l-3.1,4.5l4.6-3.1c0.1,0,3-2,7.8-4.3c4.8-0.4,10-0.6,15.6-0.6c1.4,0,2.7,0,4,0
				c-0.9,0.7-1.9,1.4-2.9,2.1l-3.4,2c-2.1,0.3-4,0.8-4.1,0.8s-0.1,0-0.2,0.1c-0.2,0.1-0.3,0.3-0.3,0.4l-3.4,11.3l-18.4,4.1l-5.8-4.1
				l-1.7-13.7C308.1,83.6,312.6,82.9,317.8,82.3L317.8,82.3z M298,76.8c1-0.2,2.3-0.5,3.9-0.8c-1,0.7-2.2,1.5-3.5,2.5L298,76.8
				L298,76.8z M290.8,88.9c0.1-0.1,0.2-0.3,0.3-0.4c6.4-7.4,15.4-13.1,17.8-14.5c0.3,0,0.5-0.1,0.8-0.1c0.9-0.1,1.8-0.2,2.8-0.2
				c1.9-0.1,3.7-0.3,5.6-0.4c1.6-0.1,3.2-0.2,4.8-0.2c1.6-0.1,3.2-0.1,4.8-0.2c-2.2,0.4-4.4,1-6.6,1.6
				C307.8,78.2,297,84.6,290.8,88.9L290.8,88.9z M391.9,66.2c0-0.8-0.1-1.6-0.2-2.4c-0.1-0.4-0.1-0.8-0.2-1.2
				c-0.1-0.4-0.2-0.8-0.3-1.2l-0.1-0.3l-0.2-0.2c-1.3-1-2.6-1.8-4-2.4c-1.2-0.5-2.3-1-3.5-1.5c-3.3-9.1-9-17.3-16.4-22.9
				c-7.7-5.8-16.8-8.9-26.2-8.9c-9.4,0-18.5,3.1-26.2,8.9c-7.4,5.6-13.1,13.8-16.4,22.9c-1.2,0.4-2.3,0.9-3.5,1.4
				c-1.4,0.7-2.8,1.4-4,2.4l-0.2,0.2l-0.1,0.3c-0.1,0.4-0.2,0.8-0.3,1.2c-0.1,0.4-0.1,0.8-0.2,1.2c-0.1,0.8-0.2,1.6-0.2,2.4
				c-0.1,1.6,0,3.2,0.1,4.8c0.2,1.6,0.5,3.2,0.9,4.8c0.2,0.8,0.5,1.6,0.8,2.3c0.1,0.4,0.3,0.8,0.5,1.1c0.1,0.2,0.2,0.4,0.3,0.6
				l0.2,0.3c0.1,0.1,0.1,0.2,0.2,0.3l0.2,0.3l0.3,0.1c0.3,0.1,0.5,0.2,0.7,0.4l0.7,0.3c0.1,0.1,0.3,0.1,0.4,0.2
				c-3.3,3-6.8,6.9-9.9,11.8l-3.9,6.1l5.5-4.8c0.1-0.1,4.7-4,12.3-8.5l0.1,0.9c-0.5,0.3-2.9,1.5-3.6,2.1c-1.2,1-1.2,2.5-0.9,5.3
				c0.2,1.5,0.7,4.3,1.4,6.9c1.3,4.5,2.2,5.2,3,5.4c0.4,0.1,0.8,0.1,1.4,0.1c1.5,0,3.3-0.3,4.6-0.7c1.4,4.5,3.5,8.5,5.9,12
				c-0.1,0-0.2,0.1-0.4,0.1c-1.5-0.7-6.7-3.1-8.4-3.9l-3.7-1.6l2.2,3.4c0.2,0.2,3.9,6.1,6.9,10c2.8,3.7,6.7,7.4,14.1,7.4
				c0.9,0,1.8-0.1,2.8-0.2c2.2-0.3,3.8-0.4,5.1-0.6c7.7,2.8,16.2,3,24.3,0c2.2-0.8,4.2-1.9,6.1-3h0.1c3-0.7,6.4-1.5,8.1-2
				c0.3-0.1,0.6-0.2,1-0.2c2.3-0.5,6.3-1.4,8.4-5.6c2.1-4.2,5.5-10.7,5.6-10.7l1.6-3l-3.1,1.4c-0.2,0.1-4.1,1.8-6.2,2.9
				c-0.1,0-0.2,0.1-0.2,0.1c1.7-3.4,2.5-6.1,2.8-7.2c1.2,0.3,2.9,0.2,4.1,0.2c0.6,0,1.3-0.1,1.7-0.2c0.8-0.2,1.4-0.8,2.6-5.3
				c0.7-2.7,1.2-5.6,1.3-7.1c0.3-2.9,0.2-4.5-1-5.5c-0.6-0.5-2.3-1.4-3.2-1.9v-0.3c0.5,0.1,0.7,0.2,0.7,0.2l0.8-3
				c0.3-0.1,0.6-0.2,0.9-0.4c0.5-0.2,1-0.4,1.5-0.6l0.7-0.3c0.2-0.1,0.5-0.2,0.7-0.4l0.3-0.1l0.2-0.3c0.1-0.1,0.1-0.2,0.2-0.3
				l0.2-0.3c0.1-0.2,0.2-0.4,0.3-0.6c0.2-0.4,0.3-0.8,0.5-1.1c0.3-0.8,0.6-1.5,0.8-2.3c0.4-1.6,0.7-3.2,0.9-4.8
				C391.9,69.5,391.9,67.8,391.9,66.2L391.9,66.2z"/>
		</g>
	</g>
</g>
</svg>
