<?xml version="1.0" encoding="utf-8"?>
<!-- Generator: Adobe Illustrator 18.1.1, SVG Export Plug-In . SVG Version: 6.00 Build 0)  -->
<svg version="1.0" id="Layer_1" xmlns="http://www.w3.org/2000/svg" xmlns:xlink="http://www.w3.org/1999/xlink" x="0px" y="0px"
	 viewBox="0 0 960 560" enable-background="new 0 0 960 560" xml:space="preserve">
<g>
	<polygon fill="#FFFFFF" points="441,74.6 428.3,74.6 428.3,68 461.4,68 461.4,74.6 448.8,74.6 448.8,112 441,112 441,74.6 	"/>
	<path fill="#FFFFFF" d="M460.7,79h6.4l0.5,5.9h0.3c2.4-4.3,5.9-6.7,9.4-6.7c1.7,0,2.8,0.2,3.8,0.7l-1.3,6.7c-1.1-0.3-2-0.5-3.4-0.5
		c-2.6,0-5.8,1.8-7.8,6.8V112h-7.7L460.7,79L460.7,79L460.7,79z"/>
	<path fill="#FFFFFF" d="M495,106.8c2.7,0,4.8-1.3,7.2-3.6v-7.4c-9,1.1-11.9,3.5-11.9,6.8C490.3,105.5,492.2,106.8,495,106.8
		L495,106.8z M502.2,90.9c-0.1-3.5-1.5-6.5-6-6.5c-3.3,0-6.4,1.5-9.3,3.2l-2.8-5.2c3.6-2.3,8.3-4.3,13.5-4.3
		c8.3,0,12.3,5.1,12.3,14.3V112h-6.3l-0.6-3.6h-0.2c-3,2.5-6.3,4.4-10.2,4.4c-5.8,0-9.8-3.9-9.8-9.7
		C482.8,96.1,488.7,92.3,502.2,90.9L502.2,90.9z"/>
	<path fill="#FFFFFF" d="M512.2,79h7.9l5.3,17.2c0.9,3.2,1.9,6.6,2.8,10h0.3c0.9-3.4,1.9-6.7,2.8-10l5.3-17.2h7.5L532.6,112h-9
		L512.2,79L512.2,79z"/>
	<path fill="#FFFFFF" d="M547.7,79h7.7V112h-7.7V79L547.7,79z M546.8,68.8c0-2.6,2-4.4,4.8-4.4c2.8,0,4.8,1.8,4.8,4.4
		c0,2.6-2,4.4-4.8,4.4C548.8,73.2,546.8,71.3,546.8,68.8L546.8,68.8z"/>
	<path fill="#FFFFFF" d="M563.5,103.3c3,2.3,5.8,3.7,9.2,3.7c3.6,0,5.2-1.7,5.2-4c0-2.8-3.6-4-7.1-5.3c-4.4-1.6-9.3-4.1-9.3-9.6
		c0-5.8,4.6-9.9,12.1-9.9c4.6,0,8.3,1.9,11,4l-3.6,4.7c-2.3-1.7-4.6-2.8-7.3-2.8c-3.3,0-4.9,1.5-4.9,3.6c0,2.6,3.3,3.6,6.9,4.9
		c4.5,1.7,9.5,3.8,9.5,10c0,5.7-4.5,10.2-12.9,10.2c-4.5,0-9.3-2-12.5-4.6L563.5,103.3L563.5,103.3z"/>
	<path fill="#FFFFFF" d="M623.2,67.2c5.4,0,9.8,2.6,12.5,5.6l-4.3,4.8c-2.3-2.2-4.8-3.6-8.1-3.6c-7.2,0-12.4,6.1-12.4,16
		c0,10,4.8,16.1,12.1,16.1c3.9,0,6.8-1.6,9.3-4.4l4.3,4.8c-3.6,4.1-8.1,6.4-13.7,6.4c-11.2,0-20-8.1-20-22.7
		C602.9,75.7,611.9,67.2,623.2,67.2L623.2,67.2z"/>
	<polygon fill="#FFFFFF" points="641.4,68 649.2,68 649.2,112 641.4,112 641.4,68 	"/>
	<path fill="#E5C9A9" d="M369.8,129c-0.6,0.1-1.2,0.2-1.8,0.2c-0.4,0-0.8,0.1-1.1,0.1l-0.1,0c0.5-1,0.8-1.8,1.1-2.4
		C368.3,127.4,369,128.2,369.8,129L369.8,129z"/>
	<path fill="#B19F8A" d="M369.1,83.5c-0.9,0.8-1.9,1.4-2.9,2.1l-3.4,2c-2.1,0.3-4,0.8-4.1,0.8c-0.1,0-0.1,0-0.2,0.1
		c-0.2,0.1-0.3,0.3-0.3,0.4l-3.4,11.3l-18.4,4.1l-5.8-4.1l-1.7-13.7c3.3-0.6,7.7-1.3,13-1.9c-0.6,0.7-1.1,1.4-1.6,2.1l-3.1,4.5
		l4.6-3.1c0.1,0,3-2,7.8-4.3c4.8-0.4,10-0.6,15.6-0.6C366.4,83.5,367.7,83.5,369.1,83.5L369.1,83.5z M340.4,98.9
		c1.3-0.7,2.8-0.6,5.1-0.6c0.2,0,0.5,0,0.8,0c0.2,0,0.5,0,0.7,0c2.4,0,4.4,0.2,4.3-3.5c0-3.7-1.7-6.8-4.1-6.7
		c-2.4,0-4.7,3.1-4.5,6.8c0,1,0.2,1.7,0.4,2.2C341,97.5,340.4,98.8,340.4,98.9L340.4,98.9z"/>
	<path fill="#B19F8A" d="M400.9,86.6l-1.7,11.6l-5.8,4.1l-18.4-2.1l-3.4-11.3c-0.1-0.3-0.3-0.4-0.5-0.5c-0.1,0-2.4-0.7-4.8-0.9
		l0.4,0c0.4,0,6.7-0.8,14.3-3.4C389.4,84.7,396.3,85.8,400.9,86.6L400.9,86.6z M389.2,97.4c0-0.1-0.5-1.6-2.7-1.3
		c0.3-0.6,0.4-1.3,0.3-2.3c-0.3-3.7-2.5-6.7-4.8-6.6c-2.4,0.1-3.9,3.2-3.8,6.9c0.1,3.7,2.1,3.7,4.5,3.6
		C385.8,97.6,387.6,96.6,389.2,97.4L389.2,97.4z"/>
	<path fill="#FFFFFF" d="M382.9,90.7c0,0.7-0.5,1.2-1.2,1.2c-0.7,0-1.2-0.5-1.2-1.2c0-0.7,0.5-1.2,1.2-1.2
		C382.4,89.4,382.9,90,382.9,90.7L382.9,90.7z"/>
	<path fill="#FFFFFF" d="M348.8,91.5c0,0.7-0.5,1.2-1.2,1.2c-0.7,0-1.2-0.5-1.3-1.2c0-0.7,0.5-1.2,1.2-1.2
		C348.2,90.3,348.8,90.9,348.8,91.5L348.8,91.5z"/>
	<path fill="#E5C9A9" d="M409,91.7c-0.3-0.2-1.2-0.8-2.2-1.3l-1.5,10.8c0,0.2-0.1,0.4-0.3,0.5l-2.2,1.5c-0.1,0.3-0.1,0.5-0.1,0.7
		c2.2,0.5,4.3-1,5.4-2.2c0.5-2.1,1-4.7,1.2-6.5C409.5,92.6,409.3,92,409,91.7L409,91.7z"/>
	<path fill="#E5C9A9" d="M374.9,132.7c-1.4-0.5-2.7-1.3-3.9-2.5c-0.1-0.1-0.2-0.2-0.3-0.3c-0.9,0.2-1.8,0.3-2.7,0.4
		c-0.4,0-0.8,0.1-1.2,0.1l-0.6,0l-0.2,0c-1.4,2-3.7,3.1-5.5,3.7C366,135.1,371.9,133.7,374.9,132.7L374.9,132.7z"/>
	<path fill="#E5C9A9" d="M327.9,106.3c0-0.2-0.1-0.3-0.1-0.5l-2.9-2c-0.2-0.1-0.3-0.3-0.3-0.5l-1.4-11.3c-1,0.6-2.2,1.2-2.5,1.5
		c-0.3,0.2-0.5,0.8-0.2,3.5c0.2,2,0.9,5.1,1.7,7.5l0,0C323.5,105.5,325.7,106.7,327.9,106.3L327.9,106.3z"/>
	<path fill="#FFFFFF" d="M335.3,110.8c-0.1,0-0.1,0-0.2,0h0C335.2,110.8,335.2,110.8,335.3,110.8L335.3,110.8z"/>
	<path fill="#FFFFFF" d="M330.1,107.5c0,0.1,0,0.1,0.1,0.2C330.1,107.6,330.1,107.5,330.1,107.5L330.1,107.5L330.1,107.5z"/>
	<path fill="#E5C9A9" d="M370.7,105.8c-0.3,0-0.6-0.2-0.6-0.5l-3.5-11.6c-0.6-0.1-1.1-0.1-1.6-0.1c-0.4,0-1,0-1.6,0.1l-3.4,11.3
		c-0.1,0.3-0.3,0.5-0.6,0.5l-1.6,0.4c-0.1,0.6-0.6,1.4-2.1,1.9c-2.5,0.7-18,5.4-19.8,5.1c-1-0.1-3-1.2-4.5-2.1
		c-0.6-1.4-0.9-2.3-1-2.5v0l0,0c0.2,0.6,2.2,6.4,6.4,12.2c4.4-1.3,8.2-2.5,9.5-2.9c2.5-3.8,6-7.6,8.5-7.8c0.4,0,0.9,0,1.3,0
		c1.2,0,2.4,0.1,3.5,0.2c-0.9-0.8-1.1-1.8-1.3-2.3c0,0,3.2,2.5,7.3,2c4.1-0.5,6.6-2.9,6.6-2.9l0.1-0.7L370.7,105.8L370.7,105.8z"/>
	<polygon fill="#FFFFFF" points="333.8,110.1 334.7,110.7 333.8,110.1 331.2,108.2 331.2,108.2 333.8,110.1 	"/>
	<path fill="#E5C9A9" d="M374,107.3c-0.8-0.2-1.4-0.6-1.7-0.9l0,0.4c0,0,0,1.7-1.8,3c3.4-1,4.8-1.4,5.8-1.4c1.1,0,1.6,0.4,2.1,0.8
		c0.1,0.1,0.2,0.1,0.3,0.2c2.6,2.1,5.8,4.6,6.7,5.3c1.1,0.1,4.5,0.5,6.6,0.7c1.2,0.1,2.4,0.2,3.4,0.2c0.4,0,0.7,0,1,0
		c1.1-2.2,2.2-4.6,3.1-7.2c-1.3,0.9-4.2,2.8-5.5,3.1C392.2,111.9,376.5,107.9,374,107.3L374,107.3z"/>
	<path fill="#FFFFFF" d="M399.5,108.4c0.1-0.3,0.2-0.6,0.3-0.9C399.7,107.8,399.6,108.1,399.5,108.4L399.5,108.4z"/>
	<path fill="#FFFFFF" d="M395,108.5c0,0-0.1,0-0.1,0C394.9,108.5,395,108.5,395,108.5L395,108.5z"/>
	<path fill="#E2DB9B" d="M413.6,66.5c0-0.4-0.1-0.7-0.1-1.1c0-0.3-0.1-0.5-0.1-0.8c-1-0.8-2.1-1.6-3.3-2.3c-1.3-0.7-2.6-1.4-4-2
		c-1.4-0.6-2.7-1.2-4.1-1.8c-0.7-0.3-1.4-0.6-2.1-0.8c-0.7-0.3-1.4-0.5-2.1-0.8c1.5,0.2,3,0.6,4.4,1c1,0.2,1.9,0.5,2.9,0.8
		c-6.7-17.6-22.8-29-40.3-29c-17.5,0-33.6,11.4-40.3,29c0.9-0.3,1.9-0.6,2.8-0.8c1.5-0.4,3-0.7,4.4-1c-0.7,0.3-1.4,0.5-2.1,0.8
		c-0.7,0.3-1.4,0.5-2.1,0.8c-1.4,0.6-2.8,1.1-4.1,1.8c-1.4,0.6-2.7,1.3-4,2c-1.2,0.7-2.3,1.4-3.3,2.3c0,0.3-0.1,0.5-0.1,0.8
		c0,0.4-0.1,0.7-0.1,1.1c-0.1,0.7-0.1,1.5-0.1,2.3c0,1.5,0.1,3,0.3,4.5c0.2,1.5,0.5,3,0.9,4.4c0.2,0.7,0.4,1.4,0.7,2.1
		c0.1,0.3,0.3,0.7,0.4,1c0.1,0.2,0.1,0.3,0.2,0.5l0.1,0.2c0.1,0.1,0.2,0.1,0.3,0.2l0.7,0.3c0.4,0.2,0.9,0.4,1.3,0.6c0,0,0,0,0.1-0.1
		l-1.2-4.7c0.3-0.1,2.6-0.7,6.7-1.5c-0.3-0.1-0.7-0.1-1-0.2c-0.9-0.2-1.8-0.5-2.7-0.9c-0.4-0.2-0.9-0.4-1.3-0.6
		c-0.4-0.2-0.8-0.5-1.1-0.9c4.5,1.5,13.7,0.8,21.8,0c7.5-0.8,15-1.3,22.5-1.3c7.5,0,15,0.5,22.5,1.3c8.2,0.8,17.4,1.5,21.8,0
		c-0.3,0.4-0.7,0.6-1.1,0.9c-0.4,0.2-0.8,0.4-1.3,0.6c-0.9,0.4-1.8,0.6-2.7,0.9c-0.1,0-0.3,0.1-0.4,0.1c4.4,0.8,7,1.5,7.3,1.6
		l-1.2,4.5c0.2-0.1,0.5-0.2,0.7-0.3l0.7-0.3c0.1-0.1,0.2-0.1,0.3-0.2l0.1-0.2c0.1-0.2,0.2-0.3,0.2-0.5c0.2-0.3,0.3-0.7,0.4-1
		c0.3-0.7,0.5-1.4,0.7-2.1c0.4-1.4,0.7-2.9,0.9-4.4c0.2-1.5,0.3-3,0.3-4.5C413.7,68,413.7,67.3,413.6,66.5L413.6,66.5z"/>
	<path fill="#DDC68A" d="M383.2,57.8c0.1,2,0,5.7-0.9,9.1c0,0.1,0,0.3,0,0.4c-1.2-0.1-2.4-0.2-3.6-0.3c1.3-2.8,1.6-5.8,1.7-6.8
		C381.4,59.4,382.4,58.5,383.2,57.8L383.2,57.8z"/>
	<path fill="#DDC68A" d="M349.1,60.1c0.1,1.1,0.4,4,1.7,6.8c-1.2,0.1-2.4,0.2-3.6,0.3c0-0.1,0-0.3,0-0.4c-0.9-3.4-1-7-0.9-9.1
		C347,58.5,348,59.4,349.1,60.1L349.1,60.1z"/>
	<path fill="#DDC68A" d="M403.1,72.3C403.1,72.4,403.1,72.4,403.1,72.3L403.1,72.3L403.1,72.3z"/>
	<path fill="#DDC68A" d="M397.8,70.1C397.8,70.1,397.8,70.1,397.8,70.1c0.1,0.1,0.2,0.2,0.4,0.2c1.1,0.4,2.2,0.7,3.3,1.2
		c-1.8-1.1-2.9-4.4-3.5-7C398.1,67.8,397.8,69.9,397.8,70.1L397.8,70.1z"/>
	<path fill="#DDC68A" d="M402.9,72.3c0.1,0,0.2,0.1,0.2,0.1C403.1,72.3,403,72.3,402.9,72.3L402.9,72.3z"/>
	<path fill="#DDC68A" d="M402.5,72.1c0.2,0.1,0.3,0.2,0.4,0.2C402.8,72.2,402.7,72.1,402.5,72.1L402.5,72.1z"/>
	<path fill="#DDC68A" d="M402.5,72.1C402.5,72.1,402.5,72,402.5,72.1L402.5,72.1C402.5,72,402.5,72.1,402.5,72.1L402.5,72.1z"/>
	<path fill="#DDC68A" d="M344.8,57.2l-11.4,3.2c-0.7,4.4-0.5,7.8-0.4,9l0.1,0c0,0,0.4-4.8,1.1-6.7c0.4-0.9,2.8-1.6,4.6-2
		c1.8-0.4,4.7-1.3,5.3,1.3c0.3,1.6,0.8,2.9,1.3,3.9C344.7,62.3,344.7,58.9,344.8,57.2L344.8,57.2z"/>
	<path fill="#DDC68A" d="M384.6,57.2c0.1,1.8,0.1,5.4-0.7,9c0.5-1,1.1-2.5,1.5-4.3c0.6-2.6,3.5-1.7,5.3-1.3c1.8,0.4,4.2,1,4.6,2
		c0.6,1.6,1,5.3,1.1,6.4c0.1-1.4,0.2-4.6-0.4-8.6L384.6,57.2L384.6,57.2z"/>
	<path fill="#DDC68A" d="M349,58.2c0.4,0.3,0.8,0.6,1.2,0.9c0.2,0.1,0.3,0.4,0.3,0.6c0,0,0.1,3.8,1.7,7c0,0,0,0.1,0.1,0.1
		c4.1-0.3,8.2-0.4,12.4-0.4c4.1,0,8.3,0.1,12.4,0.4c0-0.1,0-0.1,0.1-0.2c1.7-3.2,1.7-6.9,1.7-7c0-0.2,0.1-0.5,0.3-0.6
		c0.4-0.3,0.8-0.6,1.2-0.9l0.1-0.1c0.9-8.4-0.7-16.1-1.7-19.9c-0.1,2.6-0.7,25-6.2,25c-5.9,0-7.1,0-7.1,0h-1.2c0,0-1.2,0-7.1,0
		c-5.9,0-6.4-25.2-6.4-25.2l-0.3,0.9C349.5,42.8,348.1,50.2,349,58.2L349,58.2z"/>
	<path fill="#DDC68A" d="M382.6,52l-0.1-0.3c0,0.2,0,0.3,0,0.5L382.6,52L382.6,52z"/>
	<path fill="#DDC68A" d="M326.3,72.3C326.3,72.4,326.3,72.4,326.3,72.3L326.3,72.3L326.3,72.3z"/>
	<path fill="#DDC68A" d="M326.9,72.1C326.9,72,327,72,326.9,72.1L326.9,72.1C327,72,326.9,72,326.9,72.1L326.9,72.1z"/>
	<path fill="#DDC68A" d="M326.9,72.1c-0.2,0.1-0.3,0.1-0.4,0.2C326.6,72.2,326.7,72.1,326.9,72.1L326.9,72.1z"/>
	<path fill="#DDC68A" d="M326.5,72.3c-0.1,0-0.2,0.1-0.2,0.1C326.3,72.3,326.4,72.3,326.5,72.3L326.5,72.3z"/>
	<path fill="#DDC68A" d="M331.7,70.1C331.7,70.1,331.7,70.1,331.7,70.1c0-0.2-0.3-2.3-0.2-5.6c-0.6,2.5-1.7,5.8-3.5,7
		c1.1-0.5,2.2-0.9,3.3-1.2C331.4,70.2,331.5,70.2,331.7,70.1L331.7,70.1z"/>
	<path fill="#A89480" d="M402.6,104c-0.1,0.5-0.2,0.9-0.3,1.5c1.3,0.3,3.3,0.5,4.3,0.3c0.4-0.5,1-2.1,1.5-4
		C406.9,102.9,404.8,104.5,402.6,104L402.6,104z"/>
	<path fill="#A89480" d="M357.3,134.9c3,0.8,6.1,1.2,9.1,1c3-0.2,7-0.9,11.2-2.6c-0.9-0.1-1.9-0.3-2.7-0.6c-3.1,0.9-9,2.3-14.3,1.4
		c-1.4,0.5-2.5,0.6-2.6,0.6C357.8,134.8,357.6,134.8,357.3,134.9L357.3,134.9z"/>
	<path fill="#A89480" d="M328.1,107c-0.1-0.2-0.1-0.5-0.2-0.7c-2.2,0.4-4.3-0.8-5.8-1.9c0.5,1.5,0.9,2.7,1.3,3
		C324.5,107.7,326.9,107.3,328.1,107L328.1,107z"/>
	<path fill="#A89480" d="M331.3,110.7c1.5,0.9,3.4,2,4.5,2.1c1.8,0.3,17.3-4.4,19.8-5.1c1.5-0.5,2-1.3,2.1-1.9l-22.4,5
		c-0.1,0-0.1,0-0.2,0h0h0c-0.2,0-0.3,0-0.4-0.1l-0.9-0.6l-2.6-1.8v0v0l-1.1-0.7c0,0.1,0,0.1,0.1,0.2c0.1,0.2,0.1,0.4,0.2,0.5v0
		C330.4,108.4,330.7,109.3,331.3,110.7L331.3,110.7z"/>
	<path fill="#A89480" d="M400.2,106.4c0.1-0.5,0.3-1.1,0.4-1.6l-0.8,0.5l-2.1,1.5l-2.3,1.6c-0.1,0.1-0.3,0.1-0.4,0.1
		c0,0-0.1,0-0.1,0l-22.6-2.6l0,0.4c0.3,0.4,0.9,0.7,1.7,0.9c2.5,0.6,18.2,4.6,20,4.3c1.4-0.3,4.2-2.2,5.5-3.1c0,0,0-0.1,0-0.1
		c0.1-0.3,0.2-0.6,0.3-0.9C399.9,107.1,400,106.8,400.2,106.4L400.2,106.4z"/>
	<path fill="#767172" d="M376.2,76c-0.2,0.2-0.4,0.5-0.6,0.7c-1.1,1.4-2.6,3.1-4.3,4.8c-2.1-0.1-4.2-0.1-6.3-0.1
		c-3.6,0-7,0.1-10.3,0.3c4.6-1.9,10.1-3.8,16.1-4.9C372.6,76.4,374.4,76.1,376.2,76L376.2,76z"/>
	<path fill="#767172" d="M349.3,78c-1.6,1.2-3.5,2.6-5.3,4.4c-4.6,0.5-8.6,1-12,1.6C337.1,81.7,342.9,79.5,349.3,78L349.3,78z"/>
	<path fill="#767172" d="M405.6,87.6l-1.9,13.1l-9,6.3l-23.4-2.7l-3.5-11.6c-0.1-0.3-0.3-0.5-0.6-0.5c-0.9-0.1-1.6-0.2-2.3-0.2
		c-0.6,0-1.4,0.1-2.3,0.2c-0.3,0-0.5,0.3-0.6,0.5l-3.4,11.3l-23.3,5.2l-9.2-6.5L324.2,88c0.4-0.2,0.8-0.4,1.2-0.7
		c0.6-0.1,1.2-0.3,1.9-0.4l1.7,13.9c0,0.2,0.1,0.4,0.3,0.5l6.4,4.5c0.1,0.1,0.3,0.1,0.4,0.1c0.1,0,0.1,0,0.2,0l19.2-4.3
		c0.1,0,0.1,0,0.2-0.1c0.2-0.1,0.3-0.3,0.4-0.5l3.5-11.4c0.9-0.2,3.3-0.8,5.4-0.8c2.1,0,4.5,0.6,5.4,0.8l3.5,11.4
		c0.1,0.3,0.3,0.5,0.6,0.5l19.2,2.2c0.2,0,0.4,0,0.5-0.1l6.4-4.4c0.2-0.1,0.3-0.3,0.3-0.5l1.7-11.9
		C403.7,87.1,404.8,87.4,405.6,87.6L405.6,87.6z"/>
	<path fill="#767172" d="M408,79.3l-1.7,6.3c-3.4-0.7-10.8-2.2-20.9-3.2c3.3-1.4,6.7-3.2,9.7-5.4C401.2,77.9,405.6,78.8,408,79.3
		L408,79.3z"/>
	<path fill="#767172" d="M322,79.3l0.5,1.7c1.3-1,2.5-1.9,3.5-2.5C324.3,78.8,323,79.1,322,79.3L322,79.3z"/>
	<path fill="#A41E29" d="M392.2,76.2C392.2,76.2,392.2,76.2,392.2,76.2c-1.1-0.1-2.2-0.2-3.3-0.2C390,76,391.1,76.1,392.2,76.2
		C392.2,76.2,392.2,76.2,392.2,76.2L392.2,76.2z"/>
	<path fill="#A41E29" d="M384.1,80.8c2.5-1.1,5.1-2.5,7.5-4.2C389.2,78.3,386.7,79.7,384.1,80.8L384.1,80.8z"/>
	<path fill="#A41E29" d="M386.8,75.8c-2.5-0.1-5.1-0.3-7.6-0.4c-0.1,0.2-0.4,0.6-0.9,1.2c-1.4,1.8-4,5.2-7.4,8
		c2.6-0.8,12.8-4.2,18-8.8C388.1,75.9,387.5,75.9,386.8,75.8L386.8,75.8z"/>
	<path fill="#A41E29" d="M358,78.1c-0.2,0.1-0.4,0.1-0.5,0.2C357.7,78.3,357.8,78.2,358,78.1L358,78.1z"/>
	<path fill="#A41E29" d="M359.2,77.7c-0.2,0.1-0.4,0.1-0.6,0.2C358.8,77.9,359,77.8,359.2,77.7L359.2,77.7z"/>
	<path fill="#A41E29" d="M356.9,78.6c-0.2,0.1-0.3,0.1-0.5,0.2C356.6,78.7,356.7,78.6,356.9,78.6L356.9,78.6z"/>
	<path fill="#A41E29" d="M355.8,79c-0.1,0-0.3,0.1-0.4,0.2C355.5,79.1,355.7,79,355.8,79L355.8,79z"/>
	<path fill="#A41E29" d="M360.4,77.3c-0.2,0.1-0.5,0.2-0.7,0.2C359.9,77.5,360.2,77.4,360.4,77.3L360.4,77.3z"/>
	<path fill="#A41E29" d="M364.7,76c-0.9,0.2-1.8,0.5-2.6,0.8C362.9,76.5,363.8,76.3,364.7,76L364.7,76z"/>
	<path fill="#A41E29" d="M362,76.8c-0.4,0.1-0.8,0.2-1.2,0.4C361.2,77.1,361.6,76.9,362,76.8L362,76.8z"/>
	<path fill="#A41E29" d="M353.7,79.8C353.7,79.8,353.7,79.8,353.7,79.8C353.7,79.8,353.7,79.8,353.7,79.8L353.7,79.8z"/>
	<path fill="#A41E29" d="M354.7,79.4c-0.1,0-0.2,0.1-0.3,0.1C354.6,79.5,354.7,79.4,354.7,79.4L354.7,79.4z"/>
	<path fill="#A41E29" d="M368.3,75.2C368.3,75.2,368.3,75.2,368.3,75.2c-1.3,0-2.6,0-3.8,0h0c-1.9,0-3.8,0-5.6,0.1l-3.5,1.6
		c0,0,0,0-0.1,0c-0.5,0.3-5.1,2.6-9.4,6.7c0.4-0.2,0.8-0.4,1.2-0.6c2.3-1.6,8.6-5.3,18.4-7.8C366.4,75.1,367.3,75.1,368.3,75.2
		L368.3,75.2z"/>
	<path fill="#A41E29" d="M346.9,75.6c-1.6,0.1-3.2,0.2-4.8,0.2c-1.9,0.1-3.7,0.2-5.6,0.4c-0.9,0.1-1.9,0.2-2.8,0.2
		c-0.3,0-0.5,0.1-0.8,0.1c-2.4,1.4-11.7,7.3-18.1,14.9c0.1-0.1,0.2-0.3,0.3-0.4C327,81,339.9,77,346.9,75.6L346.9,75.6z"/>
	<path fill="#A41E29" d="M343.9,77.3c-12.8,3.8-23.1,10-29.1,14.2C320.8,87.3,331.2,81.1,343.9,77.3L343.9,77.3z"/>
	<path fill="#A41E29" d="M345.2,76.9c2.1-0.6,4.3-1.1,6.6-1.5c0,0,0,0,0,0C349.5,75.8,347.3,76.3,345.2,76.9L345.2,76.9z"/>
	<rect x="399.3" y="119.3" fill="#A41E29" width="0" height="0"/>
	<path fill="#A41E29" d="M402.1,116.2c0.1,0,0.1-0.1,0.2-0.1C402.2,116.1,402.1,116.1,402.1,116.2L402.1,116.2z"/>
	<path fill="#A41E29" d="M402.5,116c0,0,0.1,0,0.1-0.1C402.6,115.9,402.6,115.9,402.5,116L402.5,116z"/>
	<path fill="#A41E29" d="M401.3,116.5c0.1,0,0.2-0.1,0.3-0.1C401.5,116.5,401.4,116.5,401.3,116.5L401.3,116.5z"/>
	<path fill="#A41E29" d="M401,116.7c0.1,0,0.2-0.1,0.3-0.1C401.1,116.6,401.1,116.7,401,116.7L401,116.7z"/>
	<path fill="#A41E29" d="M367.5,122.8L367.5,122.8c0.1,0.1,0.1,0.1,0.2,0.2C367.6,122.9,367.5,122.8,367.5,122.8L367.5,122.8z"/>
	<path fill="#A41E29" d="M401.7,116.4c0.1,0,0.2-0.1,0.2-0.1C401.8,116.3,401.8,116.3,401.7,116.4L401.7,116.4z"/>
	<path fill="#A41E29" d="M400.3,117L400.3,117C400.4,117,400.4,117,400.3,117C400.4,117,400.4,117,400.3,117L400.3,117z"/>
	<path fill="#A41E29" d="M400.4,117c0.1,0,0.1-0.1,0.2-0.1C400.5,116.9,400.5,117,400.4,117L400.4,117z"/>
	<path fill="#A41E29" d="M400.6,116.9c0.1-0.1,0.2-0.1,0.3-0.2C400.8,116.8,400.7,116.8,400.6,116.9L400.6,116.9z"/>
	<path fill="#A41E29" d="M400.3,117c-0.1,0-0.1,0.1-0.2,0.1c-1.2,0.6-2.7,0.9-4.7,0.9c-1.2,0-2.4-0.1-3.7-0.2c-2.6-0.2-7-0.8-7-0.8
		l-0.3,0l-0.3-0.2c0,0-3.9-3.1-7-5.5c-0.1-0.1-0.2-0.2-0.3-0.3c-0.3-0.3-0.3-0.3-0.5-0.3c-1,0-3.9,0.9-10.2,2.9l-0.4,0.1l-0.4-0.1
		c0,0-4.2-1.6-9.2-1.6c-0.4,0-0.8,0-1.2,0c-0.5,0-3.3,1.4-6.9,7l-0.2,0.4l-0.4,0.1c-0.1,0-6.2,2-12.8,3.9l-0.4,0.1l-0.4-0.2
		c0,0-2.6-1.2-5-2.3c0.2,0.1,0.4,0.2,0.5,0.2c2.4,2.1,7,6.1,7.5,6.6c0.1,0.1,0.2,0.2,0.3,0.3c-0.1-0.1-0.2-0.3-0.3-0.4c0,0,0,0,0,0
		l0,0l0,0c1.1,1,2.2,1.9,3.5,2.5c0.6,0.3,1.3,0.5,2,0.7c0.3,0.1,0.7,0.1,1,0.1c0.4,0,0.7,0,1.1,0c1.4-0.1,2.9-0.2,4.3-0.3
		c1.4-0.1,2.9-0.3,4.3-0.5c1.4-0.2,2.9-0.3,4.3-0.6c0.7-0.1,1.4-0.2,2.1-0.4c0.3-0.1,0.7-0.2,1-0.3c0.2-0.1,0.5-0.4,0.8-0.6
		c0.5-0.5,1.1-1,1.6-1.5c0.5-0.5,1-1,1.5-1.6c0.8-0.9,1.6-1.8,2.4-2.7c0.1-0.1,0.2-0.2,0.3-0.4c0,0,0,0,0,0l0,0
		c0.2,0.1,0.3,0.2,0.5,0.4c1,0.7,2,1.5,3,2.2c1.3,0.9,2.6,1.8,3.9,2.5c0.3,0.2,0.7,0.4,1,0.5c0,0,0.1,0,0.1,0c0,0,0.1,0,0.1,0
		c0.1,0,0.2,0,0.2,0c0.2,0,0.4,0,0.5,0c0.7-0.1,1.5-0.2,2.3-0.3c1.5-0.2,3-0.5,4.6-0.8c1.5-0.3,3-0.6,4.5-0.9c1.5-0.3,3-0.7,4.5-1.1
		c0.7-0.2,1.5-0.4,2.2-0.7c0.7-0.3,1.3-0.7,1.9-1.2c1.2-1,2.2-2.2,3-3.6c0,0,0,0,0,0C399.8,118.4,400.1,117.6,400.3,117L400.3,117z"
		/>
	<polygon fill="#A41E29" points="372,45.6 374.7,45.6 374.7,40.2 371.8,40.2 366.5,40.2 355.2,40.2 355.2,45.6 357.8,45.6 
		357.8,42.9 363.4,42.9 363.4,59.6 361.1,59.6 361.1,62.8 368.8,62.8 368.8,59.6 366.5,59.6 366.5,42.9 372,42.9 372,45.6 	"/>
	<path fill="#87172C" d="M384.1,80.8c-5.1,2.3-10.1,3.5-13.4,4.1C374,84.3,379,83.1,384.1,80.8L384.1,80.8z"/>
	<path fill="#87172C" d="M370.9,84.7c-0.1,0-0.1,0.1-0.1,0.1C370.8,84.8,370.8,84.8,370.9,84.7L370.9,84.7L370.9,84.7z"/>
	<path fill="#87172C" d="M388.8,76L388.8,76C388.9,76,388.9,76,388.8,76C388.9,76,388.9,76,388.8,76L388.8,76z"/>
	<path fill="#87172C" d="M392.2,76.2c-0.2,0.1-0.4,0.3-0.6,0.4C391.9,76.5,392,76.3,392.2,76.2L392.2,76.2z"/>
	<path fill="#87172C" d="M392.2,76.2C392.2,76.2,392.2,76.2,392.2,76.2c-1.1-0.1-2.2-0.2-3.3-0.2c0,0,0,0-0.1,0
		c-5.2,4.5-15.4,8-18,8.8c-0.1,0-0.1,0.1-0.1,0.1c3.3-0.6,8.3-1.8,13.4-4.1c2.5-1.1,5.1-2.5,7.5-4.2C391.9,76.5,392,76.3,392.2,76.2
		L392.2,76.2z"/>
	<path fill="#87172C" d="M347,82.9c1.9-1,4.1-2,6.6-3.1C351.2,80.9,348.9,82,347,82.9C347,82.9,347,82.9,347,82.9L347,82.9z"/>
	<path fill="#87172C" d="M359.7,77.6c-0.2,0.1-0.3,0.1-0.5,0.2C359.4,77.7,359.5,77.6,359.7,77.6L359.7,77.6z"/>
	<path fill="#87172C" d="M368.3,75.2c-1.2,0.3-2.4,0.6-3.6,0.9C365.8,75.7,367,75.4,368.3,75.2C368.3,75.2,368.3,75.2,368.3,75.2
		L368.3,75.2z"/>
	<path fill="#87172C" d="M360.8,77.2c-0.1,0-0.3,0.1-0.4,0.1C360.6,77.3,360.7,77.2,360.8,77.2L360.8,77.2z"/>
	<path fill="#87172C" d="M357.5,78.3c-0.2,0.1-0.4,0.1-0.6,0.2C357.1,78.5,357.3,78.4,357.5,78.3L357.5,78.3z"/>
	<path fill="#87172C" d="M356.4,78.7c-0.2,0.1-0.4,0.2-0.6,0.2C356,78.9,356.2,78.8,356.4,78.7L356.4,78.7z"/>
	<path fill="#87172C" d="M355.4,79.1c-0.2,0.1-0.5,0.2-0.7,0.3C355,79.3,355.2,79.2,355.4,79.1L355.4,79.1z"/>
	<path fill="#87172C" d="M354.5,79.5c-0.3,0.1-0.5,0.2-0.8,0.3C354,79.7,354.2,79.6,354.5,79.5L354.5,79.5z"/>
	<path fill="#87172C" d="M358.6,78c-0.2,0.1-0.4,0.1-0.5,0.2C358.2,78.1,358.4,78,358.6,78L358.6,78z"/>
	<path fill="#87172C" d="M365.4,75.1c-9.7,2.5-16,6.2-18.4,7.8c1.9-1,4.1-2,6.6-3.1c0,0,0,0,0,0c0.3-0.1,0.5-0.2,0.8-0.3
		c0.1,0,0.2-0.1,0.3-0.1c0.2-0.1,0.5-0.2,0.7-0.3c0.1,0,0.3-0.1,0.4-0.2c0.2-0.1,0.4-0.2,0.6-0.2c0.2-0.1,0.3-0.1,0.5-0.2
		c0.2-0.1,0.4-0.1,0.6-0.2c0.2-0.1,0.4-0.1,0.5-0.2c0.2-0.1,0.4-0.1,0.5-0.2c0.2-0.1,0.4-0.1,0.6-0.2c0.2-0.1,0.3-0.1,0.5-0.2
		c0.2-0.1,0.5-0.2,0.7-0.2c0.1,0,0.3-0.1,0.4-0.1c0.4-0.1,0.8-0.3,1.2-0.4c0.9-0.3,1.7-0.5,2.6-0.8c1.2-0.3,2.4-0.6,3.6-0.9
		C367.3,75.1,366.4,75.1,365.4,75.1L365.4,75.1z"/>
	<path fill="#87172C" d="M351.7,75.4c-1.6,0.1-3.2,0.1-4.8,0.2l0,0C348.5,75.5,350.1,75.4,351.7,75.4
		C351.7,75.4,351.7,75.4,351.7,75.4L351.7,75.4z"/>
	<path fill="#87172C" d="M346.9,75.6C339.9,77,327,81,315.2,91c-0.1,0.1-0.2,0.3-0.3,0.4c6-4.2,16.3-10.4,29.1-14.2
		c0.4-0.1,0.8-0.2,1.2-0.4c2.1-0.6,4.3-1.1,6.5-1.5C350.1,75.4,348.5,75.5,346.9,75.6L346.9,75.6z"/>
	<path fill="#87172C" d="M400.9,116.7C400.9,116.7,400.9,116.7,400.9,116.7C400.9,116.7,400.9,116.7,400.9,116.7L400.9,116.7z"/>
	<path fill="#87172C" d="M402.5,116.6c0.1-0.2,0.2-0.4,0.3-0.6c0,0,0,0,0,0C402.8,116.2,402.7,116.4,402.5,116.6L402.5,116.6z"/>
	<path fill="#87172C" d="M401.2,116.6C401.3,116.6,401.3,116.6,401.2,116.6C401.3,116.6,401.3,116.6,401.2,116.6L401.2,116.6z"/>
	<polygon fill="#87172C" points="367.5,122.8 368.4,123.8 367.5,122.8 367.5,122.8 	"/>
	<path fill="#87172C" d="M402.5,116.6c-0.7,1.2-1.4,2.7-2.1,4C401.2,119.3,401.9,117.9,402.5,116.6L402.5,116.6z"/>
	<path fill="#87172C" d="M392.3,127.9c-0.4,0.1-0.7,0.2-1.1,0.3C391.5,128,391.9,127.9,392.3,127.9L392.3,127.9z"/>
	<path fill="#87172C" d="M392.3,127.9c2.2-0.5,5.2-1.2,6.8-4.4C397.4,126.7,394.4,127.3,392.3,127.9L392.3,127.9z"/>
	<rect x="399.3" y="119.3" fill="#87172C" width="0" height="0"/>
	<path fill="#87172C" d="M400.5,120.6c-0.5,1-1,2-1.4,2.8C399.5,122.6,400,121.6,400.5,120.6L400.5,120.6z"/>
	<path fill="#87172C" d="M402.3,116.1c0.1,0,0.2-0.1,0.2-0.1C402.4,116,402.4,116,402.3,116.1L402.3,116.1z"/>
	<path fill="#87172C" d="M368.4,123.9c0.4,0.5,2.2,2.5,4.3,4.6c1.6,1.6,3.5,2.4,5.7,2.4c-2.2,0-4.1-0.8-5.7-2.4
		C370.6,126.5,368.9,124.4,368.4,123.9L368.4,123.9z"/>
	<path fill="#87172C" d="M401.6,116.4c0,0,0.1,0,0.1,0C401.6,116.4,401.6,116.4,401.6,116.4L401.6,116.4z"/>
	<path fill="#87172C" d="M402.6,115.9c0.1-0.1,0.2-0.1,0.4-0.2C402.9,115.8,402.8,115.9,402.6,115.9L402.6,115.9z"/>
	<path fill="#87172C" d="M401.9,116.2c0.1,0,0.1-0.1,0.2-0.1C402,116.2,402,116.2,401.9,116.2L401.9,116.2z"/>
	<path fill="#87172C" d="M380.8,130.7c0.7-0.2,1.5-0.4,2.4-0.6c2.5-0.6,5.2-1.2,7-1.7c-1.8,0.5-4.5,1.1-7,1.7
		C382.4,130.3,381.6,130.5,380.8,130.7L380.8,130.7z"/>
	<path fill="#87172C" d="M402.6,115.9c0,0-0.1,0-0.1,0.1c-0.1,0-0.2,0.1-0.2,0.1c-0.1,0-0.1,0.1-0.2,0.1c-0.1,0-0.1,0.1-0.2,0.1
		c-0.1,0-0.2,0.1-0.2,0.1c0,0-0.1,0-0.1,0c-0.1,0-0.2,0.1-0.3,0.1c0,0,0,0-0.1,0c-0.1,0-0.2,0.1-0.3,0.1c0,0,0,0,0,0
		c-0.2,0.1-0.4,0.2-0.6,0.3c-0.2,0.6-0.5,1.4-1,2.3l0,0c0,0,0,0,0,0c0,0,0,0,0,0c-0.8,1.3-1.8,2.6-3,3.6c-0.6,0.5-1.2,0.9-1.9,1.2
		c-0.7,0.3-1.4,0.5-2.2,0.7c-1.5,0.4-3,0.7-4.5,1.1c-1.5,0.3-3,0.6-4.5,0.9c-1.5,0.3-3,0.6-4.6,0.8c-0.8,0.1-1.5,0.2-2.3,0.3
		c-0.2,0-0.4,0-0.5,0c-0.1,0-0.2,0-0.2,0c0,0-0.1,0-0.1,0c0,0-0.1,0-0.1,0c-0.3-0.1-0.7-0.3-1-0.5c-1.3-0.7-2.6-1.6-3.9-2.5
		c-1-0.7-2-1.5-3-2.2l-0.1,0.1l0,0c0.1,0.1,0.1,0.1,0.2,0.2c0,0,0,0,0,0c0,0-0.1-0.1-0.1-0.1l0.8,1c0,0,0,0,0.1,0.1
		c0.4,0.5,2.2,2.5,4.3,4.6c1.6,1.6,3.5,2.4,5.7,2.4c0.8,0,1.5-0.1,2.3-0.3c0.7-0.2,1.5-0.4,2.4-0.6c2.5-0.6,5.2-1.2,7-1.7
		c0.1,0,0.2-0.1,0.3-0.1c0.3-0.1,0.5-0.1,0.7-0.2c0.3-0.1,0.7-0.2,1.1-0.3c2.2-0.5,5.2-1.2,6.8-4.4c0.4-0.9,0.9-1.8,1.4-2.8
		c0.7-1.4,1.4-2.8,2.1-4c0.1-0.2,0.2-0.4,0.3-0.6c0,0,0,0,0,0c0.1-0.1,0.1-0.2,0.2-0.3C402.9,115.8,402.8,115.9,402.6,115.9
		L402.6,115.9z"/>
	<path fill="#87172C" d="M328.7,121.1c0.4,0.6,0.9,1.3,1.4,2C329.6,122.4,329.1,121.7,328.7,121.1
		C328.7,121.1,328.7,121.1,328.7,121.1L328.7,121.1z"/>
	<rect x="366.9" y="122.8" fill="#87172C" width="0" height="0"/>
	<polygon fill="#87172C" points="366.9,122.8 366.9,122.8 366.3,124.2 366.9,122.8 	"/>
	<path fill="#87172C" d="M332.2,126.1c-0.7-1-1.5-2-2.2-3C330.7,124.1,331.5,125.1,332.2,126.1L332.2,126.1z"/>
	<path fill="#87172C" d="M345.4,133.9c0.8,0,1.6,0,2.5-0.1C347,133.8,346.2,133.9,345.4,133.9L345.4,133.9L345.4,133.9z"/>
	<path fill="#87172C" d="M333.2,127.4c-0.3-0.4-0.6-0.8-1-1.3C332.5,126.6,332.9,127,333.2,127.4c2.6,3.4,5.9,6.5,12.2,6.5h0
		C339.1,133.9,335.8,130.8,333.2,127.4L333.2,127.4z"/>
	<path fill="#87172C" d="M361.4,131.3c1.3-0.6,2.5-1.5,3.1-2.9c1.5-3.4,1.8-4.2,1.8-4.2c0,0-0.3,0.8-1.8,4.2
		C363.9,129.8,362.6,130.7,361.4,131.3L361.4,131.3z"/>
	<path fill="#87172C" d="M357.5,132.5c0.1,0,0.2,0,0.2,0c0,0,1.9-0.2,3.7-1.1c-1.8,0.9-3.7,1.1-3.7,1.1
		C357.6,132.4,357.5,132.4,357.5,132.5L357.5,132.5z"/>
	<path fill="#87172C" d="M349,133.6c5.5-0.6,7-0.9,7.8-1c0.2,0,0.4-0.1,0.6-0.1c-0.2,0-0.4,0.1-0.6,0.1
		C356,132.7,354.5,133,349,133.6L349,133.6z"/>
	<polygon fill="#87172C" points="336.7,127.8 336.7,127.8 336.7,127.8 336.7,127.8 	"/>
	<path fill="#87172C" d="M366.9,122.8l-0.1-0.1c-0.8,0.9-1.5,1.9-2.4,2.7c-0.5,0.5-1,1.1-1.5,1.6c-0.5,0.5-1,1-1.6,1.5
		c-0.3,0.2-0.6,0.5-0.8,0.6c-0.3,0.1-0.6,0.2-1,0.3c-0.7,0.2-1.4,0.3-2.1,0.4c-1.4,0.2-2.9,0.4-4.3,0.6c-1.4,0.2-2.9,0.3-4.3,0.5
		c-1.4,0.1-2.9,0.3-4.3,0.3c-0.4,0-0.7,0-1.1,0c-0.4,0-0.7,0-1-0.1c-0.7-0.1-1.4-0.3-2-0.7c-1.3-0.6-2.5-1.5-3.5-2.5c0,0,0,0,0,0
		c0.1,0.2,0.3,0.3,0.5,0.5c0,0-0.1-0.1-0.1-0.1c-0.1-0.1-0.2-0.2-0.3-0.3c-0.5-0.6-5.1-4.5-7.5-6.6c-0.2-0.1-0.4-0.2-0.5-0.2
		c0.4,0.6,0.9,1.3,1.4,2c0.7,1,1.4,2.1,2.2,3c0.3,0.4,0.7,0.9,1,1.3c2.6,3.4,5.9,6.5,12.2,6.5c0.8,0,1.6,0,2.5-0.1
		c0.2,0,0.4,0,0.6-0.1c0.2,0,0.4,0,0.5-0.1c5.5-0.6,7-0.9,7.8-1c0.2,0,0.4-0.1,0.6-0.1c0.1,0,0.2,0,0.2,0c0,0,1.9-0.2,3.7-1.1
		c1.3-0.6,2.5-1.5,3.1-2.9c1.5-3.4,1.8-4.2,1.8-4.2L366.9,122.8L366.9,122.8L366.9,122.8z"/>
	<path fill="#090B0C" d="M368.4,123.9c0.4,0.5,2.2,2.5,4.3,4.6c1.6,1.6,3.5,2.4,5.7,2.4c-2.2,0-4.1-0.8-5.7-2.4
		C370.6,126.5,368.9,124.4,368.4,123.9L368.4,123.9z"/>
	<path fill="#090B0C" d="M332.2,126.1c-0.7-1-1.5-2-2.2-3C330.7,124.1,331.5,125.1,332.2,126.1L332.2,126.1z"/>
	<path fill="#090B0C" d="M361.4,131.3c1.3-0.6,2.5-1.5,3.1-2.9c1.5-3.4,1.8-4.2,1.8-4.2c0,0-0.3,0.8-1.8,4.2
		C363.9,129.8,362.6,130.7,361.4,131.3L361.4,131.3z"/>
	<polygon fill="#090B0C" points="367.5,122.8 368.4,123.8 367.5,122.8 367.5,122.8 	"/>
	<path fill="#090B0C" d="M345.4,133.9c0.8,0,1.6,0,2.5-0.1C347,133.8,346.2,133.9,345.4,133.9L345.4,133.9L345.4,133.9z"/>
	<path fill="#090B0C" d="M380.8,130.7c0.7-0.2,1.5-0.4,2.4-0.6c2.6-0.6,5.5-1.3,7.3-1.8c-1.8,0.5-4.7,1.2-7.3,1.8
		C382.4,130.3,381.6,130.5,380.8,130.7L380.8,130.7z"/>
	<path fill="#090B0C" d="M348.5,133.7c5.9-0.7,7.5-1,8.4-1.1c0.2,0,0.4-0.1,0.6-0.1c-0.2,0-0.4,0.1-0.6,0.1
		C356,132.7,354.4,133,348.5,133.7L348.5,133.7z"/>
	<path fill="#090B0C" d="M402.5,116.6c-0.7,1.2-1.4,2.7-2.1,4C401.2,119.3,401.9,117.9,402.5,116.6L402.5,116.6z"/>
	<rect x="366.9" y="122.8" fill="#090B0C" width="0" height="0"/>
	<path fill="#090B0C" d="M381.7,91.9c0.7,0,1.2-0.6,1.2-1.2c0-0.7-0.6-1.2-1.2-1.2c-0.7,0-1.2,0.6-1.2,1.2
		C380.5,91.4,381.1,91.9,381.7,91.9L381.7,91.9z M389.2,97.4c-1.6-0.8-3.4,0.2-6.6,0.3c-2.4,0.1-4.4,0.1-4.5-3.6
		c-0.1-3.7,1.4-6.8,3.8-6.9c2.4-0.1,4.6,2.9,4.8,6.6c0.1,1,0,1.8-0.3,2.3C388.7,95.8,389.2,97.3,389.2,97.4L389.2,97.4z"/>
	<path fill="#090B0C" d="M347.6,92.8c0.7,0,1.2-0.6,1.2-1.2c0-0.7-0.6-1.2-1.2-1.2c-0.7,0-1.2,0.6-1.2,1.2
		C346.4,92.3,347,92.8,347.6,92.8L347.6,92.8z M351.3,94.8c0,3.7-1.9,3.5-4.3,3.5c-0.2,0-0.5,0-0.7,0c-0.3,0-0.5,0-0.8,0
		c-2.3,0-3.8-0.1-5.1,0.6c0-0.1,0.6-1.4,2.7-1.9c-0.2-0.5-0.4-1.2-0.4-2.2c-0.1-3.7,2.2-6.8,4.5-6.8C349.6,88,351.3,91,351.3,94.8
		L351.3,94.8z"/>
	<path fill="#090B0C" d="M401.7,71.7c0.1,0,0.2,0.1,0.5,0.2c0.1,0.1,0.2,0.1,0.3,0.1c-0.4-0.2-0.7-0.4-1.1-0.5
		C401.5,71.6,401.6,71.6,401.7,71.7C401.7,71.7,401.7,71.7,401.7,71.7L401.7,71.7z"/>
	<path fill="#090B0C" d="M327.7,71.7C327.7,71.7,327.7,71.7,327.7,71.7c0.1-0.1,0.2-0.1,0.3-0.2c-0.4,0.2-0.7,0.3-1,0.5
		c0.1,0,0.2-0.1,0.2-0.1C327.5,71.8,327.6,71.7,327.7,71.7L327.7,71.7z"/>
	<path fill="#090B0C" d="M396.4,69c0,0.3,0,0.6-0.1,0.7c-0.9-0.3-1.9-0.5-2.8-0.7c-3.1-0.7-6.3-1.2-9.5-1.6c-0.1,0-0.2,0-0.3,0
		c0,0,0-0.1,0.1-0.1c0.1-0.3,0.2-0.7,0.3-1c0.8-3.6,0.8-7.3,0.7-9l11.4,3.2C396.6,64.5,396.5,67.6,396.4,69L396.4,69z M382.2,66.9
		c0,0.1,0,0.3,0,0.4c-1.2-0.1-2.4-0.2-3.6-0.3c1.3-2.8,1.6-5.8,1.7-6.8c1-0.7,2-1.6,2.8-2.3C383.2,59.8,383.2,63.5,382.2,66.9
		L382.2,66.9z M347.2,67.3c0-0.1,0-0.3,0-0.4c-0.9-3.4-1-7-0.9-9.1c0.8,0.7,1.8,1.6,2.8,2.3c0.1,1.1,0.4,4,1.7,6.8
		C349.6,67,348.4,67.1,347.2,67.3L347.2,67.3z M345.5,67.5c-1.6,0.2-3.2,0.4-4.8,0.7c-1.6,0.3-3.2,0.6-4.7,0.9
		c-1,0.2-1.9,0.5-2.8,0.7c0-0.1,0-0.2,0-0.3c-0.1-1.2-0.3-4.6,0.4-9l11.4-3.2c-0.1,1.7-0.1,5.1,0.6,8.6c0.1,0.5,0.2,1,0.4,1.5
		c0,0,0,0.1,0.1,0.1C345.7,67.4,345.6,67.4,345.5,67.5L345.5,67.5z M402.5,72c-0.1,0-0.2-0.1-0.3-0.1c-0.1-0.1-0.3-0.1-0.5-0.2
		c0,0,0,0,0,0c-0.1,0-0.2-0.1-0.3-0.2c-1.1-0.5-2.2-0.9-3.3-1.2c-0.1,0-0.3-0.1-0.4-0.1c0,0,0-0.1,0-0.1c0-0.1,0.3-2.2,0.1-5.5
		c-0.1-1.4-0.2-3-0.5-4.8c0-0.3-0.3-0.5-0.5-0.6l-1.6-0.5c-0.3-12.5-5.5-18.4-5.7-18.6c4.6,7.4,4.6,16.2,4.5,18.3L384,55.5
		c0,0,0,0,0,0c0,0-0.1,0-0.1,0c0,0,0,0,0,0c-0.1,0-0.1,0-0.2,0c0,0,0,0,0,0c0,0-0.1,0-0.1,0c0,0,0,0,0,0c0,0-0.1,0-0.1,0.1
		c0,0,0,0,0,0c0,0,0,0,0,0c0,0,0,0,0,0c0,0-0.3,0.3-0.7,0.7c0-0.9,0-2.4-0.1-4.1c0-0.2,0-0.3,0-0.5c-0.3-4.4-1.4-10.6-4.5-16
		c0,0.1,0.3,1,0.7,2.5c1,3.8,2.6,11.5,1.7,19.9c0,0,0,0.1,0,0.1c0,0,0,0,0,0c-0.4,0.3-0.8,0.6-1.2,0.9c-0.2,0.1-0.3,0.4-0.3,0.6
		c0,0-0.1,3.8-1.7,7c0,0.1,0,0.1-0.1,0.2c-4.1-0.3-8.2-0.4-12.4-0.4c-4.1,0-8.3,0.1-12.4,0.4c0,0,0-0.1-0.1-0.1
		c-1.7-3.2-1.7-6.9-1.7-7c0-0.2-0.1-0.5-0.3-0.6c-0.4-0.3-0.8-0.6-1.2-0.9c-0.8-8,0.5-15.4,1.5-19.4c0.5-1.9,0.9-3.1,0.9-3.2
		c-4.5,7.9-4.7,17.4-4.6,20.7c-0.4-0.4-0.7-0.7-0.7-0.7c0,0,0,0,0,0c0,0,0,0,0,0c0,0,0,0,0,0c0,0-0.1,0-0.1-0.1c0,0,0,0,0,0
		c0,0-0.1,0-0.1,0c0,0,0,0,0,0c-0.1,0-0.1,0-0.2,0c0,0,0,0,0,0c0,0-0.1,0-0.1,0c0,0,0,0,0,0l-10.1,2.9c-0.1-2.1-0.1-10.9,4.5-18.3
		c-0.2,0.2-5.3,6.1-5.7,18.6l-1.6,0.5c-0.3,0.1-0.5,0.3-0.5,0.6c-0.3,1.8-0.4,3.4-0.5,4.8c-0.2,3.3,0.1,5.4,0.1,5.5c0,0,0,0.1,0,0.1
		c-0.1,0-0.3,0.1-0.4,0.1c-1.1,0.4-2.2,0.7-3.3,1.2c-0.1,0.1-0.2,0.1-0.3,0.2c0,0,0,0,0,0c-0.2,0.1-0.3,0.2-0.5,0.2
		c-0.1,0-0.2,0.1-0.2,0.1c-0.1,0-0.1,0.1-0.2,0.1c0.7-0.3,1.5-0.5,2.3-0.7c0.8-0.2,1.6-0.4,2.3-0.5c1.6-0.3,3.1-0.5,4.7-0.7
		c1.6-0.2,3.2-0.4,4.7-0.5c1.6-0.1,3.2-0.3,4.8-0.4c6.3-0.4,12.7-0.5,19.1-0.5c6.4,0,12.7,0.1,19.1,0.5c1.6,0.1,3.2,0.2,4.8,0.4
		c1.6,0.1,3.2,0.3,4.7,0.5c1.6,0.2,3.2,0.4,4.7,0.7c0.8,0.1,1.6,0.3,2.3,0.5c0.8,0.2,1.5,0.4,2.3,0.7
		C402.6,72.1,402.5,72.1,402.5,72L402.5,72z"/>
	<path fill="#090B0C" d="M327,72L327,72c0.1,0,0.2-0.1,0.2-0.1C327.1,71.9,327,72,327,72L327,72z"/>
	<path fill="#090B0C" d="M327.7,71.7C327.7,71.7,327.7,71.7,327.7,71.7C327.7,71.7,327.7,71.7,327.7,71.7L327.7,71.7z"/>
	<path fill="#090B0C" d="M327.7,71.7c-0.1,0-0.2,0.1-0.5,0.2C327.4,71.8,327.5,71.8,327.7,71.7L327.7,71.7z"/>
	<path fill="#090B0C" d="M402.5,72L402.5,72c-0.1,0-0.2-0.1-0.3-0.1C402.3,71.9,402.4,72,402.5,72L402.5,72z"/>
	<path fill="#090B0C" d="M402.2,71.9c-0.2-0.1-0.4-0.2-0.5-0.2C401.9,71.8,402.1,71.8,402.2,71.9L402.2,71.9z"/>
	<path fill="#090B0C" d="M401.7,71.7C401.7,71.7,401.7,71.7,401.7,71.7C401.7,71.7,401.7,71.7,401.7,71.7L401.7,71.7z"/>
	<path fill="#090B0C" d="M366.5,42.9v16.8h2.3v3.1h-7.7v-3.1h2.3V42.9h-5.5v2.8h-2.7v-5.4h11.3h5.3h2.9v5.4H372v-2.8H366.5
		L366.5,42.9z M376.7,47.6v-9.4h-23.5v9.4h6.7v-2.8h1.5v12.7h-2.3v7.1h11.7v-7.1h-2.3V44.9h1.5v2.8H376.7L376.7,47.6z"/>
	<polygon fill="#090B0C" points="367.5,122.8 367.5,122.8 367.5,122.8 367.5,122.8 	"/>
	<path fill="#090B0C" d="M367,122.4c0,0,0.2,0.1,0.5,0.4l-0.1-0.1l0.1-0.1c-0.2-0.1-0.3-0.3-0.5-0.4l0,0c0,0,0,0,0,0
		c-0.1,0.1-0.2,0.2-0.3,0.4l0.1,0.1C366.9,122.5,367,122.4,367,122.4L367,122.4z"/>
	<g>
		<defs>
			<rect id="SVGID_5_" x="305" y="27.7" width="344.1" height="110"/>
		</defs>
		<clipPath id="SVGID_1_">
			<use xlink:href="#SVGID_5_"  overflow="visible"/>
		</clipPath>
		<polygon clip-path="url(#SVGID_1_)" fill="#090B0C" points="367.5,122.8 367.5,122.8 367.6,122.7 367.5,122.8 367.5,122.8 		"/>
		<path clip-path="url(#SVGID_1_)" fill="#090B0C" d="M413.4,73.3c-0.2,1.5-0.5,3-0.9,4.4c-0.2,0.7-0.4,1.4-0.7,2.1
			c-0.1,0.3-0.3,0.7-0.4,1c-0.1,0.2-0.2,0.3-0.2,0.5l-0.1,0.2c-0.1,0.1-0.2,0.1-0.3,0.2l-0.7,0.3c-0.2,0.1-0.5,0.2-0.7,0.3l1.2-4.5
			c-0.3-0.1-2.9-0.7-7.3-1.6c0.1,0,0.3-0.1,0.4-0.1c0.9-0.2,1.8-0.5,2.7-0.9c0.4-0.2,0.9-0.4,1.3-0.6c0.4-0.2,0.8-0.5,1.1-0.9
			c-4.5,1.5-13.7,0.8-21.8,0c-7.5-0.8-15-1.3-22.5-1.3c-7.5,0-15,0.5-22.5,1.3c-8.2,0.8-17.4,1.5-21.8,0c0.3,0.4,0.7,0.6,1.1,0.9
			c0.4,0.2,0.8,0.4,1.3,0.6c0.9,0.4,1.8,0.6,2.7,0.9c0.3,0.1,0.7,0.1,1,0.2c-4.1,0.8-6.4,1.4-6.7,1.5l1.2,4.7c0,0,0,0-0.1,0.1
			c-0.4-0.2-0.9-0.4-1.3-0.6l-0.7-0.3c-0.1,0-0.2-0.1-0.3-0.2l-0.1-0.2c-0.1-0.2-0.2-0.3-0.2-0.5c-0.1-0.3-0.3-0.7-0.4-1
			c-0.3-0.7-0.5-1.4-0.7-2.1c-0.4-1.4-0.7-2.9-0.9-4.4c-0.2-1.5-0.3-3-0.3-4.5c0-0.8,0-1.5,0.1-2.3c0-0.4,0.1-0.7,0.1-1.1
			c0-0.3,0.1-0.5,0.1-0.8c1-0.8,2.1-1.6,3.3-2.3c1.3-0.7,2.6-1.4,4-2c1.4-0.6,2.7-1.2,4.1-1.8c0.7-0.3,1.4-0.6,2.1-0.8
			c0.7-0.3,1.4-0.5,2.1-0.8c-1.5,0.2-3,0.6-4.4,1c-1,0.2-1.9,0.5-2.8,0.8c6.7-17.6,22.8-29,40.3-29c17.5,0,33.6,11.4,40.3,29
			c-0.9-0.3-1.9-0.6-2.9-0.8c-1.5-0.4-2.9-0.7-4.4-1c0.7,0.3,1.4,0.5,2.1,0.8c0.7,0.3,1.4,0.5,2.1,0.8c1.4,0.6,2.8,1.1,4.1,1.8
			c1.4,0.6,2.7,1.3,4,2c1.2,0.7,2.3,1.4,3.3,2.3c0,0.3,0.1,0.5,0.1,0.8c0,0.4,0.1,0.7,0.1,1.1c0.1,0.7,0.1,1.5,0.1,2.3
			C413.7,70.3,413.6,71.8,413.4,73.3L413.4,73.3z M406.4,85.6c-3.4-0.7-10.8-2.2-20.9-3.2c3.3-1.4,6.7-3.2,9.7-5.4
			c6,0.8,10.4,1.8,12.8,2.3L406.4,85.6L406.4,85.6z M409,91.7c0.3,0.2,0.5,0.8,0.3,3.6c-0.3,3.4-1.7,9.5-2.6,10.4
			c-1,0.2-3.1,0-4.3-0.3c0.2-0.9,0.3-1.3,0.5-2.2l2.2-1.5c0.2-0.1,0.3-0.3,0.3-0.5l1.5-10.8C407.7,90.9,408.7,91.5,409,91.7
			L409,91.7z M394.8,107l-23.4-2.7l-3.5-11.6c-0.1-0.3-0.3-0.5-0.6-0.5c-0.9-0.1-1.6-0.2-2.3-0.2c-0.6,0-1.4,0.1-2.3,0.2
			c-0.3,0-0.5,0.3-0.6,0.5l-3.4,11.3l-23.3,5.2l-9.2-6.5L324.2,88c0.4-0.2,0.8-0.4,1.2-0.7c0.6-0.1,1.2-0.3,1.9-0.4l1.7,13.9
			c0,0.2,0.1,0.4,0.3,0.5l6.4,4.5c0.1,0.1,0.3,0.1,0.4,0.1c0.1,0,0.1,0,0.2,0l19.2-4.3c0.1,0,0.1,0,0.2-0.1c0.2-0.1,0.3-0.3,0.4-0.5
			l3.5-11.4c0.9-0.2,3.3-0.8,5.4-0.8c2.1,0,4.5,0.6,5.4,0.8l3.5,11.4c0.1,0.3,0.3,0.5,0.6,0.5l19.2,2.2c0.2,0,0.4,0,0.5-0.1l6.4-4.4
			c0.2-0.1,0.3-0.3,0.3-0.5l1.7-11.9c1.3,0.2,2.3,0.5,3.2,0.6l-1.9,13.1L394.8,107L394.8,107z M400.2,106.4c-0.2,0.7-0.4,1.4-0.7,2
			c-0.9,2.6-2,5-3.1,7.2c-0.3,0-0.6,0-1,0c-1.1,0-2.2-0.1-3.4-0.2c-2.1-0.2-5.5-0.6-6.6-0.7c-0.9-0.7-4.1-3.3-6.7-5.3
			c-0.1-0.1-0.2-0.2-0.3-0.2c-0.5-0.4-1-0.8-2.1-0.8c-1,0-2.4,0.4-5.8,1.4c1.8-1.3,1.8-3.1,1.8-3.1s-2.5,2.4-6.6,2.9
			c-4.1,0.5-7.3-2-7.3-2c0.1,0.4,0.3,1.4,1.3,2.3c-1.1-0.1-2.3-0.2-3.5-0.2c-0.4,0-0.9,0-1.3,0c-2.5,0.1-6.1,3.9-8.5,7.8
			c-1.2,0.4-5,1.6-9.5,2.9c-2.6-3.6-4.4-7.3-5.4-9.6c-0.6-1.4-0.9-2.3-1-2.5v0c-0.1-0.2-0.2-0.5-0.2-0.7l1.1,0.7v0l2.6,1.8l0.9,0.6
			c0.1,0.1,0.3,0.1,0.4,0.1c0.1,0,0.1,0,0.2,0l22.4-5l1.6-0.4c0.3-0.1,0.5-0.3,0.6-0.5l3.4-11.3c0.6-0.1,1.1-0.1,1.6-0.1
			c0.4,0,1,0,1.6,0.1l3.5,11.6c0.1,0.3,0.3,0.5,0.6,0.5l1.3,0.1l0.3,0l22.6,2.6c0.2,0,0.4,0,0.5-0.1l2.3-1.6l2.1-1.5l0.8-0.5
			C400.4,105.3,400.3,105.9,400.2,106.4L400.2,106.4z M400.1,117.1c0.1,0,0.1-0.1,0.2-0.1c0.7-0.4,1.7-0.9,2.7-1.3
			c-0.1,0.1-0.1,0.2-0.2,0.3c-0.1,0.2-0.2,0.4-0.3,0.6c-0.7,1.2-1.4,2.7-2.1,4c-0.5,1-1,2-1.4,2.8c-1.6,3.2-4.6,3.9-6.8,4.4
			c-0.4,0.1-0.7,0.2-1.1,0.3c-0.2,0.1-0.4,0.1-0.7,0.2c-1.8,0.5-4.7,1.2-7.3,1.8c-0.8,0.2-1.6,0.4-2.4,0.6c-0.8,0.2-1.6,0.3-2.3,0.3
			c-2.2,0-4.1-0.8-5.7-2.4c-2.1-2.1-3.9-4.1-4.3-4.6c-0.1-0.1-0.1-0.1-0.1-0.1l-0.8-1c-0.3-0.2-0.5-0.4-0.5-0.4s-0.1,0.1-0.2,0.3
			l-0.1-0.1l0.1,0.1l0,0l0,0l0,0l-0.5,1.4c0,0-0.3,0.8-1.8,4.2c-0.6,1.3-1.8,2.3-3.1,2.9c-1.8,0.9-3.7,1.1-3.7,1.1
			c-0.1,0-0.2,0-0.2,0c-0.2,0-0.4,0.1-0.6,0.1c-0.9,0.1-2.4,0.4-8.4,1.1c-0.2,0-0.4,0-0.6,0.1c-0.9,0.1-1.7,0.1-2.5,0.1h0h0
			c-6.3,0-9.6-3.1-12.2-6.5c-0.3-0.4-0.6-0.8-1-1.3c-0.7-1-1.5-2-2.2-3c-0.5-0.7-1-1.4-1.4-2c0,0,0,0,0,0c0.2,0.1,0.4,0.2,0.5,0.2
			c2.3,1,4.5,2.1,4.5,2.1l0.4,0.2l0.4-0.1c6.5-1.9,12.7-3.9,12.8-3.9l0.4-0.1l0.2-0.4c3.6-5.7,6.4-7,6.9-7c0.4,0,0.8,0,1.2,0
			c5,0,9.1,1.5,9.2,1.6l0.4,0.1l0.4-0.1c6.3-2,9.2-2.9,10.2-2.9c0.2,0,0.2,0,0.5,0.3c0.1,0.1,0.2,0.2,0.3,0.3c3.1,2.4,6.9,5.5,7,5.5
			l0.3,0.2l0.3,0c0,0,4.4,0.5,7,0.8c1.3,0.1,2.5,0.2,3.7,0.2C397.4,118.1,398.9,117.8,400.1,117.1L400.1,117.1z M366.5,135.9
			c-3,0.2-6.1-0.2-9.1-1c0.3,0,0.4-0.1,0.7-0.1c0.2,0,5.7-0.7,8.1-4.4l0.2,0l0.6,0c0.4,0,0.8,0,1.2-0.1c0.9-0.1,1.8-0.2,2.7-0.4
			c0.1,0.1,0.2,0.2,0.3,0.3c1.8,1.8,4.1,2.9,6.6,3C373.5,135,369.5,135.7,366.5,135.9L366.5,135.9z M369.8,129
			c-0.6,0.1-1.2,0.2-1.8,0.2c-0.4,0-0.8,0.1-1.1,0.1h-0.1c0.5-1,0.8-1.8,1.1-2.4C368.3,127.4,369,128.2,369.8,129L369.8,129z
			 M323.4,107.5c-0.4-0.4-0.8-1.5-1.3-3l0,0c-0.7-2.3-1.4-5.5-1.7-7.5c-0.3-2.7-0.1-3.3,0.2-3.5c0.3-0.3,1.5-0.9,2.5-1.5l1.4,11.3
			c0,0.2,0.1,0.4,0.3,0.5l2.9,2c0,0.2,0.1,0.3,0.1,0.5c0.1,0.2,0.1,0.5,0.2,0.7C326.9,107.3,324.5,107.7,323.4,107.5L323.4,107.5z
			 M362,76.8c-6,1.8-11.2,4.2-15,6.1c-0.4,0.2-0.8,0.4-1.2,0.6c4.3-4.1,8.9-6.4,9.4-6.7c0,0,0,0,0,0l3.5-1.6c1.9,0,3.8-0.1,5.6-0.1
			h0c0.3,0,0.7,0,1,0c1,0,1.9,0,2.9,0C366.1,75.6,364,76.2,362,76.8L362,76.8z M375.7,76.7c-1.1,1.4-2.6,3.1-4.3,4.8
			c-2.1-0.1-4.2-0.1-6.3-0.1c-3.6,0-7,0.1-10.3,0.3c4.6-1.9,10.1-3.8,16.1-4.9c1.7-0.3,3.5-0.6,5.4-0.8
			C376.1,76.2,375.9,76.4,375.7,76.7L375.7,76.7z M370.7,84.9c0,0,0.1-0.1,0.1-0.1c3.4-2.9,6.1-6.2,7.4-8c0.4-0.6,0.7-1,0.9-1.2
			c2.5,0.1,5.1,0.2,7.6,0.4c0.7,0,1.4,0.1,2.1,0.1c1.1,0.1,2.3,0.2,3.4,0.2c0,0,0,0,0,0c-0.2,0.1-0.4,0.3-0.6,0.4
			C384.3,81.8,375.7,84,370.7,84.9L370.7,84.9z M366.8,87.5c0.4,0,6.7-0.8,14.3-3.4c8.4,0.6,15.2,1.7,19.9,2.5l-1.7,11.6l-5.8,4.1
			l-18.4-2.1l-3.4-11.3c-0.1-0.3-0.3-0.4-0.5-0.5c-0.1,0-2.4-0.7-4.8-0.9L366.8,87.5L366.8,87.5z M332,84c5.1-2.3,10.9-4.5,17.3-6
			c-1.6,1.2-3.5,2.6-5.3,4.4C339.4,82.9,335.3,83.5,332,84L332,84z M341.8,84.8c-0.6,0.7-1.1,1.4-1.6,2.1l-3.1,4.5l4.6-3.1
			c0.1,0,3-2,7.8-4.3c4.8-0.4,10-0.6,15.6-0.6c1.4,0,2.7,0,4,0c-0.9,0.7-1.9,1.4-2.9,2.1l-3.4,2c-2.1,0.3-4,0.8-4.1,0.8
			c-0.1,0-0.1,0-0.2,0.1c-0.2,0.1-0.3,0.3-0.3,0.4l-3.4,11.3l-18.4,4.1l-5.8-4.1l-1.7-13.7C332.1,86.1,336.6,85.4,341.8,84.8
			L341.8,84.8z M322,79.3c1-0.2,2.3-0.5,3.9-0.8c-1,0.7-2.2,1.5-3.5,2.5L322,79.3L322,79.3z M314.8,91.4c0.1-0.1,0.2-0.3,0.3-0.4
			c6.4-7.4,15.4-13.1,17.8-14.5c0.3,0,0.5-0.1,0.8-0.1c0.9-0.1,1.8-0.2,2.8-0.2c1.9-0.1,3.7-0.3,5.6-0.4c1.6-0.1,3.2-0.2,4.8-0.2
			c1.6-0.1,3.2-0.1,4.8-0.2c-2.2,0.4-4.4,1-6.6,1.6C331.8,80.7,321,87.1,314.8,91.4L314.8,91.4z M415.9,68.7c0-0.8-0.1-1.6-0.2-2.4
			c-0.1-0.4-0.1-0.8-0.2-1.2c-0.1-0.4-0.2-0.8-0.3-1.2l-0.1-0.3l-0.2-0.2c-1.3-1-2.6-1.8-4-2.4c-1.2-0.5-2.3-1-3.5-1.5
			c-3.3-9.1-9-17.3-16.4-22.9c-7.7-5.8-16.8-8.9-26.2-8.9c-9.4,0-18.5,3.1-26.2,8.9c-7.4,5.6-13.1,13.8-16.4,22.9
			c-1.2,0.4-2.3,0.9-3.5,1.4c-1.4,0.7-2.8,1.4-4,2.4l-0.2,0.2l-0.1,0.3c-0.1,0.4-0.2,0.8-0.3,1.2c-0.1,0.4-0.1,0.8-0.2,1.2
			c-0.1,0.8-0.2,1.6-0.2,2.4c-0.1,1.6,0,3.2,0.1,4.8c0.2,1.6,0.5,3.2,0.9,4.8c0.2,0.8,0.5,1.6,0.8,2.3c0.1,0.4,0.3,0.8,0.5,1.1
			c0.1,0.2,0.2,0.4,0.3,0.6l0.2,0.3c0.1,0.1,0.1,0.2,0.2,0.3l0.2,0.3l0.3,0.1c0.3,0.1,0.5,0.2,0.7,0.4l0.7,0.3
			c0.1,0.1,0.3,0.1,0.4,0.2c-3.3,3-6.8,6.9-9.9,11.8l-3.9,6.1l5.5-4.8c0.1-0.1,4.7-4,12.3-8.5l0.1,0.9c-0.5,0.3-2.9,1.5-3.6,2.1
			c-1.2,1-1.2,2.5-0.9,5.3c0.2,1.5,0.7,4.3,1.4,6.9c1.3,4.5,2.2,5.2,3,5.4c0.4,0.1,0.8,0.1,1.4,0.1c1.5,0,3.3-0.3,4.6-0.7
			c1.4,4.5,3.5,8.5,5.9,12c-0.1,0-0.2,0.1-0.4,0.1c-1.5-0.7-6.7-3.1-8.4-3.9l-3.7-1.6l2.2,3.4c0.2,0.2,3.9,6.1,6.9,10
			c2.8,3.7,6.7,7.4,14.1,7.4c0.9,0,1.8-0.1,2.8-0.2c2.2-0.3,3.8-0.4,5.1-0.6c7.7,2.8,16.2,3,24.3,0c2.2-0.8,4.2-1.9,6.1-3
			c0,0,0.1,0,0.1,0c3-0.7,6.4-1.5,8.1-2c0.3-0.1,0.6-0.2,1-0.2c2.3-0.5,6.3-1.4,8.4-5.6c2.1-4.2,5.5-10.7,5.6-10.7l1.6-3l-3.1,1.4
			c-0.2,0.1-4.1,1.8-6.2,2.9c-0.1,0-0.2,0.1-0.2,0.1c1.7-3.4,2.5-6.1,2.8-7.2c1.2,0.3,2.9,0.2,4.1,0.2c0.6,0,1.3-0.1,1.7-0.2
			c0.8-0.2,1.4-0.8,2.6-5.3c0.7-2.7,1.2-5.6,1.3-7.1c0.3-2.9,0.2-4.5-1-5.5c-0.6-0.5-2.3-1.4-3.2-1.9l0-0.3c0.5,0.1,0.7,0.2,0.7,0.2
			l0.8-3c0.3-0.1,0.6-0.2,0.9-0.4c0.5-0.2,1-0.4,1.5-0.6l0.7-0.3c0.2-0.1,0.5-0.2,0.7-0.4l0.3-0.1l0.2-0.3c0.1-0.1,0.1-0.2,0.2-0.3
			l0.2-0.3c0.1-0.2,0.2-0.4,0.3-0.6c0.2-0.4,0.3-0.8,0.5-1.1c0.3-0.8,0.6-1.5,0.8-2.3c0.4-1.6,0.7-3.2,0.9-4.8
			C415.9,72,415.9,70.3,415.9,68.7L415.9,68.7z"/>
	</g>
</g>
<g>
	<path fill="#FFFFFF" d="M649.1,312.6c-2,11.3-7.4,15.4-14,16.2v3.3h8.3v28.7c0,8,5.3,12,12.4,12c5.5,0,11.2-2.3,13.2-7.2l-2-2.5
		c-0.9,1.6-3.9,3.9-7.7,3.9c-4.1,0-6.4-2.8-6.4-9.9v-25.3l13.8,1l0.7-6.4l-14.6,0.6v-14.3H649.1L649.1,312.6z M678.5,356.7l-3.5,0.1
		c0.5,4.5,0.6,9,0,13.1c0,0,7.1,2.6,14.3,2.6c9.7,0,17.5-4.7,17.5-13.7c0-15.9-23.5-13.4-23.5-24c0-4.4,4-6.1,8.1-6.1
		c3.5,0,6.3,1.2,6.8,3l2.3,7l3.5-0.2c0.2-3.7,0.5-8,1-11.5c-3-1.3-9.2-2.1-13.2-2.1c-9.2,0-16.5,4-16.5,13c0,15.7,23,12.2,23,24
		c0,3.9-2.5,6.9-8.1,6.9c-5.3,0-7.9-2.7-9-5.4L678.5,356.7L678.5,356.7z M716.7,386.9c-2.8,0-3.6-1.3-4-3.2l-1.4-7.3l-3.9,0.2
		c-0.6,4.3-1.4,9.2-2.5,13c2.6,1.8,5.8,2.6,10.1,2.6c6.4,0,15.9-1.8,24.5-22l14.9-35.4c1.2-2.8,1.6-3.2,5.2-4.6l2-0.7v-3.3l-8.9,0.5
		l-9.4-0.5v3.3l2.4,0.7c2.4,0.7,3.5,1.6,3.5,3.5c0,1-0.3,1.5-0.8,2.8c-1,2.6-7.7,19-10.9,26.1c-4.1-10.3-9.7-25.6-10.4-27.8
		c-0.2-0.6-0.3-1-0.3-1.5c0-1.5,1-2.7,3.3-3.2l3.1-0.7v-3.3l-12.8,0.5l-10.2-0.5v3.3l1.7,0.6c2.4,0.8,2.7,1.1,4.3,4.7
		c6.4,14.6,13.6,33.2,16,39.2C727.1,384,721.1,386.9,716.7,386.9L716.7,386.9L716.7,386.9z M593.6,310c0-0.9,0.1-1.5,1.7-1.5h21.4
		c3.7,0,5.8,3.2,7.3,9.2l1.2,4.8h3.6c0.7-13.5,1.2-19.4,1.2-19.4s-9.2,1-14.6,1h-27.4l-14.7-0.5v3.9l5,0.9c3.5,0.7,4.3,1.4,4.6,4.6
		c0,0,0.3,9.3,0.3,24.8s-0.3,24.7-0.3,24.7c0,2.8-1.1,3.8-4.6,4.5l-5,0.9v3.9l14.7-0.5h24.5c5.5,0,18.3,0.5,18.3,0.5
		c0.3-3.4,2.1-18.6,2.4-20.3h-3.5l-3.6,8.3c-2.9,6.5-7.1,7-11.8,7h-13.9c-4.7,0-6.9-1.9-6.9-5.9v-21.3c0,0,10.4,0,13.7,0.3
		c2.6,0.2,4.2,0.9,5,4.6l1.1,4.9h4l-0.3-12.2l0.6-12.3h-4l-1.3,5.4c-0.8,3.5-1.4,4.2-5,4.6c-4.8,0.5-13.8,0.4-13.8,0.4V310
		L593.6,310z"/>
</g>
<g>
	<path fill="#FFFFFF" d="M350.8,435.3h-16.9c-0.5,0-0.9,0.4-0.9,0.9v9.8c0,0.5,0.4,0.9,0.9,0.9h16.9c0.5,0,0.9-0.4,0.9-0.9v-9.8
		C351.6,435.7,351.3,435.3,350.8,435.3L350.8,435.3z"/>
	<path fill="#FFFFFF" d="M350.5,449.9h-32.4c-0.5,0-0.9,0.4-1.1,0.8l-4.2,15.9l0,0l-0.2,0.8l-5.1-16.9c-0.1-0.4-0.6-0.8-1.1-0.8
		h-12.6c-0.5,0-1,0.4-1.1,0.8l-4.7,15.9v0l-0.2,0.8l-0.2-0.8l0,0l-2-7.9l-2-7.9c-0.1-0.5-0.6-0.8-1.1-0.8H257v-13.7
		c0-0.5-0.6-0.9-1.1-0.8l-16,5c-0.5,0.2-0.9,0.4-0.9,0.9v8.6h-4.2c-0.5,0-0.9,0.4-0.9,0.9v12.2c0,0.5,0.4,0.9,0.9,0.9h4.2v14.9
		c0,10.5,5.7,15.4,16.3,15.4c4.4,0,8.6-0.9,11.5-2.5v-0.9c0,0,0-9,0-11.9c0-0.6-0.5-0.8-0.9-0.7c-1.7,0.7-3.1,0.9-4.6,0.9
		c-2.8,0-4.4-1.2-4.4-4.4v-10.9h9.1c0.5,0,0.9-0.4,0.9-0.9v-10.3l12,40c0.1,0.4,0.6,0.8,1.1,0.8h13.3c0.5,0,1-0.4,1.1-0.8l5.7-17.7
		l2.9,9.3l2.6,8.4c0.1,0.4,0.6,0.8,1.1,0.8h13.3c0.5,0,1-0.4,1.1-0.8l12.2-40.1v40.1c0,0.5,0.4,0.9,0.9,0.9h16.3
		c0.5,0,0.9-0.4,0.9-0.9v-41.9C351.3,450.3,350.9,449.9,350.5,449.9L350.5,449.9z"/>
	<path fill="#FFFFFF" d="M371.9,435.3h-16.3c-0.5,0-0.9,0.4-0.9,0.9v56.4c0,0.5,0.4,0.9,0.9,0.9h16.3c0.5,0,0.9-0.4,0.9-0.9v-56.4
		C372.7,435.7,372.4,435.3,371.9,435.3L371.9,435.3z"/>
	<path fill="#FFFFFF" d="M393.6,435.3h-16.9c-0.5,0-0.9,0.4-0.9,0.9v9.8c0,0.5,0.4,0.9,0.9,0.9h16.9c0.5,0,0.9-0.4,0.9-0.9v-9.8
		C394.4,435.7,394.1,435.3,393.6,435.3L393.6,435.3z"/>
	<path fill="#FFFFFF" d="M393.3,449.9H377c-0.5,0-0.9,0.4-0.9,0.9v41.9c0,0.5,0.4,0.9,0.9,0.9h16.3c0.5,0,0.9-0.4,0.9-0.9v-41.9
		C394.1,450.3,393.7,449.9,393.3,449.9L393.3,449.9z"/>
	<g>
		<defs>
			<rect id="SVGID_7_" x="127.2" y="416.7" width="317.3" height="95.5"/>
		</defs>
		<clipPath id="SVGID_2_">
			<use xlink:href="#SVGID_7_"  overflow="visible"/>
		</clipPath>
		<path clip-path="url(#SVGID_2_)" fill="#FFFFFF" d="M427.2,471.7c0,4.1-2.9,7.5-7,7.5c-4,0-7.1-3.4-7.1-7.7v-0.2
			c0-4.1,2.9-7.5,7-7.5c4,0,7.1,3.4,7.1,7.7V471.7L427.2,471.7z M420.2,448.9c-14.2,0-24.4,10.4-24.4,22.6v0.2
			c0,12.2,10.1,22.5,24.2,22.5c14.2,0,24.4-10.4,24.4-22.6v-0.2C444.4,459.2,434.4,448.9,420.2,448.9L420.2,448.9z"/>
		<path clip-path="url(#SVGID_2_)" fill="#FFFFFF" d="M174.9,499.6c-19.4,0-35.2-15.7-35.2-35.2c0-19.4,15.7-35.2,35.2-35.2
			c19.4,0,35.2,15.7,35.2,35.2C210,483.8,194.3,499.6,174.9,499.6L174.9,499.6z M174.9,416.7c-26.4,0-47.7,21.4-47.7,47.7
			c0,26.4,21.4,47.7,47.7,47.7c26.4,0,47.7-21.4,47.7-47.7C222.6,438,201.2,416.7,174.9,416.7L174.9,416.7z"/>
	</g>
	<path fill="#FFFFFF" d="M176.8,452.5c0-5.5,4.4-9.9,9.9-9.9c5.5,0,9.9,4.4,9.9,9.9c0,5.5-4.4,9.9-9.9,9.9
		C181.3,462.4,176.8,458,176.8,452.5L176.8,452.5z"/>
	<path fill="#FFFFFF" d="M176.8,476.3c0-5.5,4.4-9.9,9.9-9.9c5.5,0,9.9,4.4,9.9,9.9c0,5.5-4.4,9.9-9.9,9.9
		C181.3,486.2,176.8,481.8,176.8,476.3L176.8,476.3z"/>
	<path fill="#FFFFFF" d="M153,476.3c0-5.5,4.4-9.9,9.9-9.9c5.5,0,9.9,4.4,9.9,9.9c0,5.5-4.4,9.9-9.9,9.9
		C157.5,486.2,153,481.8,153,476.3L153,476.3z"/>
	<path fill="#FFFFFF" d="M153,452.5c0-5.5,4.4-9.9,9.9-9.9c5.5,0,9.9,4.4,9.9,9.9c0,5.5-4.4,9.9-9.9,9.9
		C157.5,462.4,153,458,153,452.5L153,452.5z"/>
</g>
<g>
	<path fill="#FFFFFF" d="M159,198.8c0.8,1.3,1.2,2.4,1.7,4.9c3.3-3.2,7.3-4.9,11.7-4.9c4,0,7.3,1.3,9.8,3.9c0.7,0.7,1.3,1.5,1.9,2.4
		c4.4-4.5,8.3-6.3,13.6-6.3c3.8,0,7.3,1.1,9.5,3c2.7,2.4,3.6,5.2,3.6,11.8v34.2h-12.2V216c0-5.8-0.7-6.9-4-6.9c-2.4,0-5.7,1.6-8.4,4
		v34.6h-11.9v-31.3c0-6-0.9-7.4-4.4-7.4c-2.3,0-5.5,1.2-8.3,3.7v35.1h-12.3v-33.6c0-7-0.5-10-1.8-12.3L159,198.8L159,198.8z"/>
	<path fill="#FFFFFF" d="M233.2,212.9c-0.9,2.5-1.3,5.9-1.3,10.7c0,5.5,0.6,9.7,1.6,12.1c1.1,2.6,4,3.9,6.4,3.9
		c5.5,0,7.8-4.9,7.8-16.3c0-6.5-0.8-10.7-2.5-12.9c-1.2-1.6-3.2-2.5-5.4-2.5C236.6,208,234.2,209.9,233.2,212.9L233.2,212.9z
		 M255.8,205.9c3.8,4.5,5.6,9.8,5.6,17.6c0,8.3-1.9,13.9-6,18.6c-3.6,4.1-8.5,6.7-15.9,6.7c-13.1,0-21.6-9.8-21.6-24.9
		c0-15.1,8.6-25.2,21.6-25.2C246.3,198.7,251.7,201.1,255.8,205.9L255.8,205.9z"/>
	<polygon fill="#FFFFFF" points="301.9,199.6 301.9,208.3 280.6,239 302.7,239 299.7,247.8 264.3,247.8 264.3,240 286.9,208.5 
		266.2,208.5 266.2,199.6 301.9,199.6 	"/>
	<path fill="#FFFFFF" d="M321.7,198.5v49.3h-12.6v-47.3L321.7,198.5L321.7,198.5z M323.2,186.4c0,4.3-3.4,7.8-7.8,7.8
		c-4.2,0-7.7-3.5-7.7-7.8c0-4.3,3.6-7.8,7.9-7.8C319.9,178.6,323.2,182.1,323.2,186.4L323.2,186.4z"/>
	<path fill="#FFFFFF" d="M344.7,190.7v37.5c0,8.3,0.1,9.4,0.9,10.7c0.5,0.9,1.5,1.3,2.5,1.3c0.5,0,0.7,0,1.4-0.2l2.2,7.5
		c-2.2,0.8-4.8,1.3-7.5,1.3c-5.4,0-9.7-2.5-11.2-6.6c-0.9-2.4-1.2-4-1.2-10.8v-35.9c0-6.3-0.2-10.1-0.6-14.5l12.9-2.9
		C344.5,180.8,344.7,183.9,344.7,190.7L344.7,190.7z"/>
	<path fill="#FFFFFF" d="M370.8,190.7v37.5c0,8.3,0.1,9.4,0.9,10.7c0.4,0.9,1.5,1.3,2.5,1.3c0.5,0,0.8,0,1.4-0.2l2.1,7.5
		c-2.1,0.8-4.8,1.3-7.5,1.3c-5.4,0-9.7-2.5-11.2-6.6c-1-2.4-1.1-4-1.1-10.8v-35.9c0-6.3-0.2-10.1-0.7-14.5l12.9-2.9
		C370.7,180.8,370.8,183.9,370.8,190.7L370.8,190.7z"/>
	<path fill="#FFFFFF" d="M406.9,226.7c-8.7,0-11.8,1.6-11.8,7.3c0,3.7,2.4,6.3,5.6,6.3c2.3,0,4.7-1.2,6.6-3.3l0.2-10.3H406.9
		L406.9,226.7z M390.6,201.4c4.7-2,8.7-2.8,13.1-2.8c8.1,0,13.6,3,15.5,8.4c0.6,2,0.9,3.5,0.9,8.7l-0.3,16.2c0,0.3,0,0.6,0,0.9
		c0,5.2,0.9,7.1,4.5,9.9l-6.7,7.7c-2.9-1.2-5.6-3.4-6.8-5.8c-0.9,0.9-2,1.9-2.9,2.5c-2.3,1.7-5.7,2.6-9.7,2.6
		c-10.7,0-16.5-5.5-16.5-15c0-11.3,7.8-16.6,23.1-16.6c0.9,0,1.8,0,2.8,0.1v-2c0-5.4-1-7.2-5.7-7.2c-4,0-8.7,2-13.9,5.5l-5.4-9
		C385.3,203.8,387.2,202.8,390.6,201.4L390.6,201.4z"/>
</g>
<g>
	<path fill="#FFFFFF" d="M399,312.1c3.6-2.4,8.4-2.6,12.5-1.5c0,2.4,0,4.9,0,7.3c-2-0.9-4.2-1.4-6.3-0.6c-1.6,0.6-2.6,2.3-2.9,4
		c-0.3,2.1-0.1,4.3-0.2,6.4c4.2,0,8.3,0,12.5,0c0-2.7,0-5.4,0-8.1c2.8-0.8,5.6-1.7,8.5-2.6c0,3.6,0,7.1,0,10.7c2.8,0,5.6,0,8.5,0
		v6.9c-2.8-0.1-5.7,0-8.5,0c0,4,0,8,0,12c0,2.2-0.1,4.4,0.1,6.6c0.2,1.3,0.6,2.7,1.8,3.4c2,1.1,4.6,0.6,6.5-0.6v7
		c-2.4,1.1-5.2,1.4-7.8,1.2c-2.5-0.2-5.1-1.1-6.7-3.1c-1.9-2.3-2.4-5.3-2.4-8.2c0-6.1,0-12.3,0-18.4c-4.2,0-8.3,0-12.5,0
		c0,9.6,0,19.2,0,28.9c-2.9,0-5.7,0-8.6,0c0-9.6,0-19.2,0-28.8c-2,0-4,0-6,0c0-2.3,0-4.6,0-6.9c2,0,3.9,0,5.9,0
		c0.1-3-0.3-6.2,0.6-9.1C394.9,316,396.6,313.6,399,312.1L399,312.1z"/>
	<path fill="#FFFFFF" d="M215.9,312.6c1.7-0.3,3.6,0.3,4.7,1.7c1.3,1.5,1.6,3.8,0.6,5.6c-1.1,1.9-3.6,2.9-5.7,2.4
		c-2.2-0.4-4.1-2.5-4-4.8C211.5,315,213.5,312.8,215.9,312.6L215.9,312.6z"/>
	<path fill="#FFFFFF" d="M150.3,313.6c4.1,0,8.3,0,12.4,0c3.9,9.8,7.8,19.7,11.6,29.5c1,2.5,1.9,4.9,3,7.4c5-12.3,10-24.5,15-36.8
		c4-0.1,8,0,12,0c0,16.6,0,33.2,0,49.9c-2.9,0-5.8,0-8.6,0c0-12.3,0-24.5,0-36.8c0-0.6,0-1.1-0.1-1.7c-0.2,0.3-0.3,0.5-0.4,0.8
		c-4.9,12.6-10,25.1-14.9,37.6c-2,0.1-4.1,0-6.1,0c-5.1-12.6-10.1-25.1-15.2-37.7c-0.1-0.3-0.3-0.5-0.4-0.8c-0.1,5.4,0,10.8,0,16.1
		c0,7.4,0,14.9,0,22.3c-2.7,0-5.4,0-8.1,0C150.3,346.9,150.3,330.2,150.3,313.6L150.3,313.6z"/>
	<path fill="#FFFFFF" d="M239.4,327.7c4.1-1.2,8.6-1.1,12.7,0c0.9,0.2,1.7,0.6,2.4,1c0,2.7,0,5.5,0,8.2c-2.8-2.1-6.3-3.4-9.8-3
		c-2.8,0.3-5.4,1.7-7.1,3.9c-2.1,2.8-2.6,6.5-2.3,9.9c0.3,2.7,1.4,5.3,3.5,7.1c2.2,1.9,5.2,2.6,8,2.4c2.8-0.3,5.4-1.5,7.7-3.1
		c0,2.6,0,5.2,0,7.7c-3.5,2.1-7.7,2.6-11.7,2.4c-4.1-0.2-8.2-1.8-11.1-4.6c-3.2-3.1-5-7.5-5.2-12c-0.2-4.6,0.7-9.4,3.4-13.3
		C232.1,331.1,235.6,328.8,239.4,327.7L239.4,327.7z"/>
	<path fill="#FFFFFF" d="M332.8,327.2c4-0.7,8.1-0.2,11.8,1.2c0,2.6,0,5.2,0,7.9c-2.6-1.8-5.8-2.8-9-2.7c-1.6,0.1-3.4,0.7-4.1,2.3
		c-0.6,1.5-0.2,3.5,1.2,4.4c2.4,1.6,5.3,2.3,7.8,3.8c2,1.1,3.9,2.6,4.9,4.7c1.9,3.9,1.1,9.1-2.2,12c-3.2,3-7.7,3.8-11.9,3.6
		c-3-0.2-6-0.8-8.7-2c0-2.8,0-5.5,0-8.3c2.3,1.7,5,2.9,7.8,3.3c2,0.3,4.1,0.3,5.9-0.5c1.7-0.9,2.1-3.3,1-4.9c-1-1.2-2.4-1.8-3.7-2.4
		c-2.5-1.1-5.2-2.1-7.4-3.8c-1.6-1.2-2.7-2.9-3.2-4.9c-0.7-2.8-0.5-6,1.2-8.5C326.2,329.5,329.5,327.8,332.8,327.2L332.8,327.2z"/>
	<path fill="#FFFFFF" d="M273.7,328.3c2.4-1.4,5.4-1.5,7.9-0.7c0,2.9,0,5.7,0,8.6c-1.7-1.1-3.8-1.6-5.8-1.4
		c-2.4,0.3-4.4,2.1-5.3,4.3c-1.1,2.3-1.3,4.8-1.2,7.3c0,5.7,0,11.4,0,17.1c-2.8,0-5.6,0-8.4,0c0-11.9,0-23.8,0-35.7
		c2.8,0,5.6,0,8.4,0c0,2,0,4.1,0,6.1C270.2,331.7,271.5,329.5,273.7,328.3L273.7,328.3z"/>
	<path fill="#FFFFFF" d="M212.3,327.8c2.8,0,5.7,0,8.5,0c0,11.9,0,23.8,0,35.7c-2.8,0-5.7,0-8.5,0
		C212.3,351.6,212.3,339.7,212.3,327.8L212.3,327.8z"/>
	<path fill="#FFFFFF" d="M297.3,327.1c4.1-0.5,8.4-0.3,12.2,1.4c3.3,1.5,6,4.2,7.5,7.6c1.6,3.5,2,7.5,1.7,11.3
		c-0.3,3.7-1.4,7.5-3.8,10.4c-2.4,3.1-6,5.3-9.8,6.1c-3.3,0.7-6.7,0.7-10,0c-3.9-0.8-7.6-3.1-9.9-6.4c-2.7-3.8-3.5-8.7-3.1-13.4
		c0.2-3.9,1.4-7.9,3.9-10.9C288.8,329.7,293,327.6,297.3,327.1L297.3,327.1z M299.9,333.9c-2,0.1-4.1,0.8-5.6,2.2
		c-2.1,1.9-3,4.7-3.3,7.5c-0.3,3-0.1,6.2,1.3,8.9c1.1,2.1,3,3.8,5.4,4.4c2.3,0.6,4.8,0.5,7-0.3c1.9-0.7,3.4-2.3,4.2-4.1
		c1.2-2.7,1.4-5.8,1.2-8.7c-0.2-2.7-1-5.5-3-7.5C305.2,334.4,302.5,333.7,299.9,333.9L299.9,333.9z"/>
	<path fill="#FFFFFF" d="M365.5,327.1c4.3-0.5,8.8-0.2,12.7,1.7c3.4,1.7,6,4.8,7.3,8.3c1,2.7,1.4,5.6,1.3,8.5
		c0,4.3-1.2,8.8-3.9,12.2c-2.5,3.3-6.4,5.5-10.5,6.1c-4,0.6-8.2,0.5-12-1c-3.9-1.5-7.1-4.6-8.7-8.4c-1.7-3.9-1.9-8.3-1.3-12.4
		c0.6-4.2,2.4-8.2,5.6-11C358.7,328.8,362.1,327.5,365.5,327.1L365.5,327.1z M367.8,333.9c-2.4,0.1-4.7,1.2-6.2,3
		c-1.7,2-2.4,4.6-2.6,7.1c-0.2,2.6,0,5.3,1,7.8c0.8,2.1,2.4,3.8,4.5,4.7c1.9,0.8,4.1,1,6.1,0.7c1.9-0.3,3.8-1.2,5-2.7
		c1.2-1.5,1.9-3.4,2.2-5.2c0.4-2.5,0.4-5.1-0.1-7.6c-0.4-2.1-1.4-4.3-3.1-5.7C372.8,334.3,370.2,333.7,367.8,333.9L367.8,333.9z"/>
</g>
<g>
	<path fill="#FFFFFF" d="M723.9,449.9h12.5v45.6h-12.5V449.9L723.9,449.9z"/>
	<path fill="#FFFFFF" d="M577.6,449.9v24.7c0,6.1-2.8,9.6-8.3,9.6l0,0c-5.6,0-8.3-3.5-8.3-9.6v-24.7h-12.6v27.8
		c0,11.7,8.7,18.7,21.1,18.7s21.1-7,21.1-18.7v-27.8H577.6L577.6,449.9z"/>
	<path fill="#FFFFFF" d="M665.4,449.9v24.7c0,6.1-2.8,9.6-8.3,9.6l0,0c-5.6,0-8.3-3.5-8.3-9.6v-24.7h-12.6v27.8
		c0,11.7,8.7,18.7,21.1,18.7c12.4,0,21.1-7,21.1-18.7v-27.8H665.4L665.4,449.9z"/>
	<circle fill="#FFFFFF" cx="729.9" cy="435.9" r="8"/>
	<path fill="#FFFFFF" d="M685.9,449.9v13.7v31.9h12.5v-34.4h17.5v-11.2h-17.5H685.9z"/>
	<path fill="#FFFFFF" d="M818.5,481.3c-2.3,2.5-5.5,4.2-9.1,4.2h-0.1c-6.6,0-10.6-3.3-12.1-8.3h35.2v-4.6c0-13.1-9.6-23.6-23.5-23.6
		c-13.1,0-23.8,10.6-23.8,23.8s9.9,23.8,24,23.8h0.3c7.3,0,13.1-2.8,17.2-7L818.5,481.3L818.5,481.3z M808.9,459.9
		c5.3,0,9.2,2.4,10.9,7.2h-22.1C799.6,462.8,803.6,459.9,808.9,459.9L808.9,459.9z"/>
	<path fill="#FFFFFF" d="M774.6,481.3c-2.1,2-4.9,3.3-8.1,3.3h-0.3c-6.5-0.1-11.4-5.3-11.4-11.9c0-6.5,4.9-11.7,11.4-11.9h0.3
		c3.4,0,6.3,1.5,8.5,3.8l8.6-8.6c-4.2-4.4-10.1-7.1-17.2-7.1h-0.1c-13,0.1-23.4,10.6-23.4,23.6c0,13,10.4,23.6,23.4,23.6h0.1
		c6.7,0,12.5-2.5,16.7-6.6L774.6,481.3L774.6,481.3z"/>
	<path fill="#FFFFFF" d="M610.6,449.9v-17.1h-12.5v17v11.2v14.6c0,14.9,4.8,19.8,19.2,19.8h1.8h9v-11.6h-9c-7.7,0-8.6-1.1-8.6-8.2
		v-14.4h8.6h9v-1.5v-8.2V450C628,449.9,610.6,449.9,610.6,449.9L610.6,449.9z"/>
	<path fill="#FFFFFF" d="M523.7,446.9c0-4.3,2.6-6.8,6.2-6.8c2.3,0,4,1.3,4.9,2.6l7.6-7.6c-3.9-5.5-9.1-7.2-14.1-7.2
		c-9.2,0-16.8,8.1-17.1,18.8v48.8h12.5v-34.8h16.2v-10.9h-16.2V446.9L523.7,446.9z"/>
</g>
<g>
	<g>
		<path fill="#FFFFFF" d="M626,233.2c-0.5-0.4-0.3-0.8,0-1.1l4.3-5.1c0.3-0.4,0.7-0.3,1.1,0c3.9,3.3,7.4,5.3,12.9,5.3
			c3.5,0,7.1-1.4,7.1-4.9c0-1.2-0.4-2.2-1.1-2.9c-4.5-4.5-22.9-2.2-22.9-16.5c0-6.3,4.6-13.2,15.4-13.2c6.6,0,11.6,2.3,15.6,5.4
			c0.6,0.5,0.4,0.8,0.2,1.2l-3.8,5.4c-0.4,0.5-0.6,0.5-1.3,0c-2.2-1.7-6.1-4-10.8-4c-3.9,0-6.5,1.8-6.5,4.7c0,8.6,24,3.1,24,19.4
			c0,7.9-6.1,13.4-15.9,13.4C637.3,240.1,631.4,237.8,626,233.2"/>
		<path fill="#FFFFFF" d="M681.8,205.3c-5.3,0-8,2.4-10.4,4.9v-3.5c0-0.5-0.2-0.7-0.7-0.7h-7c-0.7,0-0.8,0.2-0.8,0.8v41.8
			c0,0.5,0.2,0.7,0.7,0.7h7c0.5,0,0.8-0.2,0.8-0.8v-13.1c1.8,2.3,5.4,4.7,10.4,4.7c7.7,0,15.7-5.7,15.7-17.4
			C697.5,210.4,688.8,205.3,681.8,205.3 M680.1,212.9c4.4,0,8.7,3.4,8.7,10c0,5.8-3.8,9.8-8.7,9.8c-5.3,0-8.9-4.7-8.9-9.8
			C671.3,217.7,674.6,212.9,680.1,212.9"/>
		<path fill="#FFFFFF" d="M735.4,222.8v-0.1c0-2.4-0.5-4.7-1.4-6.8c-0.9-2.1-2.1-3.9-3.7-5.5c-1.6-1.6-3.5-2.8-5.6-3.7
			c-2.2-0.9-4.5-1.3-7.1-1.3c-2.6,0-5,0.5-7.1,1.4c-2.2,0.9-4.1,2.2-5.7,3.8c-1.6,1.6-2.9,3.4-3.8,5.5c-0.9,2.1-1.4,4.4-1.4,6.8v0.1
			c0,2.4,0.5,4.7,1.4,6.8c0.9,2.1,2.1,3.9,3.7,5.5c1.6,1.6,3.5,2.8,5.6,3.7c2.2,0.9,4.5,1.3,7.1,1.3c2.6,0,5-0.5,7.1-1.4
			c2.2-0.9,4.1-2.2,5.7-3.8c1.6-1.6,2.8-3.4,3.7-5.5C735,227.5,735.4,225.2,735.4,222.8 M717.6,232.7c-6.1,0-9.4-5.4-9.4-10
			c0-5.7,4-9.8,9.2-9.8c4.6,0,9.4,3.7,9.4,10C726.9,229.1,722.4,232.7,717.6,232.7"/>
		<path fill="#FFFFFF" d="M752.1,232.3c1.9,0,3.3-0.6,4-0.9c0.7-0.4,1.1-0.2,1.1,0.5v5.8c0,0.4-0.2,0.6-0.5,0.7
			c-1.9,0.9-3.8,1.6-6.8,1.6c-6.6,0-9.9-3.6-9.9-9.9v-16.7h-3.5c-0.4,0-0.6-0.2-0.6-0.6v-6.4c0-0.3,0.1-0.5,0.5-0.5h3.6v-8.2
			c0-0.4,0.1-0.7,0.7-0.7h7.1c0.6,0,0.8,0.3,0.8,0.8v8.1h8.1c0.4,0,0.6,0.2,0.6,0.7v6.1c0,0.5-0.2,0.7-0.7,0.7h-8v15.2
			C748.6,230.7,749.2,232.3,752.1,232.3"/>
		<path fill="#FFFFFF" d="M761.3,239.5c-0.5,0-0.7-0.2-0.7-0.7v-32.1c0-0.4,0.2-0.7,0.7-0.7h7.2c0.5,0,0.7,0.3,0.7,0.7v32.1
			c0,0.5-0.2,0.7-0.7,0.7H761.3z"/>
		<path fill="#FFFFFF" d="M770.3,196.6c0,2.9-2.4,5.3-5.3,5.3c-2.9,0-5.3-2.4-5.3-5.3c0-2.9,2.4-5.3,5.3-5.3
			C767.9,191.3,770.3,193.7,770.3,196.6"/>
		<path fill="#FFFFFF" d="M777.3,239.5c-0.4,0-0.6-0.2-0.6-0.6v-25.4h-3.5l-0.6-0.6v-6.3c0-0.4,0.1-0.6,0.6-0.6h3.5v-1.6
			c0-6.2,2.5-11.2,10.5-11.2c2.5,0,5,0.6,6,0.8c0.4,0.1,0.5,0.3,0.5,0.7v6.1c0,0.6-0.5,0.7-1.2,0.5c-0.6-0.2-2-0.6-3.6-0.6
			c-3,0-3.8,1.8-3.8,4.4v0.9h12.6c0.4,0,0.5,0.1,0.7,0.7L807,229l7.7-22.2c0.2-0.6,0.3-0.7,0.8-0.7h7.5c0.7,0,0.7,0.5,0.4,1.2
			L810.8,240c-1.9,4.3-3.7,9.5-11.2,9.5c-3.6,0-5.5-0.8-7.9-2c-0.6-0.3-0.3-0.8,0-1.4l2.2-4.8c0.3-0.6,0.6-0.5,1.1-0.2
			c0.6,0.3,2.1,1,3.8,1c2.2,0,3.1-1.4,4-3.2l-10.6-25.5h-7v25.4c0,0.4-0.2,0.6-0.6,0.6H777.3z"/>
		<path fill="#759C3F" d="M534,230l0.2,1.6l1.2,0.6c0.1-1.9,1.2-3,2.8-3.3c4.9-1.1,10.9-2.1,17.9-2.1c11,0,20.5,2.7,28.2,7.4
			c1.1,0.7,1.5,1.5,1.7,2.7l4.3-2.8l-1.1-4.3l-31.9-8.6l-29.8,3.8L534,230z"/>
		<path fill="none" stroke="#007C7C" stroke-width="0.25" d="M534,230l0.2,1.6l1.2,0.6c0.1-1.9,1.2-3,2.8-3.3
			c4.9-1.1,10.9-2.1,17.9-2.1c11,0,20.5,2.7,28.2,7.4c1.1,0.7,1.5,1.5,1.7,2.7l4.3-2.8l-1.1-4.3l-31.9-8.6l-29.8,3.8L534,230z"/>
		<path fill="#7DA43F" d="M531.9,218.1l1.4-0.5c0.1-1.8,1-3.3,3.1-3.9c5.4-1.6,11.8-2.6,18.7-2.6c13.3,0,25.5,3.5,34.4,8.9
			c1.4,0.9,2,1.5,2.2,3.8l6.6-3.6l-27.5-12.9l-46.1,2.7L531.9,218.1z"/>
		<path fill="none" stroke="#131B5C" stroke-width="0.25" d="M531.9,218.1l1.4-0.5c0.1-1.8,1-3.3,3.1-3.9c5.4-1.6,11.8-2.6,18.7-2.6
			c13.3,0,25.5,3.5,34.4,8.9c1.4,0.9,2,1.5,2.2,3.8l6.6-3.6l-27.5-12.9l-46.1,2.7L531.9,218.1z"/>
		<path fill="#7CA540" d="M530.1,202.8c-0.1-2.7,1.3-4.7,3.4-5.3c6.8-2,14.2-3,22.9-3c14.4,0,28.9,3,39.5,9.1c2.1,1.1,2.7,2.7,2.8,5
			l6.6-4.3l-19.8-16.7l-60.5,6.5L530.1,202.8z"/>
		<path fill="none" stroke="#000001" stroke-width="0.25" d="M530.1,202.8c-0.1-2.7,1.3-4.7,3.4-5.3c6.8-2,14.2-3,22.9-3
			c14.4,0,28.9,3,39.5,9.1c2.1,1.1,2.7,2.7,2.8,5l6.6-4.3l-19.8-16.7l-60.5,6.5L530.1,202.8z"/>
	</g>
	<g>
		<defs>
			<path id="SVGID_3_" d="M535.4,231.9c0-2,1.2-3,2.6-3.3c5.9-1.4,11.8-2.1,18-2.1c10.5,0,19.9,2.4,27.9,7.2
				c1.2,0.7,1.9,1.4,1.9,3.2c0,1.7-1.4,3-3,3c-0.8,0-1.3-0.3-2-0.7c-7-4.2-15.6-6.4-24.8-6.4c-5.1,0-10.3,0.7-15.1,1.7
				c-0.8,0.2-1.8,0.5-2.4,0.5C536.7,234.9,535.4,233.4,535.4,231.9 M533.4,217.4c0-2,1-3.4,3-4c5.4-1.5,10.9-2.6,18.9-2.6
				c12.6,0,24.7,3.1,34.3,8.8c1.6,0.9,2.2,2.1,2.2,3.8c0,2.1-1.7,3.8-3.7,3.8c-1,0-1.7-0.4-2.4-0.8c-7.8-4.6-18.6-7.7-30.5-7.7
				c-6.1,0-11.3,0.8-15.7,2c-0.9,0.3-1.5,0.5-2.3,0.5C535.1,221.2,533.4,219.5,533.4,217.4 M530.2,201.8c0-2.6,1.6-4.1,3.4-4.6
				c6.8-2,14.5-3,22.8-3c14.1,0,28.9,2.9,39.8,9.3c1.5,0.8,2.5,2.1,2.5,4.4c0,2.6-2.1,4.5-4.5,4.5c-1,0-1.6-0.2-2.5-0.7
				c-8.7-5.2-22.2-8.1-35.2-8.1c-6.5,0-13.1,0.7-19.2,2.3c-0.7,0.2-1.6,0.5-2.5,0.5C532.2,206.4,530.2,204.4,530.2,201.8
				 M515.4,217.2c0,26.5,21.5,48,48,48c26.5,0,48-21.5,48-48c0-26.5-21.5-48-48-48C536.9,169.2,515.4,190.7,515.4,217.2"/>
		</defs>
		<use xlink:href="#SVGID_3_"  overflow="visible" fill="#FFFFFF"/>
		<clipPath id="SVGID_4_">
			<use xlink:href="#SVGID_3_"  overflow="visible"/>
		</clipPath>
		<rect x="515.4" y="169.2" clip-path="url(#SVGID_4_)" fill="#FFFFFF" width="96" height="96"/>
	</g>
</g>
</svg>
