<?xml version="1.0" encoding="utf-8"?>
<!-- Generator: Adobe Illustrator 18.1.1, SVG Export Plug-In . SVG Version: 6.00 Build 0)  -->
<svg version="1.0" id="Layer_1" xmlns="http://www.w3.org/2000/svg" xmlns:xlink="http://www.w3.org/1999/xlink" x="0px" y="0px"
	 viewBox="0 0 960 322" enable-background="new 0 0 960 322" xml:space="preserve">
<path fill="#FFFFFF" d="M794.5,157.8l4-14.6c1.1-4,2.1-9.2,3.1-13.2h0.2c1,4.1,2.2,9.2,3.4,13.2l4.2,14.6H794.5z M733.7,175.1
	c-0.7-2.4-1.3-4.9-2-7.4c-1.8-6.3-4.4-10.9-9.3-12.8v-0.3c4.6-1.6,9.3-5.5,11.3-11.1V175.1z M706.5,148.9h-6.2v-18.9
	c1.1-0.2,3.3-0.5,7.1-0.5c7.2,0.1,11.6,3.3,11.6,9.6C719.1,145,714.4,148.9,706.5,148.9 M900.9,118.4h-20.3l-7.3,22.8
	c-2.2,7.6-4.6,16.7-6.5,24.7h-0.3c-1.5-8-3.7-16.7-5.8-24.5l-6.7-22.9h-20.7l-3.6,56.1l-17.2-56.1h-20.2l-17,55.9h-26V158h25.2
	v-12.6h-25.2v-14.3H776v-12.7h-42.3V131c-1-3.2-2.9-5.7-5.4-7.7c-5-3.9-12.2-5.4-22.6-5.4c-7.6,0-78,0.2-84.8,0.2
	c-16.4,0-26.4,8.4-26.4,20c0,9.9,7.5,16.1,19.1,20c8.4,2.9,11.7,5.3,11.7,9.6c0,4.4-3.8,7.3-11.1,7.3c-6.7,0-14.2-0.4-21.8-0.4
	c-2.3,6.2-5.6,10.1-9.9,12.9c16.3,0,22.9,0.1,30.8,0.1c19.1,0,28.1-9.6,28.1-21c0-9.6-5.8-15.8-18.1-20.2c-9-3.3-12.9-5.2-12.9-9.6
	c0-3.5,3.3-5.3,10.1-5.3c6.8,0,3.7,0,15.6,0h18.2V187h15.3v-55.6h15v55.7h15.6v-27h4.8c6.4,0.1,9.4,2.4,11.3,11
	c2.1,8.5,3.7,14,4.9,16h66.2l4.8-17.6h19.5l5.3,17.6h16.6l0-0.1h9.7l1.2-26.1c0.5-8.6,0.8-19.2,1.2-28.4h0.2c1.6,9,4,18.7,6.2,26.9
	l7.3,26.5h12.1l8.3-26.8c2.7-8,5.5-17.8,7.6-26.6h0.3c0,10,0.3,20,0.6,28.2l1,26.3h15.2L900.9,118.4z M588.8,119.2h-15.5v39.3
	c0,11.9-4.5,17.5-12.6,17.5c-7.9,0-12.4-5.9-12.4-17.5v-39.3h-15.6v38.1c0,21.6,10.2,31,27.5,31c17.9,0,28.6-9.9,28.6-30.8V119.2z"
	/>
<g>
	<g>
		<path fill="#FFFFFF" d="M163.3,156.5v21.1h-6.8v-48.7h15.2c4.7,0,8.1,1.2,10.5,3.4c2.5,2.5,3.7,5.9,3.7,10.2
			c0,2.5-0.6,4.7-1.9,6.5s-2.8,3.4-5,4.3c2.5,0.9,4,2.2,5.3,4.3c0.9,1.9,1.6,4.3,1.6,7.4v4.3c0,1.6,0,2.8,0.3,4
			c0.3,1.2,0.9,2.2,1.6,3.1v0.6H181c-0.6-0.6-1.2-1.9-1.6-3.4c-0.3-1.6-0.3-3.1-0.3-4.7v-4c0-2.8-0.6-5-1.9-6.5
			c-1.2-1.6-2.8-2.5-5-2.5h-9L163.3,156.5z M163.3,151.5h8.1c2.8,0,4.7-0.6,6.2-2.2c1.2-1.6,1.9-3.7,1.9-6.2c0-2.8-0.6-5-1.9-6.5
			c-1.2-1.6-3.1-2.2-5.9-2.2h-8.4V151.5z M201.8,132h-6.8v-6.5h6.8V132z M201.8,177.6h-6.8v-36h6.8V177.6z M226.6,168.6
			c0-1.6-0.3-2.5-1.2-3.4s-2.8-2.2-5.3-3.1c-3.7-1.6-6.5-3.1-8.4-4.7c-1.9-1.6-2.8-3.7-2.8-6.2c0-2.8,1.2-5.3,3.4-7.1
			c2.2-1.9,5-2.8,8.7-2.8c3.7,0,6.8,0.9,9,3.1c2.2,2.2,3.4,4.7,3.1,7.8v0.3h-6.5c0-1.9-0.6-3.1-1.6-4.3s-2.2-1.9-4-1.9
			c-1.6,0-3.1,0.6-4,1.6c-0.9,0.9-1.6,2.2-1.6,3.4c0,1.2,0.3,2.5,1.2,3.4c0.9,0.9,2.5,1.9,5.3,3.1c3.7,1.2,6.5,2.8,8.4,4.7
			c1.9,1.9,2.8,4,2.8,6.5c0,3.1-1.2,5.3-3.4,7.1c-2.2,1.9-5.3,2.8-9,2.8c-4,0-7.1-1.2-9.3-3.4c-2.2-2.2-3.4-5-3.4-8.1V167h6.2
			c0,2.5,0.6,4,1.9,5c1.2,0.9,2.8,1.6,4.3,1.6c1.9,0,3.1-0.3,4-1.2C226.3,171.1,226.6,169.8,226.6,168.6z M246.7,132h-6.8v-6.5h6.8
			V132z M246.7,177.6h-6.8v-36h6.8V177.6z M261.3,141.6l0.3,5.3c0.9-1.9,2.2-3.4,3.7-4.3s3.4-1.6,5.3-1.6c3.1,0,5.6,1.2,7.4,3.4
			c1.9,2.5,2.8,5.9,2.8,10.9v22.3H274v-22.3c0-3.4-0.6-5.6-1.6-7.1c-0.9-1.2-2.5-2.2-4.3-2.2c-1.2,0-2.5,0.3-3.7,1.2
			c-0.9,0.9-1.9,2.2-2.5,3.4v26.7h-6.8v-35.7H261.3z M287,158.1c0-5.3,0.9-9.3,3.1-12.4c2.2-3.1,5-4.7,9-4.7c1.9,0,3.4,0.3,4.7,1.2
			c1.2,0.9,2.5,2.2,3.4,3.7l0.6-4.3h5.9v36c0,4.7-1.2,8.4-3.7,10.9c-2.5,2.5-5.9,4-10.2,4c-1.6,0-3.1-0.3-5-0.6
			c-1.9-0.6-3.4-1.2-4.7-1.9l1.6-5c1.2,0.6,2.5,1.2,3.7,1.6c1.2,0.3,2.8,0.6,4.3,0.6c2.5,0,4.3-0.9,5.6-2.5c1.2-1.6,1.9-4,1.9-6.8
			v-3.4c-0.9,1.2-2.2,2.5-3.4,3.1c-1.2,0.6-2.8,0.9-4.7,0.9c-3.7,0-6.8-1.6-8.7-4.3c-1.9-2.8-3.1-6.8-3.1-11.5v-4.7L287,158.1z
			 M293.8,162.4c0,3.1,0.6,5.9,1.6,7.8c1.2,1.9,2.8,2.8,5.3,2.8c1.6,0,2.8-0.3,3.7-1.2s1.9-1.9,2.5-3.1v-18
			c-0.6-1.6-1.6-2.5-2.5-3.4c-0.9-0.9-2.2-1.2-3.7-1.2c-2.5,0-4,1.2-5.3,3.4c-1.2,2.2-1.9,5-1.9,8.7v4.3L293.8,162.4z M344.4,165.2
			c0-2.2-0.6-4-1.9-5.6c-1.2-1.6-3.4-2.8-6.8-3.7c-4.7-1.6-8.1-3.1-10.5-5.6c-2.5-2.2-3.7-5.3-3.7-9s1.2-6.8,4-9.3
			c2.8-2.5,6.2-3.7,10.5-3.7s8.1,1.6,10.9,4.3c2.8,2.8,4,6.2,4,10.2v0.3h-6.5c0-2.8-0.6-5.3-2.2-6.8c-1.6-1.9-3.4-2.8-6.2-2.8
			c-2.5,0-4.3,0.6-5.9,2.2c-1.2,1.6-2.2,3.4-2.2,5.6c0,2.2,0.6,3.7,2.2,5.3c1.6,1.6,4,2.8,7.1,3.7c4.3,1.2,7.8,3.4,10.2,5.6
			c2.2,2.5,3.4,5.6,3.4,9.3c0,4-1.2,7.1-4,9.6s-6.2,3.4-10.9,3.4c-4.3,0-8.1-1.2-11.5-3.7c-3.1-2.5-4.7-6.2-4.7-10.9v-0.3h6.5
			c0,3.4,0.9,5.9,2.5,7.4c1.9,1.6,4,2.5,6.8,2.5c2.5,0,4.7-0.6,5.9-2.2C343.8,169.5,344.4,167.7,344.4,165.2L344.4,165.2z
			 M366.4,132.6v9h5.6v5h-5.6V168c0,1.9,0.3,3.1,0.9,4c0.6,0.9,1.2,1.2,2.2,1.2c0.6,0,0.9,0,1.6,0s0.9-0.3,1.6-0.3l0.6,4.7
			c-0.6,0.3-1.6,0.6-2.5,0.6c-0.9,0-1.9,0.3-2.8,0.3c-2.5,0-4.7-0.9-5.9-2.5c-1.6-1.6-2.2-4.3-2.2-8.1v-21.4h-4.7v-5h4.7v-9
			L366.4,132.6L366.4,132.6z M397.1,177.6c-0.3-0.9-0.3-1.6-0.6-2.5c0-0.9-0.3-1.6-0.3-2.5c-0.9,1.6-2.2,2.8-3.7,4
			c-1.6,0.9-3.1,1.6-5,1.6c-3.1,0-5.6-0.9-7.1-2.8c-1.9-1.9-2.5-4.3-2.5-7.8c0-3.4,1.2-6.2,3.4-8.1c2.5-1.9,5.6-3.1,9.9-3.1h5v-3.7
			c0-2.2-0.6-4-1.6-5.3c-0.9-1.2-2.5-1.9-4-1.9c-1.6,0-2.8,0.6-4,1.6c-0.9,1.2-1.6,2.5-1.6,4h-6.5v-0.3c0-2.8,0.9-5.3,3.4-7.4
			s5.3-3.4,9-3.4c3.4,0,6.5,0.9,8.7,3.1c2.2,2.2,3.4,5,3.4,9v16.7c0,1.6,0,2.8,0.3,4c0.3,1.2,0.3,2.5,0.9,3.7h-7.1V177.6z
			 M388.7,173.2c1.6,0,3.1-0.6,4.3-1.6c1.2-0.9,2.2-2.2,2.8-3.4v-7.4h-5.3c-2.2,0-3.7,0.6-5,1.9c-1.2,1.2-1.9,3.1-1.9,5
			c0,1.6,0.3,3.1,1.2,4C386.2,172.6,387.5,173.2,388.7,173.2L388.7,173.2z M423.1,173.2c1.6,0,3.1-0.6,4.3-1.9
			c1.2-1.2,1.9-3.1,1.9-5.3h6.2v0.3c0,3.4-0.9,6.2-3.4,8.7c-2.5,2.5-5.3,3.4-8.7,3.4c-4.3,0-8.1-1.6-10.2-4.7
			c-2.5-3.1-3.7-6.8-3.7-11.8v-5c0-4.7,1.2-8.7,3.7-11.8c2.5-3.1,5.9-4.7,10.2-4.7c3.7,0,6.5,1.2,9,3.7c2.2,2.5,3.4,5.6,3.4,9.3v0.3
			h-6.2c0-2.5-0.6-4.3-1.6-5.9c-1.2-1.6-2.5-2.2-4.3-2.2c-2.5,0-4.3,0.9-5.6,3.1c-0.9,2.2-1.6,4.7-1.6,8.1v5c0,3.1,0.6,5.9,1.6,8.1
			C418.5,172,420.3,173.2,423.1,173.2z M450.7,160.8h-2.8v16.4h-6.8v-51.8h6.8v30.4h2.8l8.1-14.3h7.8L456,157.7l12.1,19.8h-7.8
			L450.7,160.8z"/>
	</g>
	<path fill="#143F2D" d="M139.3,189.6l-47.1,17.6l-47.1-17.6v-35.1l47.1-17.6l47.1,17.6V189.6z M122.8,161.5l-30.6-10.7l-30.6,10.7
		v21.4l30.6,10.7l30.6-10.7V161.5z"/>
	<path fill="#A2B53A" d="M139.3,172.5L92.2,190l-47.1-17.5v-35.1l47.1-17.6l47.1,17.6V172.5z M122.8,144.2l-30.6-10.7l-30.6,10.7
		v21.4l30.6,10.7l30.6-10.7V144.2z"/>
	<path fill="#B2CB57" d="M139.3,152.9l-47.1,17.6l-47.1-17.6v-35.1l47.1-17.6l47.1,17.6V152.9z M122.8,124.6l-30.6-10.7l-30.6,10.7
		V146l30.6,10.7l30.6-10.7V124.6z"/>
</g>
</svg>
