<?xml version="1.0" encoding="utf-8"?>
<!-- Generator: Adobe Illustrator 18.1.1, SVG Export Plug-In . SVG Version: 6.00 Build 0)  -->
<svg version="1.1" id="Layer_1" xmlns="http://www.w3.org/2000/svg" xmlns:xlink="http://www.w3.org/1999/xlink" x="0px" y="0px"
	 viewBox="0 0 960 560" enable-background="new 0 0 960 560" xml:space="preserve">
<g>
	<path fill="#FFFFFF" d="M252.7,258.3L144.6,150.2L122.7,172l40.6,40.6l-87.5,87.5l108.2,108.2l21.9-21.9l-40.6-40.6L252.7,258.3z
		 M124.3,304l65.1-65.1l13.4,13.4l-65.1,65.1L124.3,304z"/>
	<g>
		<path fill="#FFFFFF" d="M327.3,181.6v33.1h36v19.1h-36v74.6c0,17.1,4.9,26.9,18.8,26.9c6.9,0,10.9-0.6,14.6-1.7l1.1,19.1
			c-4.9,1.7-12.6,3.4-22.3,3.4c-11.7,0-21.1-4-27.1-10.6c-6.9-7.7-9.7-20-9.7-36.3v-75.4h-21.4v-19.1h21.4V189L327.3,181.6z"/>
		<path fill="#FFFFFF" d="M498.5,282.7c0,51.1-35.7,73.4-68.8,73.4c-37.1,0-66.3-27.4-66.3-71.1c0-46,30.6-73.1,68.6-73.1
			C471.7,211.9,498.5,240.7,498.5,282.7z M389.1,284.1c0,30.3,17.1,53.1,41.7,53.1c24,0,42-22.6,42-53.7c0-23.4-11.7-52.8-41.4-52.8
			C402,230.7,389.1,258.1,389.1,284.1z"/>
		<path fill="#FFFFFF" d="M511,259.8c0-17.7-0.6-32-1.1-45.1h22.3l1.4,23.7h0.6c10-16.9,26.6-26.6,49.1-26.6
			c33.7,0,58.8,28.3,58.8,70c0,49.7-30.6,74.3-63.1,74.3c-18.3,0-34.3-8-42.6-21.7h-0.6v75.1H511V259.8z M535.9,296.7
			c0,3.7,0.3,7.1,1.1,10.3c4.6,17.4,19.7,29.4,37.7,29.4c26.6,0,42-21.7,42-53.4c0-27.4-14.6-51.1-41.1-51.1
			c-17.1,0-33.4,12-38,30.9c-0.9,3.1-1.7,6.9-1.7,10V296.7z"/>
		<path fill="#FFFFFF" d="M690.1,181.6v33.1h36v19.1h-36v74.6c0,17.1,4.9,26.9,18.8,26.9c6.9,0,10.8-0.6,14.6-1.7l1.1,19.1
			c-4.9,1.7-12.6,3.4-22.3,3.4c-11.7,0-21.1-4-27.1-10.6c-6.9-7.7-9.7-20-9.7-36.3v-75.4h-21.4v-19.1h21.4V189L690.1,181.6z"/>
		<path fill="#FFFFFF" d="M840.6,319.8c0,12,0.6,23.7,2,33.1H820l-2-17.4h-0.9c-7.7,10.9-22.6,20.6-42.3,20.6
			c-28,0-42.3-19.7-42.3-39.7c0-33.4,29.7-51.7,83.1-51.4v-2.9c0-11.1-3.1-32-31.4-31.7c-13.1,0-26.6,3.7-36.3,10.3l-5.7-16.9
			c11.4-7.1,28.3-12,45.7-12c42.3,0,52.6,28.9,52.6,56.3V319.8z M816.3,282.4c-27.4-0.6-58.6,4.3-58.6,31.1c0,16.6,10.8,24,23.4,24
			c18.3,0,30-11.4,34-23.1c0.9-2.9,1.1-5.7,1.1-8V282.4z"/>
		<path fill="#FFFFFF" d="M859.2,150.2h25.1V353h-25.1V150.2z"/>
	</g>
</g>
</svg>
